<svg width="59" height="59" viewBox="0 0 59 59" fill="none" xmlns="http://www.w3.org/2000/svg">
<path fill-rule="evenodd" clip-rule="evenodd" d="M7.9519 12.5548C7.9519 7.21349 12.2819 2.88348 17.6233 2.88348H37.7956C40.3606 2.88348 42.8206 3.90243 44.6343 5.71616L48.6403 9.72216C50.454 11.5359 51.473 13.9958 51.473 16.5608V46.4045C51.473 51.7459 47.143 56.0759 41.8016 56.0759H17.6233C12.2819 56.0759 7.9519 51.7459 7.9519 46.4045V12.5548ZM46.6373 19.8083V46.4045C46.6373 49.0752 44.4723 51.2402 41.8016 51.2402H17.6233C14.9526 51.2402 12.7876 49.0752 12.7876 46.4045V12.5548C12.7876 9.88416 14.9526 7.71916 17.6233 7.71916H34.5481V12.5548C34.5481 16.5608 37.7956 19.8083 41.8016 19.8083H46.6373ZM46.3691 14.9727C46.1316 14.2899 45.7419 13.6624 45.221 13.1415L41.215 9.13549C40.6941 8.61461 40.0666 8.22483 39.3838 7.98739V12.5548C39.3838 13.8902 40.4663 14.9727 41.8016 14.9727H46.3691Z" fill="#777E91" stroke="#FAFBFB" stroke-width="2"/>
<path d="M28.7871 22.4097C28.5019 22.5276 28.2348 22.7026 28.0029 22.9344L20.7494 30.1879C19.8052 31.1321 19.8052 32.663 20.7494 33.6072C21.6937 34.5514 23.2245 34.5514 24.1688 33.6072L27.2948 30.4812V41.5689C27.2948 42.9042 28.3773 43.9867 29.7126 43.9867C31.0479 43.9867 32.1304 42.9042 32.1304 41.5689V30.4812L35.2564 33.6072C36.2007 34.5514 37.7316 34.5514 38.6758 33.6072C39.62 32.663 39.62 31.1321 38.6758 30.1879L31.4223 22.9344C30.7099 22.222 29.6635 22.0471 28.7871 22.4097Z" fill="#777E91" stroke="white" stroke-width="2" stroke-linecap="round" stroke-linejoin="round"/>
</svg>
