<?xml version="1.0" encoding="utf-8"?>
<!-- Generator: Adobe Illustrator 24.3.0, SVG Export Plug-In . SVG Version: 6.00 Build 0)  -->
<svg version="1.1" id="Layer_1" xmlns="http://www.w3.org/2000/svg" xmlns:xlink="http://www.w3.org/1999/xlink" x="0px" y="0px"
	 viewBox="0 0 33 24" style="enable-background:new 0 0 33 24;" xml:space="preserve">
<style type="text/css">
	.st0{fill:#FFFFFF;}
</style>
<path class="st0" d="M32.3,8.7V2.2c0-0.2-0.1-0.5-0.3-0.7c-0.2-0.2-0.4-0.3-0.7-0.3H1.6C1.4,1.3,1.2,1.4,1,1.6
	C0.8,1.8,0.7,2,0.7,2.2v6.5C0.7,9,0.8,9.2,1,9.4c0.2,0.2,0.4,0.3,0.7,0.3c0.6,0,1.2,0.2,1.7,0.7C3.7,10.8,4,11.4,4,12
	c0,0.6-0.3,1.2-0.7,1.6c-0.4,0.4-1,0.7-1.7,0.7c-0.3,0-0.5,0.1-0.7,0.3c-0.2,0.2-0.3,0.4-0.3,0.7v6.5c0,0.2,0.1,0.5,0.3,0.7
	c0.2,0.2,0.4,0.3,0.7,0.3h29.7c0.3,0,0.5-0.1,0.7-0.3c0.2-0.2,0.3-0.4,0.3-0.7v-6.5c0-0.2-0.1-0.5-0.3-0.7c-0.2-0.2-0.4-0.3-0.7-0.3
	c-0.6,0-1.2-0.2-1.7-0.7c-0.4-0.4-0.7-1-0.7-1.6c0-0.6,0.3-1.2,0.7-1.6c0.4-0.4,1-0.7,1.7-0.7c0.3,0,0.5-0.1,0.7-0.3
	C32.2,9.2,32.3,9,32.3,8.7z M30.4,7.9l-0.5,0.2c-0.8,0.3-1.5,0.8-2,1.5c-0.5,0.7-0.8,1.5-0.8,2.4s0.3,1.7,0.8,2.4
	c0.5,0.7,1.2,1.2,2,1.5l0.5,0.2v4.7H12.5v-0.7c0-0.2-0.1-0.5-0.3-0.7c-0.4-0.4-1-0.4-1.4,0c-0.2,0.2-0.3,0.4-0.3,0.7v0.7h-8v-4.7
	l0.5-0.2c0.8-0.3,1.5-0.8,2-1.5c0.5-0.7,0.8-1.5,0.8-2.4s-0.3-1.7-0.8-2.4c-0.5-0.7-1.2-1.2-2-1.5L2.6,7.9V3.2h8v0.7
	c0,0.2,0.1,0.5,0.3,0.7c0.4,0.4,1,0.4,1.4,0c0.2-0.2,0.3-0.4,0.3-0.7V3.2h17.9V7.9z"/>
<path class="st0" d="M12.2,14.3c0.2-0.2,0.3-0.4,0.3-0.7v-3.3c0-0.2-0.1-0.5-0.3-0.7c-0.2-0.2-0.4-0.3-0.7-0.3
	c-0.3,0-0.5,0.1-0.7,0.3v0c-0.2,0.2-0.3,0.4-0.3,0.7v3.3c0,0.2,0.1,0.5,0.3,0.7C11.2,14.6,11.9,14.6,12.2,14.3z"/>
</svg>
