<svg width="43" height="44" viewBox="0 0 43 44" fill="none" xmlns="http://www.w3.org/2000/svg">
<rect x="0.414429" y="0.896103" width="42.4499" height="42.4499" rx="21.2249" fill="#2C557A"/>
<path fill-rule="evenodd" clip-rule="evenodd" d="M24.1784 27.2969C24.6712 27.7547 25.4394 27.7238 25.8943 27.2278L29.8174 22.9501C30.2467 22.4819 30.2467 21.7603 29.8174 21.2921L25.8943 17.0143C25.4394 16.5183 24.6712 16.4873 24.1784 16.9452C23.6856 17.403 23.6549 18.1763 24.1098 18.6723L26.1517 20.8989L14.3537 20.8989C13.6831 20.8989 13.1394 21.4461 13.1394 22.1211C13.1394 22.7961 13.6831 23.3433 14.3537 23.3433L26.1517 23.3433L24.1098 25.5698C23.6549 26.0658 23.6856 26.839 24.1784 27.2969Z" fill="#FCFCFD"/>
</svg>
