<svg width="14" height="16" viewBox="0 0 14 16" fill="none" xmlns="http://www.w3.org/2000/svg">
<path d="M7.66987 15.8651C7.87627 15.7783 8.06965 15.6497 8.23744 15.4793L13.4874 10.146C14.1709 9.4517 14.1709 8.32608 13.4874 7.63181C12.804 6.93754 11.696 6.93754 11.0126 7.63181L8.75 9.93029L8.75 1.77778C8.75 0.79594 7.9665 4.26209e-07 7 3.41715e-07C6.0335 2.57221e-07 5.25 0.79594 5.25 1.77778L5.25 9.93029L2.98744 7.63181C2.30402 6.93754 1.19598 6.93754 0.512563 7.63181C-0.170855 8.32607 -0.170855 9.4517 0.512562 10.146L5.76256 15.4793C6.27819 16.0031 7.03555 16.1317 7.66987 15.8651Z" fill="white"/>
</svg>
