<?xml version="1.0" encoding="utf-8"?>
<!-- Generator: Adobe Illustrator 24.3.0, SVG Export Plug-In . SVG Version: 6.00 Build 0)  -->
<svg version="1.1" id="Layer_1" xmlns="http://www.w3.org/2000/svg" xmlns:xlink="http://www.w3.org/1999/xlink" x="0px" y="0px"
	 viewBox="0 0 22 22" style="enable-background:new 0 0 22 22;" xml:space="preserve">
<style type="text/css">
	.st0{fill:#FFFFFF;}
</style>
<path class="st0" d="M14,7.9c0.2,0,0.5-0.1,0.6-0.3c0.2-0.2,0.3-0.4,0.3-0.6s-0.1-0.5-0.3-0.6c-0.2-0.2-0.4-0.3-0.6-0.3h-2.1V5
	c0-0.2-0.1-0.5-0.3-0.6c-0.2-0.2-0.4-0.3-0.6-0.3s-0.5,0.1-0.6,0.3c-0.2,0.2-0.3,0.4-0.3,0.6v1.1H10c-0.8,0-1.5,0.3-2.1,0.8
	S7.1,8.2,7.1,9s0.3,1.5,0.8,2.1s1.3,0.8,2.1,0.8h2c0.3,0,0.6,0.1,0.8,0.3c0.2,0.2,0.3,0.5,0.3,0.8s-0.1,0.6-0.3,0.8
	c-0.2,0.2-0.5,0.3-0.8,0.3H8c-0.2,0-0.5,0.1-0.6,0.3c-0.2,0.2-0.3,0.4-0.3,0.6s0.1,0.5,0.3,0.6c0.2,0.2,0.4,0.3,0.6,0.3h2.1V17
	c0,0.2,0.1,0.5,0.3,0.6c0.2,0.2,0.4,0.3,0.6,0.3s0.5-0.1,0.6-0.3c0.2-0.2,0.3-0.4,0.3-0.6v-1.1H12c0.8,0,1.5-0.3,2.1-0.8
	c0.5-0.5,0.8-1.3,0.8-2.1c0-0.8-0.3-1.5-0.8-2.1c-0.5-0.5-1.3-0.8-2.1-0.8h-2c-0.3,0-0.6-0.1-0.8-0.3C9,9.6,8.9,9.3,8.9,9
	S9,8.4,9.2,8.2C9.4,8,9.7,7.9,10,7.9H14z"/>
<path class="st0" d="M18.7,3.3c-2.1-2.1-4.8-3.2-7.7-3.2c-2.2,0-4.3,0.6-6.1,1.8s-3.2,2.9-4,4.9c-0.8,2-1,4.2-0.6,6.3
	c0.4,2.1,1.5,4.1,3,5.6c1.5,1.5,3.5,2.6,5.6,3c2.1,0.4,4.3,0.2,6.3-0.6c2-0.8,3.7-2.2,4.9-4c1.2-1.8,1.8-3.9,1.8-6.1
	C21.9,8.1,20.8,5.4,18.7,3.3z M17.4,17.4c-1.7,1.7-4,2.7-6.4,2.7c-1.8,0-3.6-0.5-5.1-1.5c-1.5-1-2.7-2.4-3.4-4.1
	C1.9,12.8,1.7,11,2.1,9.2c0.4-1.8,1.2-3.4,2.5-4.7s2.9-2.1,4.7-2.5c1.8-0.4,3.6-0.2,5.3,0.5c1.7,0.7,3.1,1.9,4.1,3.4
	c1,1.5,1.5,3.2,1.5,5.1C20.1,13.4,19.2,15.7,17.4,17.4z"/>
</svg>
