<svg width="38" height="40" viewBox="0 0 38 40" fill="none" xmlns="http://www.w3.org/2000/svg">
<path d="M30.0833 5.15137H7.91667C6.16776 5.15137 4.75 6.61606 4.75 8.42286V31.3233C4.75 33.1301 6.16776 34.5948 7.91667 34.5948H30.0833C31.8322 34.5948 33.25 33.1301 33.25 31.3233V8.42286C33.25 6.61606 31.8322 5.15137 30.0833 5.15137Z" stroke="#777E90" stroke-width="2.5" stroke-linecap="round" stroke-linejoin="round"/>
<path d="M33.25 24.7803L25.3333 16.6016L7.91663 34.5948" stroke="#777E90" stroke-width="2.5" stroke-linecap="round" stroke-linejoin="round"/>
<path d="M13.5 17.8069C15.433 17.8069 17 16.188 17 14.1911C17 12.1941 15.433 10.5752 13.5 10.5752C11.567 10.5752 10 12.1941 10 14.1911C10 16.188 11.567 17.8069 13.5 17.8069Z" stroke="#777E90" stroke-width="2.5" stroke-linecap="round" stroke-linejoin="round"/>
</svg>
