<?xml version="1.0" encoding="utf-8"?>
<!-- Generator: Adobe Illustrator 24.3.0, SVG Export Plug-In . SVG Version: 6.00 Build 0)  -->
<svg version="1.1" id="Layer_1" xmlns="http://www.w3.org/2000/svg" xmlns:xlink="http://www.w3.org/1999/xlink" x="0px" y="0px"
	 viewBox="0 0 18 18" style="enable-background:new 0 0 18 18;" xml:space="preserve">
<style type="text/css">
	.st0{fill:#2C5579;}
</style>
<path class="st0" d="M17.2,13.7L17.2,13.7l-2.6-4.3l0.1-0.1c0.5-0.9,0.8-1.9,0.8-2.9c0-1.6-0.7-3.2-1.9-4.3C12.4,1,10.8,0.3,9,0.3
	C7.3,0.3,5.7,1,4.5,2.1C3.3,3.3,2.6,4.8,2.6,6.4c0,1,0.3,2,0.8,2.9l0.1,0.1l-2.7,4.4c-0.1,0.1-0.1,0.2-0.1,0.3c0,0.1,0,0.2,0.1,0.3
	c0.1,0.1,0.2,0.2,0.3,0.2c0.1,0.1,0.2,0.1,0.4,0.1c0,0,0,0,0,0h2.9l1.5,2.4c0,0.1,0.1,0.1,0.1,0.1c0.1,0.1,0.3,0.2,0.5,0.2h0.1
	c0.1,0,0.2-0.1,0.3-0.1c0.1-0.1,0.2-0.1,0.2-0.2L9,13.8l2,3.3h0.1l0,0.1c0.1,0.1,0.1,0.1,0.2,0.2c0.1,0.1,0.2,0.1,0.3,0.1l0.1,0
	c0,0,0,0,0,0c0.2,0,0.4-0.1,0.5-0.2c0.1,0,0.1-0.1,0.1-0.1l0,0l1.4-2.3h2.9c0,0,0,0,0,0c0.1,0,0.2,0,0.4-0.1
	c0.1-0.1,0.2-0.1,0.3-0.2l0,0c0-0.1,0.1-0.2,0.1-0.3c0-0.1,0-0.2-0.1-0.3L17.2,13.7z M6.4,15.6l-1.1-1.7c-0.1-0.1-0.1-0.2-0.3-0.2
	c-0.1-0.1-0.2-0.1-0.3-0.1H2.6l1.8-2.9l0.2,0.2c0.9,0.8,2,1.4,3.3,1.6l0.4,0.1L6.4,15.6z M9,11.2c-1,0-2-0.3-2.8-0.8h0
	C5.4,9.9,4.8,9.2,4.4,8.3C4,7.4,3.9,6.4,4.1,5.5c0.2-0.9,0.7-1.8,1.4-2.5c0.7-0.7,1.6-1.1,2.6-1.3C9,1.6,10,1.7,11,2
	c0.9,0.4,1.7,1,2.3,1.8c0.6,0.8,0.8,1.7,0.8,2.7c0,1.3-0.5,2.5-1.5,3.4C11.6,10.7,10.4,11.2,9,11.2z M13.4,13.6
	c-0.1,0-0.2,0-0.3,0.1c-0.1,0.1-0.2,0.1-0.3,0.2l-1.1,1.7l-1.8-3.1l0.4-0.1c1.2-0.2,2.4-0.8,3.3-1.6l0.2-0.2l1.7,2.9L13.4,13.6z"/>
<path class="st0" d="M9.4,4.2c-0.2-0.1-0.6-0.1-0.8,0c0,0-0.1,0-0.1,0l0,4.3c0,0,0,0,0,0c0.2,0.1,0.6,0.1,0.8,0c0,0,0.1,0,0.1,0
	L9.4,4.2C9.5,4.2,9.5,4.2,9.4,4.2z"/>
</svg>
