<?xml version="1.0" encoding="utf-8"?>
<!-- Generator: Adobe Illustrator 24.3.0, SVG Export Plug-In . SVG Version: 6.00 Build 0)  -->
<svg version="1.1" id="Layer_1" xmlns="http://www.w3.org/2000/svg" xmlns:xlink="http://www.w3.org/1999/xlink" x="0px" y="0px"
	 viewBox="0 0 16 16" style="enable-background:new 0 0 16 16;" xml:space="preserve">
<style type="text/css">
	.st0{fill:#2C5579;}
</style>
<g>
	<path class="st0" d="M13.3,2H2.7c-1.1,0-2,0.9-2,2v1.3v1.3V12c0,1.1,0.9,2,2,2h10.7c1.1,0,2-0.9,2-2V6.7V5.3V4
		C15.3,2.9,14.4,2,13.3,2z M14,12c0,0.4-0.3,0.7-0.7,0.7H2.7C2.3,12.7,2,12.4,2,12V6.7h12V12z M2,5.3V4c0-0.4,0.3-0.7,0.7-0.7h10.7
		C13.7,3.3,14,3.6,14,4v1.3H2z"/>
	<circle class="st0" cx="4.3" cy="10.3" r="1"/>
	<circle class="st0" cx="7.7" cy="10.3" r="1"/>
</g>
</svg>
