<?xml version="1.0" encoding="utf-8"?>
<!-- Generator: Adobe Illustrator 24.3.0, SVG Export Plug-In . SVG Version: 6.00 Build 0)  -->
<svg version="1.1" id="Layer_1" xmlns="http://www.w3.org/2000/svg" xmlns:xlink="http://www.w3.org/1999/xlink" x="0px" y="0px"
	 viewBox="0 0 33 34" style="enable-background:new 0 0 33 34;" xml:space="preserve">
<style type="text/css">
	.st0{fill:#777E90;}
</style>
<path class="st0" d="M32.1,26.6L26.9,18l0.2-0.4c0.9-1.7,1.4-3.5,1.4-5.4c0-3.1-1.3-5.9-3.5-8.1c-2.3-2.2-5.3-3.4-8.5-3.4
	c-3.2,0-6.3,1.2-8.5,3.4c-2.3,2.2-3.5,5-3.5,8.1c0,1.9,0.5,3.8,1.4,5.4L6.1,18l-5.2,8.5c-0.1,0.1-0.1,0.3-0.1,0.5
	c0,0.2,0,0.3,0.1,0.5c0.1,0.2,0.2,0.3,0.4,0.4C1.4,28,1.6,28.1,1.8,28h5.7l2.9,4.6c0.1,0.1,0.1,0.2,0.2,0.2c0.2,0.2,0.5,0.3,0.8,0.3
	h0.2c0.1,0,0.3-0.1,0.4-0.2c0.1-0.1,0.2-0.2,0.3-0.3l4.2-6.9l4.2,6.9c0.1,0.1,0.2,0.2,0.3,0.3c0.1,0.1,0.3,0.1,0.4,0.2l0.2,0
	c0,0,0,0,0,0c0.3,0,0.6-0.1,0.8-0.3c0.1-0.1,0.1-0.1,0.2-0.2l2.9-4.7h5.7c0.2,0,0.4,0,0.6-0.1c0.2-0.1,0.3-0.2,0.4-0.4
	c0.1-0.2,0.2-0.3,0.2-0.5S32.2,26.7,32.1,26.6L32.1,26.6z M11.4,30.3l-2.3-3.6c-0.1-0.2-0.2-0.3-0.4-0.4c-0.2-0.1-0.4-0.1-0.5-0.1
	H3.7l3.8-6.3l0.7,0.6c1.7,1.6,3.8,2.6,6.2,3l1.1,0.2L11.4,30.3z M16.5,21.7c-2,0-3.9-0.5-5.5-1.6c-1.6-1-2.9-2.5-3.7-4.2
	c-0.8-1.7-1-3.6-0.6-5.5c0.4-1.8,1.3-3.5,2.7-4.9c1.4-1.3,3.1-2.2,5.1-2.6c1.9-0.4,3.9-0.2,5.7,0.5c1.8,0.7,3.4,1.9,4.4,3.5
	c1.1,1.6,1.7,3.4,1.7,5.3c0,2.5-1,4.9-2.9,6.7C21.6,20.7,19.1,21.7,16.5,21.7z M24.8,26.1c-0.2,0-0.4,0.1-0.5,0.1
	c-0.2,0.1-0.3,0.2-0.4,0.4l-2.3,3.6l-4-6.6l1.1-0.2c2.3-0.4,4.4-1.5,6.1-3l0.7-0.6l3.8,6.2L24.8,26.1z"/>
<path class="st0" d="M17.3,7.8L17.3,7.8c-0.4-0.2-1.1-0.2-1.5,0c-0.1,0.1-0.1,0.1-0.1,0.1l0,8.3c0,0,0,0,0,0c0,0,0,0,0.1,0.1
	c0.4,0.2,1.1,0.2,1.5,0c0.1-0.1,0.1-0.1,0.1-0.1l0-8.3C17.4,7.9,17.3,7.8,17.3,7.8z"/>
</svg>
