<?xml version="1.0" encoding="utf-8"?>
<!-- Generator: Adobe Illustrator 24.3.0, SVG Export Plug-In . SVG Version: 6.00 Build 0)  -->
<svg version="1.1" id="Layer_1" xmlns="http://www.w3.org/2000/svg" xmlns:xlink="http://www.w3.org/1999/xlink" x="0px" y="0px"
	 viewBox="0 0 17 17" style="enable-background:new 0 0 17 17;" xml:space="preserve">
<style type="text/css">
	.st0{fill:#FFFFFF;}
</style>
<path class="st0" d="M8.5,11.6c-1.7,0-3.1-1.4-3.1-3.1c0-1.7,1.4-3.1,3.1-3.1c1.7,0,3.1,1.4,3.1,3.1C11.6,10.2,10.2,11.6,8.5,11.6z
	 M8.5,6.6c-1,0-1.9,0.9-1.9,1.9s0.9,1.9,1.9,1.9s1.9-0.9,1.9-1.9S9.5,6.6,8.5,6.6z"/>
<path class="st0" d="M8.6,16.6c-0.5,0-1-0.2-1.4-0.6c-0.4-0.4-0.6-0.9-0.6-1.4c0-0.2,0-0.3-0.1-0.3c-0.1-0.1-0.1-0.2-0.2-0.2
	C6.1,14.1,6,14,5.9,14.1c-0.1,0-0.2,0.1-0.3,0.1c-0.2,0.2-0.4,0.4-0.7,0.5c-0.5,0.2-1,0.2-1.5,0c-0.2-0.1-0.5-0.2-0.6-0.4
	c-0.2-0.2-0.3-0.4-0.4-0.6c-0.1-0.2-0.1-0.5-0.1-0.8s0.1-0.5,0.1-0.8c0.1-0.2,0.2-0.5,0.4-0.6C2.9,11.3,3,11.3,3,11.1
	c0-0.1,0-0.2,0-0.3c0-0.1-0.1-0.2-0.2-0.2c-0.1-0.1-0.2-0.1-0.3-0.1H2.4c-0.5,0-1-0.2-1.4-0.6C0.6,9.6,0.4,9.1,0.4,8.6
	s0.2-1,0.6-1.4c0.4-0.4,0.9-0.6,1.4-0.6c0.2,0,0.3,0,0.3-0.1c0.1-0.1,0.2-0.1,0.2-0.2C2.9,6.1,3,6,2.9,5.9c0-0.1-0.1-0.2-0.1-0.3
	C2.6,5.4,2.4,5.2,2.3,5C2.2,4.7,2.2,4.5,2.2,4.2c0-0.3,0.1-0.5,0.1-0.8C2.4,3.2,2.6,3,2.8,2.8c0.2-0.2,0.4-0.3,0.6-0.4
	c0.5-0.2,1-0.2,1.5,0c0.2,0.1,0.5,0.2,0.6,0.4C5.7,2.9,5.7,3,5.9,3C6,3,6.1,3,6.2,3c0,0,0.1,0,0.1,0c0.1,0,0.1-0.1,0.2-0.2
	c0.1-0.1,0.1-0.2,0.1-0.3V2.4c0-0.5,0.2-1,0.6-1.4c0.7-0.7,2-0.7,2.8,0c0.4,0.4,0.6,0.9,0.6,1.4c0,0.2,0,0.3,0.1,0.3
	s0.1,0.2,0.2,0.2c0.1,0,0.2,0.1,0.3,0c0.1,0,0.2-0.1,0.3-0.1c0.2-0.2,0.4-0.4,0.7-0.5c0.5-0.2,1-0.2,1.5,0c0.2,0.1,0.5,0.2,0.6,0.4
	c0.2,0.2,0.3,0.4,0.4,0.6c0.1,0.2,0.1,0.5,0.1,0.8c0,0.3,0,0.5-0.1,0.8c-0.1,0.2-0.2,0.5-0.4,0.6C14.1,5.7,14,5.7,14,5.9
	c0,0.1,0,0.2,0,0.3c0,0,0,0.1,0,0.1c0,0.1,0.1,0.1,0.2,0.2c0.1,0.1,0.2,0.1,0.3,0.1h0.1c0.5,0,1,0.2,1.4,0.6
	c0.4,0.4,0.6,0.9,0.6,1.4c0,0.5-0.2,1-0.6,1.4c-0.4,0.4-0.9,0.6-1.4,0.6c-0.2,0-0.3,0-0.3,0.1c-0.1,0.1-0.2,0.1-0.2,0.2c0,0,0,0,0,0
	c0,0.1-0.1,0.2,0,0.3c0,0.1,0.1,0.2,0.1,0.3c0.2,0.2,0.4,0.4,0.5,0.7c0.1,0.2,0.1,0.5,0.1,0.8s0,0.5-0.1,0.8
	c-0.1,0.2-0.2,0.5-0.4,0.6s-0.4,0.3-0.6,0.4c-0.5,0.2-1,0.2-1.5,0c-0.2-0.1-0.5-0.2-0.6-0.4c-0.1-0.1-0.2-0.2-0.3-0.2
	c-0.1,0-0.2,0-0.3,0c-0.1,0-0.2,0.1-0.2,0.2c-0.1,0.1-0.1,0.2-0.1,0.3v0.1c0,0.5-0.2,1-0.6,1.4C9.6,16.4,9.1,16.6,8.6,16.6z M6,12.8
	c0.2,0,0.5,0,0.7,0.1c0.3,0.1,0.6,0.3,0.8,0.6c0.2,0.3,0.3,0.6,0.3,1c0,0.3,0.1,0.5,0.2,0.6c0.3,0.3,0.8,0.3,1.1,0
	c0.1-0.1,0.2-0.3,0.2-0.5v-0.1c0-0.3,0.1-0.7,0.3-0.9c0.2-0.3,0.5-0.5,0.8-0.6c0.3-0.1,0.7-0.2,1-0.1c0.3,0.1,0.7,0.2,0.9,0.5
	c0.1,0.1,0.2,0.2,0.3,0.2c0.2,0.1,0.4,0.1,0.6,0c0.1,0,0.2-0.1,0.2-0.2c0.1-0.1,0.1-0.2,0.2-0.2c0-0.1,0.1-0.2,0.1-0.3
	s0-0.2-0.1-0.3c0-0.1-0.1-0.2-0.2-0.2c-0.3-0.3-0.4-0.6-0.5-0.9c-0.1-0.3,0-0.7,0.1-1c0.1-0.3,0.4-0.6,0.6-0.8
	c0.3-0.2,0.6-0.3,0.9-0.3c0.3,0,0.5-0.1,0.6-0.2c0.1-0.1,0.2-0.3,0.2-0.5c0-0.2-0.1-0.4-0.2-0.5c-0.1-0.1-0.3-0.2-0.5-0.2h-0.1
	c-0.3,0-0.7-0.1-0.9-0.3c-0.3-0.2-0.5-0.5-0.6-0.8c0-0.1,0-0.1,0-0.2c-0.1-0.3-0.1-0.6-0.1-0.9C12.9,5.3,13,5,13.3,4.7
	c0.1-0.1,0.2-0.2,0.2-0.3c0-0.1,0.1-0.2,0.1-0.3s0-0.2-0.1-0.3c0-0.1-0.1-0.2-0.2-0.2c-0.1-0.1-0.2-0.1-0.2-0.2
	c-0.2-0.1-0.4-0.1-0.6,0c-0.1,0-0.2,0.1-0.2,0.2c-0.3,0.3-0.6,0.4-0.9,0.5c-0.3,0.1-0.7,0-1-0.1C10,3.9,9.7,3.7,9.6,3.4
	C9.4,3.1,9.3,2.8,9.3,2.4C9.3,2.2,9.2,2,9,1.8C8.8,1.5,8.2,1.5,8,1.8C7.8,2,7.7,2.2,7.7,2.4v0.1c0,0.3-0.1,0.7-0.3,0.9
	C7.3,3.7,7,3.9,6.7,4.1c-0.1,0-0.1,0-0.2,0C6.2,4.2,5.9,4.2,5.6,4.2C5.3,4.1,5,4,4.7,3.7C4.6,3.6,4.5,3.5,4.4,3.5
	C4.3,3.4,4,3.4,3.9,3.5c-0.1,0-0.2,0.1-0.2,0.2C3.5,3.7,3.5,3.8,3.4,3.9c0,0.1-0.1,0.2-0.1,0.3c0,0.1,0,0.2,0.1,0.3
	c0,0.1,0.1,0.2,0.2,0.2C3.9,5,4.1,5.4,4.1,5.7c0.1,0.3,0,0.7-0.1,1C3.9,7,3.7,7.3,3.4,7.5c-0.3,0.2-0.6,0.3-1,0.3
	C2.2,7.8,2,7.9,1.8,8C1.7,8.2,1.6,8.4,1.6,8.6c0,0.2,0.1,0.4,0.2,0.5C2,9.2,2.2,9.3,2.4,9.3h0.1c0.3,0,0.7,0.1,0.9,0.3
	c0.3,0.2,0.5,0.4,0.6,0.8c0.1,0.3,0.2,0.7,0.1,1C4.1,11.7,4,12,3.7,12.3c-0.1,0.1-0.2,0.2-0.2,0.3c0,0.1-0.1,0.2-0.1,0.3
	s0,0.2,0.1,0.3c0,0.1,0.1,0.2,0.2,0.2c0.1,0.1,0.2,0.1,0.2,0.2c0.2,0.1,0.4,0.1,0.6,0c0.1,0,0.2-0.1,0.2-0.2
	c0.3-0.3,0.6-0.4,0.9-0.5C5.8,12.9,5.9,12.8,6,12.8z M13.5,10.5L13.5,10.5L13.5,10.5z"/>
</svg>
