<svg width="40" height="40" viewBox="0 0 40 40" fill="none" xmlns="http://www.w3.org/2000/svg">
<g clip-path="url(#clip0_272_1334)">
<path d="M22.3515 24.337C22.2809 24.3723 22.2015 24.3988 22.1221 24.4253L22.2809 24.4341L22.3515 24.337Z" fill="#FCE3C3"/>
<path d="M3.52967 31.2376C5.6563 28.5021 12.5745 26.8873 12.9186 26.7902C13.0421 26.7549 13.1657 26.7196 13.2892 26.6843L13.2804 26.6667L13.5716 26.2608L13.7745 25.9784L14.1275 25.493L14.3305 25.2195L14.6305 24.8048L14.8246 24.5312L15.1158 24.1253L15.6276 24.143C15.6276 24.0988 15.6188 24.0459 15.6188 24.0018C15.6011 23.7547 15.5747 23.5076 15.5482 23.2694C15.5306 23.1458 15.5129 23.0223 15.4953 22.8899C15.46 22.6252 15.4158 22.3693 15.3717 22.1046C15.3541 22.0163 15.3452 21.9369 15.3276 21.8487C15.3011 21.7163 15.2835 21.5839 15.257 21.4516C15.257 21.4428 15.2482 21.4251 15.2482 21.4163C15.2482 21.3986 15.2394 21.381 15.2394 21.3633C15.1158 21.1869 15.0011 21.0104 14.8952 20.8339C14.8864 20.8162 14.8687 20.7986 14.8599 20.7721C14.304 20.878 13.7128 20.8162 13.1921 20.5692C12.4686 20.225 11.9303 19.5279 11.7538 18.7514C11.7185 18.6102 11.7009 18.469 11.692 18.319C11.6832 18.0631 11.7097 17.8072 11.7979 17.5601C11.9303 17.2071 12.2038 16.9071 12.5303 16.7218C12.4597 16.7571 12.3891 16.7924 12.3097 16.8542C11.7891 15.8394 11.4803 14.754 11.242 13.6334C11.1273 13.0774 11.039 12.495 11.1096 11.9303C11.1361 11.7185 11.1891 11.4979 11.3038 11.3214C11.4803 11.0567 11.7803 10.9067 12.0803 10.8714C12.3803 10.8361 12.6009 10.8273 12.9009 10.9155C12.7156 10.1831 12.9539 9.36245 13.4304 8.80653C13.9069 8.25061 14.5864 7.92411 15.2923 7.8094C15.9894 7.69468 16.7042 7.7741 17.4013 7.91529C18.0719 8.04765 18.7426 8.24178 19.422 8.20649C20.2515 8.15354 21.0633 7.72998 21.6104 7.05934C22.131 6.424 23.2517 6.51224 23.9223 6.96228C24.6018 7.41231 25.2636 8.18884 25.4048 9.03596C25.5019 9.60953 25.4842 10.4478 25.0254 11.1538C25.1489 11.5067 25.246 11.8773 25.3077 12.2656C25.4401 13.1039 25.3872 13.9246 25.193 14.6481C25.7137 16.9865 25.6254 19.5103 24.7253 21.7251C24.3459 22.6428 23.8341 23.4723 22.9782 24.0106C22.8458 24.09 22.7134 24.1606 22.5811 24.2312L22.8017 24.5312L22.9958 24.8048L23.2958 25.2195L23.4988 25.493L23.8518 25.9784L24.0547 26.2608L24.3459 26.6667L24.3371 26.6843C24.4606 26.7196 24.5842 26.7549 24.7077 26.7902C25.0518 26.8873 31.9612 28.4933 34.0966 31.2376C34.3172 31.52 34.679 32.2082 35.1202 33.1348C38.1822 29.6228 40.0441 25.0254 40.0441 19.9956C40 8.95654 31.0435 0 20.0044 0C8.96537 0 0 8.95654 0 20.0044C0 24.1959 1.28833 28.0874 3.49437 31.2994C3.5032 31.2729 3.52085 31.2552 3.52967 31.2376Z" fill="#FCE3C3"/>
<path d="M24.1958 11.9215C24.4164 12.3186 24.6105 12.7421 24.7605 13.1657C24.9105 13.6069 25.0429 14.0569 25.1488 14.5158C25.1576 14.5599 25.1664 14.604 25.1753 14.6482C25.3694 13.9158 25.4223 13.1039 25.29 12.2656C25.2282 11.8774 25.1311 11.5068 25.0076 11.1538C24.8223 11.445 24.5576 11.7097 24.1958 11.9215Z" fill="#603813"/>
<path d="M21.7866 24.9106V25.193L22.2985 24.4341L22.1396 24.4253C22.0249 24.4694 21.9102 24.5047 21.7954 24.54L21.7866 24.9106Z" fill="black"/>
<path d="M15.6364 24.8401C15.6364 24.6106 15.6276 24.3812 15.6099 24.1606L15.0981 24.1429L15.6364 24.9459C15.6364 24.9106 15.6364 24.8753 15.6364 24.8401Z" fill="black"/>
<path d="M20.1189 33.629L19.8542 32.27L19.7836 31.8994L19.5807 30.8317L19.5101 30.4434L19.4659 30.2316C19.0247 30.2316 18.5747 30.161 18.1511 30.0287L18.0717 30.4346L18.0011 30.8229L17.7982 31.8906L17.7276 32.2612L17.4717 33.629C17.6482 35.5173 17.7629 37.6351 17.8335 39.8765C18.5482 39.9559 19.2718 39.9912 20.0042 39.9912C20.0748 39.9912 20.1454 39.9912 20.216 39.9912C20.0395 37.7145 19.9601 35.5614 20.1189 33.629Z" fill="#ACDDD9"/>
<path d="M15.4775 22.9076C15.4422 22.6428 15.3981 22.3869 15.354 22.1222C15.3981 22.3869 15.4422 22.6428 15.4775 22.9076Z" fill="#FFCFCA"/>
<path d="M15.5308 23.287C15.5572 23.5341 15.5837 23.7723 15.6014 24.0194C15.6014 24.0635 15.6102 24.1165 15.6102 24.1606L16.9162 24.2135C16.4573 23.9223 15.9808 23.6135 15.5308 23.287Z" fill="#FFCFCA"/>
<path d="M15.2217 21.381C15.2217 21.3986 15.2305 21.4163 15.2305 21.4339C15.2305 21.4427 15.2393 21.4604 15.2393 21.4692C15.2658 21.6016 15.2834 21.7339 15.3099 21.8663C15.2834 21.7339 15.2658 21.6016 15.2393 21.4692C15.2305 21.4428 15.2305 21.4075 15.2217 21.381Z" fill="#FFCFCA"/>
<path d="M21.7864 24.9107L21.7778 24.5312L21.7864 25.1931V24.9107Z" fill="#FFCFCA"/>
<path d="M15.6363 24.9371L16.5364 26.2872C17.7806 26.1813 19.1042 26.1901 20.419 26.3754C20.5955 26.4019 20.7631 26.4284 20.9396 26.4548L21.169 26.1107C19.6866 25.6695 18.2659 25.0518 16.96 24.2312C16.9423 24.2223 16.9335 24.2135 16.9158 24.2047L15.6099 24.1517C15.6275 24.3812 15.6363 24.6106 15.6363 24.8312C15.6363 24.8753 15.6363 24.9106 15.6363 24.9371Z" fill="#FFCFCA"/>
<path d="M19.3161 29.3934L19.2455 29.0051L19.3602 28.8375L18.2131 28.7933L18.3543 29.0051L18.2837 29.3934L18.2131 29.7905L18.1689 30.0287C18.5925 30.1523 19.0425 30.2317 19.4837 30.2317L19.3955 29.7905L19.3161 29.3934Z" fill="#FFCFCA"/>
<path d="M19.3515 28.8463L20.9398 26.4637C20.7722 26.4373 20.5957 26.4108 20.4192 26.3843C19.0956 26.1902 17.7808 26.1902 16.5366 26.2961L18.2044 28.8022L19.3515 28.8463Z" fill="#FFCFCA"/>
<path d="M15.3542 22.1222C15.3365 22.034 15.3277 21.9546 15.3101 21.8663C15.3277 21.9546 15.3365 22.034 15.3542 22.1222Z" fill="#F9BFBB"/>
<path d="M15.4775 22.9076C15.4952 23.0311 15.5128 23.1547 15.5305 23.287C15.5128 23.1547 15.4952 23.0311 15.4775 22.9076Z" fill="#F9BFBB"/>
<path d="M18.6013 24.2841C18.266 24.1429 17.9395 23.9753 17.6307 23.7811C17.2159 23.5164 16.8189 23.2076 16.4659 22.8722C15.9982 22.4222 15.5923 21.9192 15.2217 21.3898C15.2305 21.4251 15.2305 21.4515 15.2393 21.4868C15.2658 21.6192 15.2834 21.7516 15.3099 21.8839C15.3276 21.9722 15.3364 22.0516 15.354 22.1398C15.3982 22.4046 15.4423 22.6605 15.4776 22.9252C15.4952 23.0487 15.5129 23.1723 15.5305 23.3046C15.9806 23.6399 16.4571 23.94 16.9247 24.2312L18.6013 24.2841Z" fill="#F9BFBB"/>
<path d="M21.7782 24.5312C21.3281 24.6547 20.8605 24.7077 20.3928 24.69C19.7751 24.6635 19.1662 24.5135 18.5926 24.2841L16.9072 24.2135C16.9249 24.2223 16.9337 24.2312 16.9513 24.24C18.2573 25.0606 19.678 25.6783 21.1605 26.1195L21.7782 25.193V24.5312Z" fill="#F9BFBB"/>
<path d="M13.2186 16.6425C13.1834 16.6425 13.1392 16.6425 13.1039 16.6425C12.9186 16.6425 12.7333 16.6513 12.5215 16.7483C12.1862 16.9337 11.9215 17.2248 11.7891 17.5866C11.7009 17.8249 11.6744 18.0896 11.6832 18.3455C11.6921 18.4955 11.7097 18.6367 11.745 18.7779C11.9215 19.5544 12.4598 20.2515 13.1834 20.5957C13.6952 20.8427 14.2864 20.9045 14.8511 20.7986C14.1364 19.625 13.5628 18.2926 13.2804 16.916C13.2539 16.8189 13.2363 16.7307 13.2186 16.6425Z" fill="#FFCFCA"/>
<path d="M10.3594 30.9288C10.024 28.8639 8.771 28.3256 8.771 28.3256C8.771 28.3256 8.771 28.3256 8.77982 28.3168C8.92101 28.2462 10.2535 27.6285 12.2213 27.0814C12.5742 26.9843 12.9537 26.8873 13.3507 26.7902L13.289 26.6843C13.1654 26.7196 13.0419 26.7549 12.9184 26.7902C12.5742 26.8961 5.66489 28.5021 3.52944 31.2376C3.52061 31.2553 3.50296 31.2729 3.49414 31.2905C5.27662 33.8937 7.66798 36.0644 10.4564 37.5822C10.7123 35.5614 10.7476 33.3113 10.3594 30.9288Z" fill="#C15252"/>
<path d="M13.3507 26.7991C12.9537 26.8873 12.583 26.9844 12.2213 27.0903C10.2535 27.6374 8.92101 28.2639 8.77982 28.3257C8.771 28.3257 8.771 28.3345 8.771 28.3345C8.771 28.3345 10.024 28.8728 10.3593 30.9376C10.7476 33.3201 10.7123 35.5703 10.4564 37.5822C12.6889 38.8 15.1774 39.5941 17.8246 39.8853C17.7628 37.644 17.6393 35.5262 17.4628 33.6378L13.3507 26.7991Z" fill="#C15252"/>
<path d="M15.416 26.1549L15.3984 26.0666C15.116 25.6607 14.8424 25.246 14.613 24.8136L14.313 25.2283C14.4983 25.5813 14.6924 25.9343 14.9042 26.2696C15.0719 26.2343 15.2483 26.1902 15.416 26.1549Z" fill="#363740"/>
<path d="M13.5892 26.3137C13.5803 26.296 13.5715 26.2872 13.5627 26.2695L13.2715 26.6754L13.2803 26.6931C13.4303 26.649 13.5715 26.6137 13.7215 26.5696C13.6774 26.4901 13.6333 26.4019 13.5892 26.3137Z" fill="#363740"/>
<path d="M15.0983 24.1342L14.8071 24.5401C14.9483 24.8224 15.116 25.0872 15.2836 25.3519L15.0983 24.1342Z" fill="#363740"/>
<path d="M14.0216 26.499C14.2157 26.446 14.401 26.4019 14.5951 26.349C14.4275 26.0754 14.2598 25.793 14.1098 25.5018L13.7568 25.9872C13.8098 26.0842 13.8627 26.1901 13.9068 26.2872C13.951 26.3578 13.9863 26.4284 14.0216 26.499Z" fill="#363740"/>
<path d="M15.6188 25.8372C15.6188 25.846 15.6276 25.846 15.6276 25.8548C15.6364 25.5548 15.6364 25.246 15.6364 24.9459L15.0981 24.1429L15.2835 25.3607C15.3982 25.5107 15.5041 25.6783 15.6188 25.8372Z" fill="#363740"/>
<path d="M15.3979 26.0667L15.4156 26.1549C15.4332 26.1549 15.4421 26.1461 15.4597 26.1461C15.4332 26.1196 15.4156 26.0931 15.3979 26.0667Z" fill="#363740"/>
<path d="M17.5601 29.8169C17.7277 30.0287 17.9042 30.2316 18.0807 30.4346L18.1601 30.0287C18.0366 29.9934 17.913 29.9493 17.7895 29.9051C17.7101 29.8787 17.6307 29.8434 17.5601 29.8169Z" fill="#363740"/>
<path d="M17.207 31.2199C17.4012 31.4494 17.5953 31.6788 17.7983 31.8994L18.0012 30.8317C17.6482 30.4169 17.3041 29.9934 16.96 29.5698C17.057 30.1081 17.1364 30.664 17.207 31.2199Z" fill="#363740"/>
<path d="M17.4367 33.3113C17.4455 33.4172 17.4544 33.5231 17.472 33.6289L17.7279 32.2612C17.5779 32.0935 17.4191 31.9259 17.269 31.7494C17.3308 32.27 17.3838 32.7906 17.4367 33.3113Z" fill="#363740"/>
<path d="M15.9275 26.0313C15.9716 26.1284 16.0069 26.2343 16.051 26.3314C16.2099 26.3137 16.3687 26.2961 16.5275 26.2872L15.6275 24.9371C15.6275 25.2372 15.6275 25.546 15.6187 25.846C15.6716 25.9166 15.7245 25.996 15.7775 26.0666C15.8304 26.0578 15.8834 26.0402 15.9275 26.0313Z" fill="#363740"/>
<path d="M17.4014 28.7668L16.7837 28.7404C16.8013 28.8021 16.8102 28.8639 16.819 28.9168C17.0484 29.1992 17.2778 29.4816 17.5073 29.764C17.5249 29.7816 17.5337 29.7993 17.5514 29.8169C17.622 29.8522 17.7014 29.8787 17.772 29.9052C17.8955 29.9493 18.0191 29.9934 18.1426 30.0287L18.1867 29.7904C17.9308 29.4463 17.6661 29.111 17.4014 28.7668Z" fill="#363740"/>
<path d="M18.2748 29.3933L18.3454 29.0051L18.2043 28.7933L17.7983 28.7756C17.9572 28.9874 18.116 29.1904 18.2748 29.3933Z" fill="#363740"/>
<path d="M16.1395 26.5608C16.6777 27.3108 17.2337 28.0432 17.7984 28.7757L18.2043 28.7933L16.5366 26.2872C16.3777 26.3049 16.2189 26.3137 16.0601 26.3314C16.0865 26.4108 16.113 26.4902 16.1395 26.5608Z" fill="#363740"/>
<path d="M16.7835 28.7403L17.4012 28.7668C17.0835 28.3521 16.7747 27.9373 16.4658 27.5226C16.5894 27.9285 16.6952 28.3344 16.7835 28.7403Z" fill="#363740"/>
<path d="M14.7009 26.5255C14.6656 26.4637 14.6304 26.4108 14.5951 26.349C14.4009 26.3931 14.2156 26.4461 14.0215 26.499C14.048 26.5431 14.0744 26.5961 14.0921 26.6402C14.295 26.5961 14.498 26.5608 14.7009 26.5255Z" fill="#363740"/>
<path d="M13.792 26.7019C13.7744 26.6578 13.7479 26.6225 13.7303 26.5784C13.5803 26.6137 13.4391 26.6578 13.2891 26.7019L13.3508 26.8078C13.492 26.7637 13.642 26.7284 13.792 26.7019Z" fill="#363740"/>
<path d="M15.4509 26.4108L15.4068 26.1549C15.2392 26.1902 15.0715 26.2343 14.895 26.2784C14.9391 26.3402 14.9744 26.4108 15.0186 26.4726C15.1686 26.4461 15.3098 26.4285 15.4509 26.4108Z" fill="#363740"/>
<path d="M15.6102 26.3843C15.6102 26.3755 15.6102 26.3666 15.6102 26.3578C15.5572 26.2872 15.5043 26.2078 15.4513 26.1372C15.4337 26.1372 15.4249 26.146 15.4072 26.146L15.4513 26.4019C15.5043 26.4019 15.5572 26.3931 15.6102 26.3843Z" fill="#363740"/>
<path d="M16.5277 29.2522C16.2806 29.0845 16.0159 28.9257 15.8129 28.7051C15.7247 28.608 15.6453 28.4933 15.5923 28.3609C15.5129 28.1668 15.5217 27.9639 15.557 27.7609C15.2658 27.355 14.9746 26.9491 14.7099 26.5255C14.507 26.5608 14.304 26.5961 14.1099 26.6402C14.2511 26.905 14.3922 27.1609 14.5422 27.4168C15.2923 28.7139 16.1571 29.9493 17.1189 31.1053C17.1542 31.1406 17.1807 31.1847 17.216 31.22C17.1454 30.6641 17.066 30.117 16.9689 29.5699C16.9424 29.5346 16.916 29.5081 16.8895 29.4728C16.7571 29.4022 16.6424 29.3316 16.5277 29.2522Z" fill="#363740"/>
<path d="M17.269 31.7582C16.5719 30.964 15.9278 30.1257 15.3277 29.2521C14.9042 28.6256 14.4983 27.9814 14.1276 27.3284C14.0129 27.1255 13.8982 26.9137 13.7835 26.7019C13.6335 26.7372 13.4835 26.7637 13.3423 26.799L17.4632 33.6377C17.4544 33.5318 17.4455 33.4259 17.4279 33.32C17.3838 32.7906 17.3308 32.27 17.269 31.7582Z" fill="#363740"/>
<path d="M15.5921 27.302L15.4509 26.4108C15.3097 26.4284 15.1685 26.4549 15.0273 26.4725C15.0362 26.4902 15.045 26.5078 15.0538 26.5167C15.2303 26.7814 15.4068 27.0461 15.5921 27.302Z" fill="#363740"/>
<path d="M15.5924 27.3108C15.5924 27.0108 15.6012 26.7196 15.61 26.4196C15.61 26.4107 15.61 26.4019 15.61 26.3843C15.5571 26.3931 15.5041 26.4019 15.4512 26.4019L15.5924 27.3108C15.5924 27.3108 15.5924 27.302 15.5924 27.3108Z" fill="#363740"/>
<path d="M15.6099 26.3667C15.6099 26.3753 15.6099 26.3839 15.6099 26.3925C15.6185 26.3925 15.6185 26.3925 15.6271 26.3925C15.6271 26.3753 15.6185 26.3753 15.6099 26.3667Z" fill="#363740"/>
<path d="M16.0514 26.3314C16.0073 26.2343 15.972 26.1284 15.9278 26.0314C15.8749 26.0402 15.8308 26.0578 15.7778 26.0667C15.8396 26.1549 15.9102 26.252 15.9808 26.3402C16.0073 26.3402 16.0337 26.3402 16.0514 26.3314Z" fill="#363740"/>
<path d="M16.5277 29.2522C16.6425 29.3316 16.7572 29.411 16.8807 29.4816C16.6778 29.2345 16.4748 28.9786 16.2807 28.7227L15.813 28.7051C16.0071 28.9169 16.2807 29.0757 16.5277 29.2522Z" fill="#363740"/>
<path d="M16.8277 28.9168C16.8189 28.8551 16.8012 28.7933 16.7924 28.7404H16.6865C16.7306 28.7933 16.7748 28.8551 16.8277 28.9168Z" fill="#363740"/>
<path d="M15.5482 27.7609C15.5217 27.9638 15.5041 28.1668 15.5835 28.3609C15.6365 28.4933 15.7159 28.5992 15.8041 28.705L15.6894 27.9638C15.6453 27.8932 15.5923 27.8226 15.5482 27.7609Z" fill="#363740"/>
<path d="M16.2717 27.249C16.0599 26.9578 15.8482 26.6755 15.6364 26.3843C15.6275 26.3843 15.6275 26.3843 15.6187 26.3843C15.6187 26.3931 15.6187 26.4019 15.6187 26.4196C15.6099 26.7196 15.6011 27.0108 15.6011 27.3108C15.9452 27.7961 16.3158 28.2727 16.6864 28.7403H16.7923C16.7041 28.3344 16.5894 27.9285 16.4658 27.5226C16.3952 27.4255 16.3335 27.3373 16.2717 27.249Z" fill="#363740"/>
<path d="M16.1393 26.5607C16.1128 26.4813 16.0775 26.4107 16.0511 26.3313C16.0246 26.3313 16.0069 26.3401 15.9805 26.3401C16.0334 26.4195 16.0864 26.4901 16.1393 26.5607Z" fill="#363740"/>
<path d="M15.6982 27.955L15.813 28.6962L16.2806 28.7138C16.1306 28.5197 15.9718 28.3167 15.8218 28.1226C15.7777 28.0697 15.7335 28.0167 15.6982 27.955Z" fill="#363740"/>
<path d="M15.2922 25.3519C15.1157 25.0871 14.9569 24.8224 14.8157 24.54L14.6216 24.8136C14.851 25.246 15.1246 25.6607 15.4069 26.0666L15.2922 25.3519Z" fill="white"/>
<path d="M15.619 26.1019C15.619 26.0136 15.619 25.9342 15.6278 25.846C15.6278 25.8371 15.619 25.8371 15.619 25.8283C15.5043 25.6695 15.3984 25.5106 15.2925 25.3518L15.4072 26.0666C15.4248 26.093 15.4425 26.1195 15.4601 26.146C15.5131 26.1283 15.566 26.1195 15.619 26.1019Z" fill="white"/>
<path d="M15.7863 26.0667C15.7334 25.9961 15.6804 25.9167 15.6275 25.8461C15.6275 25.9343 15.6275 26.0137 15.6187 26.102C15.6716 26.0931 15.7334 26.0755 15.7863 26.0667Z" fill="white"/>
<path d="M17.4014 28.7668C17.6661 29.111 17.9308 29.4551 18.1955 29.7904L18.2661 29.3934C18.1073 29.1904 17.9485 28.9874 17.7896 28.7757L17.4014 28.7668Z" fill="white"/>
<path d="M16.1396 26.5608C16.2632 26.8785 16.3691 27.1961 16.4661 27.5138C16.775 27.9285 17.0838 28.3433 17.4015 28.758L17.7986 28.7757C17.2338 28.0521 16.6867 27.3108 16.1396 26.5608Z" fill="white"/>
<path d="M15.4512 26.146C15.5041 26.2166 15.5571 26.296 15.61 26.3666C15.61 26.2784 15.6188 26.1901 15.6188 26.1107C15.5659 26.1195 15.5129 26.1284 15.4512 26.146Z" fill="white"/>
<path d="M15.9805 26.3402C15.9099 26.252 15.8482 26.1549 15.7776 26.0667C15.7246 26.0755 15.6717 26.0931 15.6099 26.1019C15.6099 26.1902 15.6011 26.2784 15.6011 26.3578C15.6099 26.3667 15.6099 26.3755 15.6187 26.3755C15.7423 26.3667 15.8658 26.3578 15.9805 26.3402Z" fill="white"/>
<path d="M15.6274 26.3843C15.8392 26.6755 16.051 26.9579 16.2628 27.2491C16.3246 27.3373 16.3951 27.4256 16.4569 27.5138C16.3598 27.1962 16.254 26.8785 16.1304 26.5608C16.0775 26.4902 16.0245 26.4108 15.9716 26.3402C15.8657 26.3579 15.7422 26.3667 15.6274 26.3843Z" fill="white"/>
<path d="M14.904 26.2695C14.6922 25.9254 14.4981 25.5812 14.3128 25.2283L14.1187 25.5018C14.2687 25.793 14.4275 26.0666 14.604 26.3489C14.701 26.3225 14.8069 26.296 14.904 26.2695Z" fill="white"/>
<path d="M16.9424 29.5168C16.9424 29.5345 16.9512 29.5521 16.9512 29.5698C17.2954 29.9934 17.6483 30.4081 17.9925 30.8316L18.0631 30.4434C17.8866 30.2404 17.7189 30.0286 17.5424 29.8257C17.3483 29.7286 17.1453 29.6227 16.9424 29.5168Z" fill="white"/>
<path d="M17.56 29.8169C17.5424 29.7993 17.5336 29.7816 17.5159 29.764C17.2865 29.4816 17.0571 29.1992 16.8276 28.9169C16.8718 29.111 16.9071 29.314 16.9512 29.5081C17.1453 29.6228 17.3483 29.7287 17.56 29.8169Z" fill="white"/>
<path d="M15.0276 26.4726C14.9835 26.4108 14.9482 26.3402 14.9041 26.2784C14.7982 26.3049 14.7011 26.3314 14.5952 26.3579C14.6305 26.4196 14.6658 26.4726 14.7011 26.5343C14.807 26.5079 14.9217 26.4902 15.0276 26.4726Z" fill="white"/>
<path d="M16.9602 29.5698C16.9602 29.5522 16.9514 29.5345 16.9514 29.5169C16.9338 29.508 16.9073 29.4904 16.8896 29.4816C16.9073 29.508 16.9338 29.5345 16.9602 29.5698Z" fill="white"/>
<path d="M15.5924 27.3197V27.302C15.4071 27.0461 15.2306 26.7814 15.0629 26.5167C15.0541 26.499 15.0453 26.4814 15.0365 26.4725C14.9306 26.4902 14.8159 26.5078 14.71 26.5255C14.9747 26.949 15.2571 27.355 15.5571 27.7609C15.5659 27.6109 15.5924 27.4697 15.5924 27.3197Z" fill="white"/>
<path d="M15.5925 27.3197C15.5925 27.4609 15.566 27.6109 15.5483 27.7521C15.5925 27.8139 15.6454 27.8844 15.6984 27.9462L15.5925 27.3197Z" fill="white"/>
<path d="M16.2808 28.7227C16.4749 28.9786 16.6778 29.2256 16.8808 29.4815C16.8985 29.4904 16.9249 29.508 16.9426 29.5168C16.9073 29.3227 16.8632 29.1197 16.819 28.9256C16.7661 28.8638 16.722 28.8021 16.669 28.7403L16.2808 28.7227Z" fill="white"/>
<path d="M15.5923 27.3197L15.6894 27.955C15.7335 28.0079 15.7776 28.0697 15.8129 28.1227C15.9629 28.3256 16.1218 28.5197 16.2718 28.7139L16.6689 28.7315C16.2983 28.2638 15.9276 27.7873 15.5835 27.302C15.5923 27.3108 15.5923 27.3197 15.5923 27.3197Z" fill="white"/>
<path d="M13.7218 26.5784C13.8189 26.5519 13.9248 26.5254 14.0218 26.499C13.9865 26.4284 13.9513 26.3666 13.916 26.296C13.863 26.1989 13.8101 26.093 13.7659 25.996L13.563 26.2783C13.5718 26.296 13.5806 26.3048 13.5895 26.3225C13.6336 26.4019 13.6777 26.4901 13.7218 26.5784Z" fill="white"/>
<path d="M17.2688 31.7582C17.4188 31.9259 17.5688 32.1024 17.7277 32.27L17.7983 31.8994C17.5953 31.6788 17.4012 31.4494 17.207 31.22C17.2335 31.3965 17.2512 31.5818 17.2688 31.7582Z" fill="white"/>
<path d="M14.0217 26.499C13.9246 26.5255 13.8187 26.552 13.7217 26.5784C13.7393 26.6226 13.7658 26.6579 13.7834 26.702C13.8893 26.6843 13.9864 26.6579 14.0923 26.6402C14.0746 26.5873 14.0482 26.5431 14.0217 26.499Z" fill="white"/>
<path d="M15.3274 29.2521C15.9274 30.1257 16.5716 30.964 17.2687 31.7582C17.2511 31.5729 17.2246 31.3964 17.2069 31.2199C17.1717 31.1846 17.1452 31.1405 17.1099 31.1052C16.148 29.9492 15.2833 28.7138 14.5332 27.4167C14.3832 27.1608 14.242 26.896 14.1008 26.6401C13.9949 26.6578 13.8891 26.6843 13.792 26.7019C13.9067 26.9137 14.0126 27.1166 14.1361 27.3284C14.4979 27.9814 14.9038 28.6256 15.3274 29.2521Z" fill="white"/>
<path d="M24.6634 26.799C24.5399 26.7637 24.4163 26.7284 24.2928 26.6931L23.9663 27.2402C24.5222 27.4343 25.0782 27.6638 25.6253 27.9197C26.2959 28.2373 27.3107 28.8109 28.0784 29.261C28.2549 29.3668 28.4225 29.4639 28.5725 29.5521C28.5814 29.5521 28.5814 29.561 28.5902 29.561C28.7843 29.6845 28.9784 29.808 29.1726 29.9492C29.2079 30.3551 29.4638 33.7436 29.5697 35.2437C29.5961 35.6673 29.6667 36.4438 29.7461 37.4586C30.0373 37.2998 30.3197 37.1233 30.6021 36.9556L30.5933 36.7615C30.5933 36.7615 30.6109 36.8233 30.6286 36.938C32.2875 35.8967 33.7876 34.6084 35.0671 33.1348C34.6259 32.2082 34.2641 31.5199 34.0435 31.2376C31.9257 28.5021 25.0076 26.8961 24.6634 26.799Z" fill="#C15252"/>
<path d="M29.1818 29.9493C28.9876 29.8169 28.7935 29.6845 28.5994 29.561C28.5905 29.561 28.5905 29.5522 28.5817 29.5522C28.4405 29.4639 28.2729 29.3669 28.0876 29.261C27.3199 28.8109 26.3051 28.2374 25.6344 27.9197C25.0873 27.6638 24.5314 27.4344 23.9755 27.2402L20.1193 33.6289C19.9605 35.5614 20.0399 37.7145 20.2164 40C23.6755 39.9647 26.9316 39.047 29.7553 37.4675C29.6671 36.4527 29.6053 35.6673 29.5789 35.2526C29.473 33.7437 29.2082 30.3552 29.1818 29.9493Z" fill="#C15252"/>
<path d="M22.678 26.2696C22.8897 25.9254 23.0839 25.5813 23.2692 25.2283L22.9692 24.8136C22.7221 25.2725 22.4309 25.7137 22.1309 26.146C22.3162 26.1902 22.5015 26.2255 22.678 26.2696Z" fill="#363740"/>
<path d="M22.2898 24.4254L22.6074 24.4342L21.8662 25.9608C21.9015 25.9167 21.928 25.8725 21.9633 25.8196C22.2545 25.4049 22.5368 24.9813 22.7663 24.5224L22.5457 24.2224C22.4751 24.2577 22.4133 24.2842 22.3427 24.3195L22.2898 24.4254Z" fill="#363740"/>
<path d="M23.8604 26.5785C24.0104 26.6138 24.1515 26.6579 24.3016 26.702L24.3104 26.6844L24.0192 26.2784C24.0104 26.2961 24.0015 26.3049 23.9927 26.3226C23.9574 26.402 23.9045 26.4902 23.8604 26.5785Z" fill="#363740"/>
<path d="M23.5604 26.499C23.5957 26.4285 23.631 26.3667 23.6663 26.2961C23.7193 26.199 23.7722 26.0931 23.8163 25.9961L23.4634 25.5107C23.3133 25.8019 23.1545 26.0755 22.978 26.3579C23.181 26.3932 23.3663 26.4461 23.5604 26.499Z" fill="#363740"/>
<path d="M21.7866 25.3783V26.0578C21.7954 26.0578 21.7954 26.0578 21.8043 26.0578C21.8307 26.0225 21.8484 25.996 21.8749 25.9607L22.6161 24.4341L22.2985 24.4253L21.7866 25.1842V25.3783Z" fill="#363740"/>
<path d="M20.3134 31.7582C20.1633 31.9258 20.0133 32.1023 19.8545 32.27L20.1104 33.6377V33.6289C20.1192 33.523 20.128 33.4171 20.1369 33.3112C20.1986 32.7906 20.2516 32.27 20.3134 31.7582Z" fill="#363740"/>
<path d="M19.4751 30.2316L19.5192 30.4434C19.581 30.3728 19.6339 30.3022 19.6957 30.2316C19.6163 30.2228 19.5457 30.2316 19.4751 30.2316Z" fill="#363740"/>
<path d="M20.5429 30.0728H20.534C20.4017 30.1169 20.2693 30.1433 20.1369 30.1698C19.9516 30.3904 19.7752 30.611 19.5898 30.8228L19.7928 31.8905C19.9958 31.6699 20.1899 31.4405 20.384 31.2111C20.4281 30.8316 20.4811 30.4522 20.5429 30.0728Z" fill="#363740"/>
<path d="M21.5753 26.2343C21.4429 26.199 21.3017 26.1637 21.1694 26.1196L20.9399 26.4638C21.1076 26.4902 21.2841 26.5255 21.4517 26.5608C21.487 26.4461 21.5312 26.3402 21.5753 26.2343Z" fill="#363740"/>
<path d="M19.6868 30.2228C19.8103 30.0728 19.9427 29.9228 20.0662 29.764C20.2956 29.4816 20.5251 29.1992 20.7545 28.9169C20.8516 28.4492 20.9751 27.9903 21.1075 27.5315L20.4545 28.8816L20.0927 28.8639C19.8544 29.1728 19.6162 29.4728 19.3779 29.7816L19.4662 30.2228C19.5456 30.2316 19.6162 30.2228 19.6868 30.2228Z" fill="#363740"/>
<path d="M19.3515 28.8462L19.2368 29.0138L19.3074 29.4021C19.4486 29.2256 19.581 29.0403 19.7221 28.8638L19.3515 28.8462Z" fill="#363740"/>
<path d="M20.1367 30.1699C20.2691 30.1434 20.4015 30.1169 20.5338 30.0728H20.5427C20.5691 29.9051 20.5956 29.7375 20.6309 29.5698C20.4632 29.7728 20.3044 29.9669 20.1367 30.1699Z" fill="#363740"/>
<path d="M20.1016 28.8727L20.4633 28.8903L21.1163 27.5402C21.1163 27.5314 21.1163 27.5314 21.1251 27.5226C20.781 27.9726 20.4457 28.4227 20.1016 28.8727Z" fill="#363740"/>
<path d="M19.731 28.855C20.3134 28.0961 20.887 27.3373 21.4429 26.5607V26.5519C21.2753 26.5166 21.1076 26.4901 20.9311 26.4548L19.3428 28.8374L19.731 28.855Z" fill="#363740"/>
<path d="M21.6543 26.0313C21.6984 26.0401 21.7425 26.0489 21.7866 26.0578C21.7866 25.9783 21.7866 25.9078 21.7866 25.9078V25.3783V25.193L21.1689 26.1195C21.3013 26.1637 21.4425 26.199 21.5749 26.2342C21.6013 26.1637 21.6278 26.1019 21.6543 26.0313Z" fill="#363740"/>
<path d="M23.5781 27.1079C23.7105 27.152 23.8429 27.1961 23.9752 27.2402L24.3017 26.6931C24.1517 26.649 24.0105 26.6137 23.8605 26.5696C23.7723 26.7549 23.6752 26.9314 23.5781 27.1079Z" fill="#363740"/>
<path d="M23.2783 27.0108C23.3753 26.8432 23.4636 26.6667 23.5606 26.4902C23.3665 26.4373 23.1812 26.3932 22.9871 26.3402C22.89 26.5079 22.7841 26.6667 22.6782 26.8344C22.8812 26.8961 23.0841 26.9491 23.2783 27.0108Z" fill="#363740"/>
<path d="M21.7959 26.6313C21.99 26.6754 22.1753 26.7196 22.3695 26.7637C22.4224 26.6843 22.4754 26.6049 22.5283 26.5254C22.5813 26.446 22.6342 26.3666 22.6783 26.2784C22.493 26.2342 22.3165 26.1901 22.1312 26.146C22.0165 26.3048 21.9106 26.4548 21.7959 26.6049C21.7959 26.6137 21.7959 26.6225 21.7959 26.6313Z" fill="#363740"/>
<path d="M21.8039 26.0667C21.7952 26.0667 21.7952 26.0667 21.7866 26.0667V26.0925C21.7952 26.0839 21.7952 26.0753 21.8039 26.0667Z" fill="#363740"/>
<path d="M22.3695 26.7637C22.1842 26.7196 21.99 26.6755 21.7959 26.6313C21.8047 26.9137 21.8312 27.2226 21.84 27.5226C22.0253 27.2667 22.193 27.0196 22.3695 26.7637Z" fill="#363740"/>
<path d="M23.4546 27.3196C23.084 27.9814 22.6781 28.6256 22.2546 29.2433C21.6545 30.1169 21.0104 30.9552 20.3133 31.7493C20.2515 32.2611 20.1986 32.7729 20.1456 33.3024C20.1368 33.4083 20.128 33.5142 20.1191 33.6201L23.9664 27.2314C23.8341 27.1872 23.7017 27.1431 23.5694 27.099C23.5341 27.1784 23.4988 27.249 23.4546 27.3196Z" fill="#363740"/>
<path d="M23.0575 27.4167C23.1369 27.2843 23.2075 27.152 23.2781 27.0196C23.0751 26.9579 22.881 26.9049 22.678 26.8431C22.4133 27.2491 22.1309 27.6373 21.8398 28.0256C21.8133 28.9256 21.575 29.7551 20.5426 30.0728C20.4809 30.4522 20.4279 30.8317 20.3838 31.2199C20.4191 31.1846 20.4456 31.1405 20.4809 31.1052C21.4427 29.9492 22.2986 28.7139 23.0575 27.4167Z" fill="#363740"/>
<path d="M21.795 26.631C21.795 26.6224 21.795 26.6138 21.795 26.6138C21.7864 26.6224 21.7864 26.6224 21.7778 26.631C21.7864 26.6224 21.795 26.631 21.795 26.631Z" fill="#363740"/>
<path d="M21.6634 26.2519C21.637 26.2431 21.6017 26.2343 21.5752 26.2255C21.5311 26.3314 21.487 26.4372 21.4517 26.552C21.5223 26.4549 21.5928 26.3578 21.6634 26.2519Z" fill="#363740"/>
<path d="M21.8396 28.0167C21.8131 28.052 21.7866 28.0873 21.7602 28.1226C21.3896 28.6079 21.0102 29.0933 20.6219 29.561C20.5955 29.7286 20.5602 29.8963 20.5337 30.0639C21.5749 29.7463 21.8131 28.9256 21.8396 28.0167Z" fill="#363740"/>
<path d="M21.7956 26.6313C21.7868 26.6313 21.7868 26.6313 21.778 26.6313C21.6192 26.8431 21.4692 27.0461 21.3103 27.2579C21.2485 27.3461 21.1868 27.4255 21.125 27.5138L21.1074 27.5402C20.9662 27.9991 20.8515 28.458 20.7544 28.9256C21.125 28.4668 21.4868 27.9991 21.8398 27.5226C21.8309 27.2137 21.8045 26.9137 21.7956 26.6313Z" fill="#363740"/>
<path d="M21.116 27.5136C21.116 27.5222 21.116 27.5222 21.1074 27.5308L21.1246 27.505C21.1246 27.5136 21.1246 27.5136 21.116 27.5136Z" fill="#363740"/>
<path d="M21.4429 26.552V26.558C21.4429 26.558 21.4488 26.558 21.4429 26.552C21.4488 26.552 21.4488 26.552 21.4429 26.552Z" fill="#363740"/>
<path d="M21.787 26.0843C21.787 26.0755 21.787 26.0667 21.787 26.0578C21.7429 26.049 21.6987 26.0402 21.6546 26.0314C21.6281 26.102 21.6017 26.1637 21.5752 26.2343C21.6017 26.2432 21.637 26.252 21.6634 26.2608C21.7076 26.199 21.7429 26.1461 21.787 26.0843Z" fill="#363740"/>
<path d="M21.8752 25.9696L21.8223 26.0667C21.9282 26.0931 22.0252 26.1108 22.1311 26.1373C22.4399 25.7049 22.7223 25.2725 22.9694 24.8048L22.7752 24.5312C22.5458 24.9813 22.2635 25.4048 21.9723 25.8284C21.937 25.8814 21.9017 25.9255 21.8752 25.9696Z" fill="white"/>
<path d="M21.8223 26.0755L21.8753 25.9784C21.8488 26.0137 21.8312 26.0402 21.8047 26.0755C21.8047 26.0666 21.8135 26.0666 21.8223 26.0755Z" fill="white"/>
<path d="M19.3159 29.3934L19.3865 29.7905C19.6248 29.4904 19.8631 29.1816 20.1013 28.8728L19.7307 28.8551C19.5895 29.0404 19.4483 29.2169 19.3159 29.3934Z" fill="white"/>
<path d="M21.4428 26.5608C20.8869 27.3373 20.3134 28.0962 19.731 28.8551L20.1016 28.8727C20.4457 28.4227 20.7899 27.9727 21.1252 27.5226C21.2134 27.1961 21.3281 26.8785 21.4428 26.5608Z" fill="white"/>
<path d="M21.7866 26.1813C21.7866 26.2431 21.7866 26.2872 21.7866 26.2872C21.7866 26.3931 21.7866 26.499 21.7954 26.6049C21.9102 26.4549 22.0249 26.296 22.1308 26.146C22.0249 26.1196 21.9278 26.1019 21.8219 26.0754L21.7866 26.146V26.1813Z" fill="white"/>
<path d="M21.7866 26.0842V26.1372L21.8211 26.0666C21.8125 26.0666 21.8039 26.0666 21.8039 26.0577C21.7952 26.0754 21.7952 26.0842 21.7866 26.0842Z" fill="white"/>
<path d="M21.7252 26.2696L21.5752 26.5785C21.6458 26.5961 21.7164 26.605 21.7782 26.6226C21.787 26.6138 21.787 26.6138 21.7958 26.605C21.787 26.4991 21.787 26.3932 21.787 26.2873C21.787 26.2873 21.787 26.2432 21.787 26.1814V26.2873C21.7694 26.2873 21.7429 26.2785 21.7252 26.2696Z" fill="white"/>
<path d="M21.6634 26.252C21.5928 26.349 21.5223 26.4549 21.4517 26.552C21.4958 26.5608 21.5399 26.5696 21.5752 26.5785L21.7252 26.2696C21.7076 26.2696 21.6811 26.2608 21.6634 26.252Z" fill="white"/>
<path d="M21.1338 27.5049C21.1956 27.4167 21.2573 27.3372 21.3191 27.249C21.4691 27.0372 21.6279 26.8343 21.7867 26.6225C21.7161 26.6048 21.6456 26.596 21.5838 26.5784L21.1338 27.5049Z" fill="white"/>
<path d="M21.1338 27.505L21.5839 26.5785C21.5397 26.5697 21.4956 26.5608 21.4603 26.552C21.4603 26.552 21.4603 26.5608 21.4515 26.5608C21.328 26.8785 21.2221 27.1962 21.125 27.5138C21.125 27.5138 21.125 27.5138 21.1338 27.505Z" fill="white"/>
<path d="M21.7251 26.2695C21.7427 26.2784 21.7692 26.2784 21.7868 26.2872V26.1813C21.7868 26.1725 21.7868 26.1548 21.7868 26.146L21.7251 26.2695Z" fill="white"/>
<path d="M21.7871 26.1461C21.7871 26.1284 21.7871 26.1108 21.7871 26.0931C21.743 26.1461 21.7077 26.2079 21.6636 26.2608C21.6812 26.2696 21.7077 26.2696 21.7253 26.2784L21.7871 26.1461Z" fill="white"/>
<path d="M22.9871 26.3489C23.1547 26.0754 23.3224 25.793 23.4724 25.5018L23.2694 25.2283C23.0841 25.5812 22.89 25.9342 22.6782 26.2695C22.7841 26.296 22.89 26.3225 22.9871 26.3489Z" fill="white"/>
<path d="M19.6867 30.2229C19.625 30.2935 19.572 30.3641 19.5103 30.4346L19.5808 30.8229C19.7662 30.6023 19.9515 30.3905 20.1279 30.1699C19.9868 30.1964 19.8367 30.214 19.6867 30.2229Z" fill="white"/>
<path d="M20.7635 28.9169C20.5341 29.1992 20.3047 29.4816 20.0752 29.764C19.9517 29.914 19.8193 30.0728 19.6958 30.2228C19.8458 30.214 19.9958 30.1964 20.137 30.1699C20.3047 29.9669 20.4723 29.7728 20.6312 29.5699C20.6665 29.3493 20.7106 29.1375 20.7635 28.9169Z" fill="white"/>
<path d="M22.3691 26.7637C22.475 26.7902 22.5809 26.8166 22.678 26.8431C22.7838 26.6843 22.8897 26.5166 22.9868 26.3489C22.8809 26.3225 22.7838 26.296 22.678 26.2695C22.625 26.3489 22.5809 26.4372 22.528 26.5166C22.475 26.596 22.4221 26.6843 22.3691 26.7637Z" fill="white"/>
<path d="M21.8398 28.0167C22.1311 27.6285 22.4134 27.2402 22.6782 26.8343C22.5723 26.8078 22.4664 26.7814 22.3693 26.7549C22.2017 27.0108 22.0252 27.2579 21.8398 27.5138C21.8487 27.6814 21.8487 27.8579 21.8398 28.0167Z" fill="white"/>
<path d="M21.7605 28.1227C21.7869 28.0874 21.8134 28.0521 21.8399 28.0168C21.8487 27.8491 21.8399 27.6815 21.8399 27.5138C21.4957 27.9903 21.1251 28.458 20.7544 28.9168C20.7103 29.1286 20.6662 29.3492 20.6221 29.561C21.0192 29.0933 21.3986 28.6168 21.7605 28.1227Z" fill="white"/>
<path d="M23.5605 26.499C23.6576 26.5255 23.7635 26.5519 23.8606 26.5784C23.9047 26.4902 23.9488 26.4019 24.0018 26.3137C24.0106 26.296 24.0194 26.2872 24.0282 26.2696L23.8253 25.9872C23.7723 26.0842 23.7194 26.1901 23.6753 26.2872C23.6311 26.3578 23.5958 26.4284 23.5605 26.499Z" fill="white"/>
<path d="M20.3749 31.22C20.1808 31.4494 19.9866 31.6788 19.7837 31.8994L19.8543 32.27C20.0043 32.1024 20.1631 31.9347 20.3131 31.7582C20.3308 31.5818 20.3573 31.3965 20.3749 31.22Z" fill="white"/>
<path d="M23.5783 27.1079C23.6754 26.9314 23.7724 26.7549 23.8695 26.5784C23.7724 26.552 23.6665 26.5255 23.5695 26.499C23.4812 26.6755 23.3842 26.8432 23.2871 27.0197C23.3754 27.0461 23.4812 27.0726 23.5783 27.1079Z" fill="white"/>
<path d="M23.0578 27.4167C22.3077 28.7139 21.443 29.9493 20.4811 31.1052C20.4458 31.1405 20.4193 31.1847 20.384 31.22C20.3576 31.3964 20.3399 31.5818 20.3223 31.7582C21.0194 30.9641 21.6636 30.1258 22.2636 29.2522C22.6872 28.6257 23.0931 27.9815 23.4637 27.3285C23.5078 27.2579 23.5431 27.1873 23.5784 27.1167C23.4814 27.0814 23.3843 27.055 23.2784 27.0197C23.2078 27.1432 23.1284 27.2844 23.0578 27.4167Z" fill="white"/>
<path d="M23.8164 16.8718C23.8076 16.916 23.7988 16.9601 23.7811 16.9954C23.7458 17.0748 23.6929 17.1277 23.6488 17.1366H23.6399C23.6046 17.1366 23.5694 17.1189 23.5252 17.0924C23.1634 17.3307 22.7575 17.4895 22.3163 17.5601C21.5486 17.6837 20.7897 17.4984 20.1191 17.0836C20.1191 17.1807 20.1015 17.2778 20.0662 17.3572C20.0485 17.4013 19.9956 17.4895 19.925 17.5072H19.9161C19.7926 17.516 19.625 17.3131 19.572 17.0219C19.5544 16.9071 19.5544 16.7836 19.5808 16.6865C18.7249 15.9365 18.0807 14.7893 17.8689 13.4304C17.816 13.1127 17.7983 12.8039 17.7983 12.5039C17.6042 12.4951 17.463 12.4862 17.3836 12.4862C16.7483 12.4686 16.0688 12.6362 15.6541 13.148C14.8246 14.1628 14.6658 15.6806 14.604 17.0395C14.7011 17.1277 14.7893 17.2248 14.8687 17.3307L15.257 18.5043L15.8747 20.375C15.8129 20.4192 15.7423 20.4633 15.6717 20.4986C15.6717 20.4986 15.6806 20.4986 15.6806 20.5074C15.707 20.5251 15.7335 20.5427 15.76 20.5515C15.7953 20.5692 15.8394 20.5956 15.8747 20.6133C17.1454 21.3192 18.4337 21.9722 19.7308 22.6164C19.9426 22.7223 20.1544 22.8193 20.3574 22.9252C20.4456 22.9694 20.5338 23.0135 20.6221 23.0488C20.9927 23.2253 21.3721 23.3929 21.7692 23.49V24.39V24.4165L22.1134 24.4342C22.1928 24.4077 22.2634 24.3812 22.3428 24.3459L22.4752 24.1518L22.5457 24.2577C22.6781 24.1871 22.8105 24.1165 22.9428 24.0371C23.7988 23.4988 24.3194 22.6693 24.69 21.7516C25.5989 19.5367 25.6871 17.013 25.1577 14.6746C24.9283 15.5659 24.4518 16.3424 23.8164 16.8718ZM18.5661 19.5632C17.9219 19.5985 17.3836 19.2455 17.3571 18.769C17.3307 18.2925 17.8336 17.8866 18.4778 17.8513C19.122 17.816 19.6602 18.169 19.6867 18.6455C19.7044 19.1132 19.2014 19.5279 18.5661 19.5632ZM22.184 17.6925C22.3428 17.719 22.484 17.8337 22.5634 17.9749C22.6428 18.1161 22.6516 18.3014 22.581 18.4425C22.5193 18.5837 22.3869 18.6985 22.2369 18.7161C22.334 18.619 22.3957 18.5043 22.4134 18.3896C22.431 18.2749 22.4134 18.169 22.3693 18.0719C22.3163 17.9749 22.2457 17.8954 22.1398 17.8513C22.0339 17.8072 21.9104 17.7896 21.7692 17.8072C21.8663 17.7101 22.0251 17.6572 22.184 17.6925ZM23.79 20.6309C23.4811 21.2839 22.8899 21.7516 22.184 21.8222C21.4604 21.8928 20.7809 21.5398 20.3397 20.9398C20.0838 20.5868 19.9073 20.1544 19.8632 19.6691C19.8632 19.6515 19.8632 19.6338 19.8632 19.6162L20.0309 19.5985L23.8517 19.2103L24.0194 19.1926C24.0194 19.2103 24.0282 19.2279 24.0282 19.2455C24.0723 19.7485 23.9841 20.225 23.79 20.6309ZM25.0959 17.869C25.1136 18.1866 24.7783 18.469 24.3459 18.4867C23.9135 18.5131 23.5429 18.2661 23.5341 17.9484C23.5252 17.6307 23.8517 17.3484 24.2841 17.3307C24.7077 17.3131 25.0783 17.5513 25.0959 17.869Z" fill="#FFCFCA"/>
<path d="M15.107 20.728C15.0188 20.7545 14.9305 20.7721 14.8423 20.7898C14.8511 20.8074 14.8688 20.8251 14.8776 20.8516C14.9923 21.0281 15.107 21.2134 15.2217 21.381C15.2217 21.3722 15.2217 21.3634 15.2129 21.3545C15.1776 21.1428 15.1423 20.931 15.107 20.728Z" fill="#FFCFCA"/>
<path d="M24.7606 13.1745C24.6106 12.7421 24.4253 12.3274 24.1959 11.9303C24.1959 11.9303 24.187 11.9303 24.187 11.9391C22.8899 12.698 19.1396 12.5568 17.7983 12.5039C17.7983 12.8127 17.8248 13.1216 17.8689 13.4304C18.0807 14.7893 18.7249 15.9365 19.5808 16.6865C19.5896 16.6512 19.5985 16.6248 19.6073 16.5983C19.6249 16.5542 19.6779 16.4659 19.7485 16.4483H19.7573C19.8808 16.4395 20.0485 16.6424 20.1015 16.9336C20.1103 16.9866 20.1103 17.0395 20.1103 17.0836C20.7809 17.4984 21.5398 17.6837 22.3075 17.5601C22.7487 17.4895 23.1458 17.3307 23.5164 17.0924C23.4282 17.0219 23.3311 16.8807 23.2958 16.6689C23.2693 16.5189 23.287 16.3689 23.3399 16.2541C23.3752 16.1747 23.4282 16.1218 23.4723 16.113H23.4811C23.587 16.1041 23.7635 16.2806 23.8076 16.5806C23.8253 16.6777 23.8253 16.7748 23.8076 16.863C24.4429 16.3336 24.9195 15.557 25.1665 14.6481C25.1577 14.604 25.1489 14.5599 25.1401 14.5158C25.043 14.0657 24.9106 13.6157 24.7606 13.1745ZM20.1632 15.2041C20.1103 15.31 20.0044 15.3717 19.8897 15.3629C19.8544 15.3629 19.8103 15.3541 19.775 15.3364C19.6691 15.2835 19.5455 15.257 19.422 15.2482C19.2896 15.2394 19.1661 15.257 19.0514 15.31C19.0161 15.3276 18.972 15.3276 18.9278 15.3276C18.8925 15.3276 18.8661 15.3188 18.8396 15.31C18.769 15.2835 18.7072 15.2217 18.6808 15.1423C18.6278 14.9923 18.6984 14.8246 18.8484 14.7717C19.0425 14.7011 19.2455 14.6658 19.4573 14.6746C19.6602 14.6834 19.8544 14.7364 20.0309 14.8246C20.172 14.8864 20.2338 15.0629 20.1632 15.2041ZM23.7988 14.5599C23.7723 14.7011 23.6399 14.7982 23.4988 14.7893C23.4811 14.7893 23.4723 14.7893 23.4546 14.7805C23.4193 14.7717 23.3752 14.7629 23.3399 14.7629C23.1634 14.754 22.9781 14.807 22.8369 14.904C22.784 14.9393 22.7222 14.957 22.6605 14.957C22.6428 14.957 22.6252 14.957 22.5987 14.9482C22.5281 14.9305 22.4752 14.8864 22.431 14.8335C22.3428 14.7011 22.3781 14.5246 22.5105 14.4275C22.7575 14.2599 23.0664 14.1716 23.3752 14.1893C23.4458 14.1893 23.5164 14.1981 23.5782 14.2158C23.737 14.2511 23.8341 14.4099 23.7988 14.5599Z" fill="#FFCFCA"/>
<path d="M22.1308 24.4254L21.7866 24.4077V24.5313C21.9014 24.5048 22.0161 24.4607 22.1308 24.4254Z" fill="#FFCFCA"/>
<path d="M15.1069 20.728C15.1422 20.9398 15.1775 21.1428 15.2216 21.3545C15.2216 21.3634 15.2216 21.3722 15.2305 21.381C15.1864 21.1604 15.1422 20.9398 15.1069 20.728Z" fill="#FFCFCA"/>
<path d="M19.7397 22.6075C18.4426 21.9634 17.1454 21.3015 15.8836 20.6044C15.8483 20.5868 15.8042 20.5603 15.7689 20.5427C15.7424 20.525 15.7159 20.5074 15.6895 20.4985C15.7512 20.5338 15.8218 20.5691 15.8836 20.6132C17.1454 21.3015 18.4426 21.9634 19.7397 22.6075Z" fill="#FFCFCA"/>
<path d="M21.778 23.4811C21.3809 23.3841 21.0015 23.2164 20.6309 23.0399C21.0015 23.2164 21.3809 23.3841 21.778 23.4811Z" fill="#FFCFCA"/>
<path d="M15.6778 20.4869C15.6778 20.4869 15.6719 20.4869 15.6719 20.481C15.6778 20.4869 15.6778 20.4869 15.6778 20.4869Z" fill="#FFCFCA"/>
<path d="M20.631 23.0399C20.5427 22.9958 20.4545 22.9517 20.3663 22.9164C20.1545 22.8105 19.9427 22.7134 19.7397 22.6075C19.9515 22.7134 20.1633 22.8105 20.3663 22.9164C20.4545 22.9605 20.5427 23.0046 20.631 23.0399Z" fill="#FFCFCA"/>
<path d="M21.7779 24.3812V23.4812C21.3808 23.3841 21.0014 23.2165 20.6308 23.04C20.5426 22.9958 20.4543 22.9517 20.3661 22.9164C20.1543 22.8105 19.9425 22.7135 19.7396 22.6076C18.4424 21.9634 17.1453 21.3016 15.8834 20.6045C15.8128 20.5692 15.7511 20.5339 15.6893 20.4898C15.6893 20.4898 15.6805 20.4898 15.6805 20.481C15.504 20.578 15.3099 20.6663 15.1157 20.7192C15.151 20.9398 15.1951 21.1516 15.2304 21.3722C15.5922 21.9016 16.007 22.4046 16.4746 22.8547C16.8276 23.1988 17.2159 23.5076 17.6394 23.7635C17.9483 23.9577 18.2748 24.1342 18.6101 24.2665L21.7868 24.3989L21.7779 24.3812Z" fill="#FFCFCA"/>
<path d="M21.7783 24.5312V24.4076L18.6016 24.2753C19.1751 24.5135 19.784 24.6547 20.4017 24.6812C20.8606 24.7076 21.3282 24.6547 21.7783 24.5312Z" fill="#FFCFCA"/>
<path d="M14.9748 19.9868C15.0101 20.0221 15.0454 20.0574 15.0807 20.0838C15.0807 20.0838 15.0807 20.0838 15.0895 20.0838C15.1248 20.1103 15.1513 20.1368 15.1866 20.1633C15.1954 20.1721 15.2042 20.1809 15.213 20.1809C15.2395 20.1985 15.2572 20.2162 15.2836 20.2338C15.2925 20.2427 15.3101 20.2515 15.3189 20.2603C15.3366 20.278 15.3631 20.2868 15.3807 20.3044C15.3984 20.3133 15.416 20.3221 15.4248 20.3309C15.4425 20.3397 15.4601 20.3574 15.4778 20.3662C15.4954 20.375 15.5131 20.3927 15.5307 20.4015C15.5484 20.4103 15.566 20.4192 15.5748 20.428C15.5925 20.4368 15.619 20.4544 15.6454 20.4633C15.6543 20.4633 15.6543 20.4721 15.6631 20.4721C15.7337 20.4368 15.8043 20.3927 15.866 20.3486L15.2483 18.4778L14.8601 17.3042C14.7807 17.1983 14.6924 17.1013 14.5954 17.013C14.1453 16.7571 13.7041 16.6424 13.21 16.6248C13.2276 16.713 13.2453 16.8012 13.2629 16.8895C13.5453 18.2661 14.1189 19.5985 14.8336 20.7721C14.9219 20.7545 15.0101 20.7368 15.0983 20.7103C15.063 20.4809 15.0189 20.2338 14.9748 19.9868Z" fill="#FFCFCA"/>
<path d="M15.1777 20.1632C15.1863 20.1718 15.1949 20.1804 15.2035 20.1804C15.1949 20.1804 15.1863 20.1718 15.1777 20.1632Z" fill="#FFCFCA"/>
<path d="M15.4863 20.375C15.504 20.3836 15.5216 20.4008 15.5393 20.4094C15.5216 20.4008 15.504 20.3836 15.4863 20.375Z" fill="#FFCFCA"/>
<path d="M15.5923 20.4369C15.6099 20.4455 15.6364 20.4626 15.6629 20.4712C15.6364 20.4626 15.6099 20.4455 15.5923 20.4369Z" fill="#FFCFCA"/>
<path d="M15.3804 20.3132C15.398 20.3218 15.4157 20.3304 15.4245 20.339C15.4157 20.3304 15.398 20.3218 15.3804 20.3132Z" fill="#FFCFCA"/>
<path d="M15.2837 20.2427C15.2923 20.2513 15.3095 20.2599 15.3181 20.2684C15.3095 20.2599 15.2923 20.2513 15.2837 20.2427Z" fill="#FFCFCA"/>
<path d="M14.9746 19.9868C15.0187 20.2339 15.0629 20.481 15.107 20.728C15.0629 20.481 15.0187 20.2339 14.9746 19.9868Z" fill="#FFCFCA"/>
<path d="M14.9746 19.9868C15.0099 20.0221 15.0452 20.0574 15.0805 20.0839C15.0452 20.0574 15.0099 20.0221 14.9746 19.9868Z" fill="#FFCFCA"/>
<path d="M15.0806 20.0839C15.1159 20.1103 15.1423 20.1368 15.1776 20.1633C15.1512 20.1456 15.1159 20.1192 15.0806 20.0839Z" fill="#FFCFCA"/>
<path d="M15.3188 20.269C15.3365 20.2867 15.363 20.2955 15.3806 20.3132C15.363 20.2955 15.3365 20.2867 15.3188 20.269Z" fill="#FFCFCA"/>
<path d="M15.4336 20.3397C15.4512 20.3483 15.4689 20.3656 15.4865 20.3742C15.4689 20.3656 15.4512 20.3483 15.4336 20.3397Z" fill="#FFCFCA"/>
<path d="M15.2041 20.1897C15.2306 20.2074 15.2482 20.225 15.2747 20.2427C15.257 20.225 15.2306 20.2074 15.2041 20.1897Z" fill="#FFCFCA"/>
<path d="M15.5396 20.4103C15.5572 20.4189 15.5748 20.4275 15.5837 20.4361C15.5748 20.4275 15.5572 20.4189 15.5396 20.4103Z" fill="#FFCFCA"/>
<path d="M15.6715 20.4896C15.6629 20.4896 15.6629 20.481 15.6543 20.481C15.6629 20.481 15.6629 20.481 15.6715 20.4896Z" fill="#FFCFCA"/>
<path d="M15.654 20.4721C15.6276 20.4633 15.6099 20.4457 15.5834 20.4368C15.5658 20.428 15.5481 20.4192 15.5393 20.4104C15.5217 20.4015 15.504 20.3839 15.4864 20.3751C15.4687 20.3662 15.4511 20.3486 15.4334 20.3398C15.4158 20.3309 15.3981 20.3221 15.3893 20.3133C15.3717 20.2956 15.3452 20.2868 15.3275 20.2692C15.3187 20.2603 15.3011 20.2515 15.2922 20.2427C15.2658 20.225 15.2393 20.2074 15.2217 20.1897C15.2128 20.1809 15.204 20.1721 15.1952 20.1721C15.1599 20.1456 15.1334 20.1192 15.0981 20.0927C15.0981 20.0927 15.0981 20.0927 15.0893 20.0927C15.054 20.0662 15.0187 20.0309 14.9834 19.9956C15.0275 20.2427 15.0716 20.4898 15.1158 20.7369C15.3099 20.6751 15.504 20.5957 15.6805 20.4986C15.6629 20.481 15.6629 20.481 15.654 20.4721Z" fill="#FFCFCA"/>
<path d="M22.3516 24.3371C22.4222 24.3106 22.4927 24.2753 22.5545 24.24L22.4839 24.1342L22.3516 24.3371Z" fill="#FFCFCA"/>
<path d="M19.5719 17.013C19.616 17.3042 19.7925 17.5072 19.916 17.4984H19.9248C20.0042 17.4895 20.0483 17.3925 20.066 17.3484C20.1013 17.2689 20.1189 17.1719 20.1189 17.0748C20.0307 17.0219 19.9513 16.9689 19.8719 16.9072C19.8454 16.916 19.8189 16.9248 19.7836 16.916C19.6954 16.8983 19.6689 16.8277 19.6778 16.7571C19.6425 16.7307 19.616 16.7042 19.5807 16.6777C19.5542 16.7748 19.5542 16.8983 19.5719 17.013Z" fill="#1F3C49"/>
<path d="M19.837 16.6336C19.987 16.6601 19.9693 16.8542 19.8634 16.9072C19.9428 16.9689 20.0311 17.0219 20.1105 17.0748C20.1105 17.0219 20.1105 16.9777 20.1017 16.9248C20.0576 16.6336 19.8811 16.4307 19.7575 16.4395H19.7487C19.6693 16.4483 19.6252 16.5454 19.6075 16.5895C19.5987 16.616 19.5811 16.6513 19.5811 16.6777C19.6075 16.7042 19.6428 16.7307 19.6781 16.7571C19.6869 16.6866 19.7487 16.616 19.837 16.6336Z" fill="#1F3C49"/>
<path d="M23.6401 17.1366C23.6931 17.1277 23.7372 17.0748 23.7725 16.9954C23.7902 16.9601 23.799 16.9159 23.8078 16.8718C23.7107 16.9512 23.6137 17.0218 23.5166 17.0924C23.5607 17.1277 23.596 17.1366 23.6313 17.1366C23.6401 17.1366 23.6401 17.1366 23.6401 17.1366Z" fill="#1F3C49"/>
<path d="M23.8165 16.5894C23.7724 16.2894 23.5959 16.113 23.49 16.1218H23.4811C23.4282 16.1306 23.3841 16.1835 23.3488 16.263C23.2958 16.3777 23.287 16.5277 23.3046 16.6777C23.3399 16.8806 23.4282 17.0307 23.5253 17.1012C23.6312 17.0307 23.7282 16.9601 23.8165 16.8806C23.8341 16.7836 23.8341 16.6865 23.8165 16.5894ZM23.5606 16.5542C23.3752 16.5189 23.437 16.2365 23.6223 16.2718C23.7989 16.3071 23.7459 16.5895 23.5606 16.5542Z" fill="#1F3C49"/>
<path d="M22.1309 17.8513C22.2368 17.8954 22.3074 17.9748 22.3604 18.0719C22.4133 18.1689 22.431 18.2748 22.4045 18.3895C22.3869 18.5043 22.3251 18.619 22.228 18.716C22.3692 18.6984 22.5016 18.5925 22.5722 18.4425C22.6428 18.3013 22.634 18.116 22.5545 17.9748C22.4839 17.8336 22.3339 17.7189 22.175 17.6924C22.0162 17.666 21.8573 17.7101 21.7603 17.816C21.9015 17.7895 22.0338 17.8072 22.1309 17.8513Z" fill="#1F3C49"/>
<path d="M20.0306 14.8158C19.8542 14.7276 19.66 14.6746 19.4571 14.6658C19.2453 14.657 19.0335 14.6835 18.8482 14.7629C18.6982 14.8246 18.6276 14.9923 18.6806 15.1335C18.707 15.2129 18.7688 15.2658 18.8394 15.3011C18.8659 15.31 18.9012 15.3188 18.9276 15.3188C18.9718 15.3188 19.0071 15.3188 19.0512 15.3011C19.1659 15.257 19.2983 15.2394 19.4218 15.2394C19.5453 15.2482 19.6689 15.2747 19.7748 15.3276C19.81 15.3452 19.8453 15.3541 19.8895 15.3541C20.0042 15.3629 20.1101 15.3011 20.163 15.1952C20.2336 15.0629 20.1718 14.8864 20.0306 14.8158Z" fill="#1F3C49"/>
<path d="M23.578 14.2157C23.5074 14.1981 23.4457 14.1892 23.3751 14.1892C23.0662 14.1716 22.7574 14.2598 22.5103 14.4275C22.3779 14.5157 22.3426 14.701 22.4309 14.8334C22.4662 14.8952 22.5279 14.9305 22.5985 14.9481C22.6162 14.9569 22.6338 14.9569 22.6603 14.9569C22.7221 14.9569 22.7838 14.9393 22.8368 14.904C22.978 14.8069 23.1633 14.754 23.3398 14.7628C23.3839 14.7628 23.4192 14.7716 23.4545 14.7805C23.4721 14.7805 23.481 14.7893 23.4986 14.7893C23.6398 14.7981 23.7633 14.701 23.7986 14.5598C23.8339 14.4098 23.7369 14.251 23.578 14.2157Z" fill="#1F3C49"/>
<path d="M19.7836 16.9159C19.8189 16.9247 19.8454 16.9159 19.8719 16.9071C19.8101 16.863 19.7395 16.81 19.6778 16.7571C19.6601 16.8277 19.6954 16.8983 19.7836 16.9159Z" fill="white"/>
<path d="M19.8366 16.6335C19.7395 16.6159 19.6778 16.6776 19.6689 16.7571C19.7307 16.81 19.8013 16.863 19.8631 16.9071C19.9778 16.863 19.9866 16.6688 19.8366 16.6335Z" fill="white"/>
<path d="M23.6226 16.2718C23.4372 16.2365 23.3843 16.5189 23.5608 16.5542C23.7461 16.5895 23.7991 16.3071 23.6226 16.2718Z" fill="white"/>
<path d="M24.0194 19.1926L23.8518 19.2103C23.4371 19.7485 22.7841 20.128 22.0252 20.2074C21.2663 20.2868 20.5516 20.0397 20.0309 19.5985L19.8633 19.6162C19.8633 19.6338 19.8633 19.6515 19.8633 19.6691C19.9162 20.1544 20.0839 20.5868 20.3398 20.9398C21.0369 20.7103 21.7605 20.5868 22.4929 20.5603C22.9253 20.5515 23.3576 20.5692 23.79 20.6309C23.9841 20.225 24.0724 19.7485 24.0283 19.2456C24.0194 19.2279 24.0194 19.2103 24.0194 19.1926Z" fill="#D55454"/>
<path d="M22.0162 20.2074C22.7751 20.1279 23.4281 19.7485 23.8428 19.2102L20.0308 19.5897C20.5426 20.0397 21.2573 20.278 22.0162 20.2074Z" fill="white"/>
<path d="M22.493 20.5603C21.7606 20.5779 21.037 20.7103 20.3398 20.9398C20.7722 21.5398 21.4605 21.9016 22.1841 21.8222C22.8901 21.7516 23.4725 21.2839 23.7901 20.6309C23.3578 20.5691 22.9254 20.5427 22.493 20.5603Z" fill="#F37C7C"/>
<path d="M18.4688 17.8425C17.8246 17.8778 17.3305 18.2837 17.3481 18.7602C17.3746 19.2367 17.9129 19.5897 18.557 19.5544C19.2012 19.5191 19.6953 19.1132 19.6777 18.6366C19.6512 18.169 19.1129 17.816 18.4688 17.8425Z" fill="#F9BFBB"/>
<path d="M23.5251 17.9573C23.5427 18.2749 23.9045 18.5132 24.3369 18.4955C24.7693 18.4691 25.1047 18.1955 25.087 17.8778C25.0694 17.5602 24.7076 17.3219 24.2752 17.3395C23.8428 17.3572 23.5074 17.6396 23.5251 17.9573Z" fill="#F9BFBB"/>
<path d="M30.6107 36.9556C30.6193 36.9468 30.6279 36.9468 30.6365 36.938C30.6107 36.8232 30.6021 36.7615 30.6021 36.7615L30.6107 36.9556Z" fill="#AF4646"/>
<path d="M13.6244 12.1685C13.8892 11.5508 14.2509 10.9772 14.701 10.4743C15.9452 9.08887 17.7894 8.45353 19.5631 8.64767C19.9425 8.38294 20.3749 8.19763 20.8514 8.12704C22.5986 7.85349 24.2928 9.15947 25.0164 11.1537C25.4841 10.4478 25.4929 9.60068 25.3958 9.03593C25.2547 8.19763 24.5928 7.41228 23.9134 6.96225C23.2339 6.51222 22.1221 6.42397 21.6015 7.05931C21.0544 7.73878 20.2425 8.15351 19.4131 8.20646C18.7336 8.25058 18.063 8.05645 17.3923 7.91526C16.6952 7.77407 15.9805 7.69466 15.2834 7.80937C14.5863 7.92408 13.898 8.24175 13.4215 8.8065C12.945 9.36243 12.7067 10.1831 12.892 10.9155C12.6008 10.8272 12.3802 10.8361 12.0714 10.8714C11.7714 10.9067 11.4625 11.0478 11.2949 11.3214C11.1801 11.4979 11.1272 11.7185 11.1007 11.9303C11.0301 12.495 11.1095 13.0774 11.2331 13.6333C11.4713 14.7628 11.7802 15.8482 12.3008 16.8542C12.3802 16.8012 12.4508 16.7571 12.5214 16.7218C12.7332 16.6071 12.9626 16.5277 13.2009 16.51C12.9538 15.0717 13.0332 13.5716 13.6244 12.1685Z" fill="#603813"/>
<path d="M20.8513 8.13594C20.3836 8.20653 19.9513 8.39184 19.563 8.65656C20.4807 8.76245 21.3808 9.08895 22.1661 9.64487C22.9956 10.2361 23.6839 11.0303 24.1869 11.9215C24.5486 11.7097 24.8134 11.445 24.9987 11.1538C24.2927 9.15954 22.5897 7.86239 20.8513 8.13594Z" fill="#603813"/>
<path d="M13.2186 16.6424C13.2098 16.6071 13.2098 16.5718 13.2009 16.5365C12.9627 16.5541 12.7244 16.6336 12.5215 16.7483C12.7333 16.6512 12.9274 16.6424 13.1039 16.6424C13.1392 16.6336 13.1833 16.6424 13.2186 16.6424Z" fill="#603813"/>
<path d="M17.3836 12.4774C17.463 12.4774 17.6042 12.4862 17.7983 12.495C17.7983 10.8625 18.4778 9.41538 19.5632 8.6565C17.7895 8.45355 15.9541 9.08889 14.7011 10.4831C14.251 10.9861 13.8892 11.5597 13.6245 12.1773C13.0333 13.5716 12.9451 15.0717 13.1921 16.5365C13.201 16.5365 13.2098 16.5365 13.2274 16.5365C13.7304 16.5012 14.2246 16.6953 14.604 17.0306C14.6658 15.6805 14.8246 14.154 15.6541 13.1392C16.0688 12.6274 16.7483 12.4597 17.3836 12.4774Z" fill="#603813"/>
<path d="M17.7983 12.495C19.1396 12.5568 22.8811 12.6892 24.187 11.9303C24.187 11.9303 24.1959 11.9303 24.1959 11.9215C23.6929 11.0302 23.0046 10.236 22.1751 9.64481C21.381 9.08888 20.4897 8.76239 19.572 8.65649C18.4778 9.41538 17.7983 10.8537 17.7983 12.495Z" fill="#603813"/>
<path d="M13.2277 16.5277C13.2189 16.5277 13.21 16.5277 13.1924 16.5277C13.2012 16.5629 13.2012 16.5982 13.21 16.6335C13.713 16.6512 14.1454 16.7659 14.5954 17.0218C14.2336 16.6953 13.7307 16.4924 13.2277 16.5277Z" fill="#603813"/>
</g>
<defs>
<clipPath id="clip0_272_1334">
<rect width="40" height="40" fill="white"/>
</clipPath>
</defs>
</svg>
