<svg width="40" height="40" viewBox="0 0 40 40" fill="none" xmlns="http://www.w3.org/2000/svg">
<path d="M0 20C0 8.95431 8.95431 0 20 0C31.0457 0 40 8.95431 40 20C40 31.0457 31.0457 40 20 40C8.95431 40 0 31.0457 0 20Z" fill="#2C557A"/>
<path fill-rule="evenodd" clip-rule="evenodd" d="M20 21C16.134 21 13 24.134 13 28V30C13 30.5523 12.5523 31 12 31C11.4477 31 11 30.5523 11 30V28C11 23.0294 15.0294 19 20 19C24.9706 19 29 23.0294 29 28V30C29 30.5523 28.5523 31 28 31C27.4477 31 27 30.5523 27 30V28C27 24.134 23.866 21 20 21Z" fill="#FCFCFD"/>
<path fill-rule="evenodd" clip-rule="evenodd" d="M20 19C22.2091 19 24 17.2091 24 15C24 12.7909 22.2091 11 20 11C17.7909 11 16 12.7909 16 15C16 17.2091 17.7909 19 20 19ZM20 21C23.3137 21 26 18.3137 26 15C26 11.6863 23.3137 9 20 9C16.6863 9 14 11.6863 14 15C14 18.3137 16.6863 21 20 21Z" fill="#FCFCFD"/>
</svg>
