<svg width="38" height="42" viewBox="0 0 38 42" fill="none" xmlns="http://www.w3.org/2000/svg">
<path d="M5.86087 3.82105C5.37431 3.81928 4.89702 3.95014 4.47746 4.1989C4.0577 4.44778 3.71145 4.80526 3.47191 5.2333L3.47178 5.23353C3.26509 5.60326 2.92838 5.86816 2.53974 5.97724L2.70188 6.55492L2.53974 5.97724C2.15182 6.08612 1.73742 6.03292 1.3852 5.82678C1.20917 5.72317 1.05346 5.58392 0.92774 5.41619C0.801889 5.24828 0.708763 5.05534 0.654553 4.84827C0.600339 4.64117 0.586318 4.42474 0.613452 4.2117C0.640584 3.99866 0.708224 3.79402 0.811805 3.60956L0.812229 3.6088C1.32576 2.69118 2.06303 1.93147 2.94811 1.40419C3.83305 0.877002 4.83538 0.600169 5.85458 0.6C6.87379 0.599832 7.87621 0.876334 8.7613 1.40323C9.64654 1.93021 10.384 2.68967 10.8979 3.60713C11.4117 4.5247 11.6832 5.56701 11.6836 6.62915C11.684 7.6913 11.4134 8.73384 10.9002 9.65184C10.3871 10.5697 9.65018 11.3298 8.76534 11.8575C7.88077 12.3851 6.8787 12.6624 5.85964 12.6632C5.45663 12.6632 5.0662 12.4982 4.77535 12.1981C4.48388 11.8974 4.31695 11.4857 4.31695 11.0526C4.31695 10.6196 4.48388 10.2079 4.77535 9.90716C5.06621 9.60709 5.45663 9.4421 5.85964 9.4421C6.59318 9.4421 7.29276 9.1413 7.80557 8.61226C8.31776 8.08385 8.60233 7.37105 8.60233 6.63158C8.60233 5.89211 8.31776 5.17931 7.80557 4.6509C7.29305 4.12215 6.59397 3.82139 5.86087 3.82105ZM5.86087 3.82105C5.86128 3.82105 5.86169 3.82105 5.86209 3.82106L5.85964 4.42105V3.82105C5.86005 3.82105 5.86046 3.82105 5.86087 3.82105ZM4.77005 16.5535L4.77086 16.5527C4.91518 16.4026 5.08586 16.2845 5.27253 16.2042C5.45916 16.124 5.65864 16.083 5.85964 16.083C6.06063 16.083 6.26011 16.124 6.44674 16.2042C6.63341 16.2845 6.80409 16.4026 6.94842 16.5527L7.36332 16.1538L6.94842 16.5527C7.23559 16.8514 7.40058 17.2583 7.40233 17.6867L7.40237 17.6953L7.40265 17.704C7.40944 17.9095 7.36877 18.1132 7.28474 18.2979L7.2786 18.3114L7.27313 18.3252C7.19807 18.5146 7.08939 18.6865 6.95364 18.8322C6.7986 18.9809 6.62192 19.102 6.43074 19.1914C6.10628 19.3272 5.74753 19.3439 5.41315 19.239C5.07561 19.1332 4.77982 18.9087 4.57905 18.599C4.37806 18.2889 4.28607 17.9141 4.32143 17.5389C4.35678 17.1638 4.51675 16.816 4.77005 16.5535ZM8.00233 17.6842C7.99996 17.1043 7.7768 16.5486 7.38095 16.1368V19.2537C7.57368 19.05 7.72647 18.8098 7.83091 18.5463C7.9534 18.277 8.01215 17.9815 8.00233 17.6842ZM33.3007 35.1839L34.3146 36.1499V34.7495V13.2632C34.3146 12.5237 34.03 11.8109 33.5179 11.2825C33.005 10.7534 32.3055 10.4526 31.5719 10.4526H18.7158C18.3128 10.4526 17.9223 10.2876 17.6315 9.98758C17.34 9.68688 17.1731 9.27517 17.1731 8.8421C17.1731 8.40904 17.34 7.99733 17.6315 7.69663C17.9223 7.39656 18.3128 7.23158 18.7158 7.23158H31.5719C33.1115 7.23158 34.5919 7.86235 35.6864 8.99152C36.7816 10.1213 37.4 11.6576 37.4 13.2632L37.4 39.7895L37.4 39.7915C37.4011 40.1098 37.3117 40.4202 37.1449 40.6841C36.9797 40.9454 36.7465 41.1488 36.4757 41.2726C36.2817 41.3523 36.076 41.3953 35.8682 41.3998C35.5112 41.3793 35.1692 41.2297 34.9034 40.9722L34.9035 40.9721L34.8966 40.9657L28.4686 34.931L28.2954 34.7684H28.0579H10.145C8.60546 34.7684 7.12503 34.1376 6.03051 33.0085C4.93537 31.8787 4.31695 30.3424 4.31695 28.7368V26.5263C4.31695 26.0932 4.48388 25.6815 4.77535 25.3808C5.06621 25.0808 5.45663 24.9158 5.85964 24.9158C6.26264 24.9158 6.65307 25.0808 6.94392 25.3808C7.23539 25.6815 7.40233 26.0932 7.40233 26.5263V28.7368C7.40233 29.4763 7.68689 30.1891 8.19908 30.7175C8.71189 31.2466 9.41147 31.5474 10.145 31.5474H28.8924C29.276 31.549 29.6483 31.7001 29.9337 31.9758L29.9367 31.9786L33.3007 35.1839Z" fill="#777E90" stroke="#F4F5F6" stroke-width="1.2"/>
</svg>
