<?xml version="1.0" encoding="utf-8"?>
<!-- Generator: Adobe Illustrator 24.3.0, SVG Export Plug-In . SVG Version: 6.00 Build 0)  -->
<svg version="1.1" id="Layer_1" xmlns="http://www.w3.org/2000/svg" xmlns:xlink="http://www.w3.org/1999/xlink" x="0px" y="0px"
	 viewBox="0 0 27 27" style="enable-background:new 0 0 27 27;" xml:space="preserve">
<style type="text/css">
	.st0{fill:#FFFFFF;}
</style>
<path class="st0" d="M25.7,14.1H21V1.4c0-0.1,0-0.3-0.1-0.4c-0.1-0.1-0.2-0.2-0.3-0.3c-0.2-0.1-0.5-0.1-0.8,0l-4.3,2.5l-4.3-2.5
	c-0.2-0.1-0.5-0.1-0.8,0L6.1,3.2L1.7,0.7C1.6,0.6,1.5,0.6,1.4,0.6c-0.1,0-0.3,0-0.4,0.1C0.8,0.7,0.7,0.8,0.7,1
	C0.6,1.1,0.6,1.2,0.6,1.4V23c0,0.9,0.4,1.8,1,2.5c0.6,0.6,1.5,1,2.5,1H23c0.9,0,1.8-0.4,2.5-1c0.7-0.7,1-1.5,1-2.5v-8.1
	c0-0.2-0.1-0.4-0.2-0.5C26.1,14.2,25.9,14.1,25.7,14.1z M4,24.9c-0.5,0-1-0.2-1.4-0.6c-0.4-0.4-0.6-0.8-0.6-1.4V2.7l3.6,2
	c0.2,0.1,0.5,0.1,0.8,0l4.3-2.5l4.3,2.5c0.2,0.1,0.5,0.1,0.8,0l3.5-2V23c0,0.4,0.1,0.8,0.2,1.2l0.3,0.8H4z M24.9,23
	c0,0.5-0.2,1-0.6,1.4c-0.4,0.4-0.8,0.6-1.4,0.6c-0.5,0-1-0.2-1.4-0.6C21.2,23.9,21,23.5,21,23v-7.3h3.9V23z"/>
<path class="st0" d="M10.1,10.9h3.4c0.2,0,0.4-0.1,0.5-0.2c0.1-0.1,0.2-0.3,0.2-0.5S14.2,9.7,14,9.6c-0.1-0.1-0.3-0.2-0.5-0.2h-1.9
	V8.1c0-0.2-0.1-0.4-0.2-0.5c-0.3-0.3-0.8-0.3-1.1,0C10.1,7.7,10,7.9,10,8.1v1.2L9.6,9.4c-0.7,0.1-1.3,0.5-1.7,1.1
	c-0.4,0.6-0.6,1.2-0.5,1.9c0.1,0.7,0.4,1.3,0.9,1.8c0.5,0.5,1.2,0.7,1.9,0.7c0,0,0,0,0,0h1.4c0.3,0,0.6,0.1,0.9,0.4
	c0.2,0.2,0.4,0.5,0.4,0.9s-0.1,0.6-0.4,0.9c-0.2,0.2-0.5,0.4-0.9,0.4H8.1c-0.2,0-0.4,0.1-0.5,0.2c-0.1,0.1-0.2,0.3-0.2,0.5
	c0,0.2,0.1,0.4,0.2,0.5C7.7,18.9,7.9,19,8.1,19H10v1.2c0,0.2,0.1,0.4,0.2,0.5c0.3,0.3,0.8,0.3,1.1,0c0.1-0.1,0.2-0.3,0.2-0.5V19
	l0.5-0.1c0.7-0.1,1.3-0.5,1.7-1.1c0.4-0.6,0.6-1.2,0.5-1.9c-0.1-0.7-0.4-1.3-0.9-1.8c-0.5-0.5-1.2-0.7-1.9-0.7c0,0,0,0,0,0h-1.4
	c-0.3,0-0.6-0.1-0.9-0.4c-0.2-0.2-0.4-0.6-0.4-0.9c0-0.3,0.1-0.7,0.4-0.9C9.5,11,9.8,10.9,10.1,10.9z"/>
</svg>
