<svg width="159" height="42" viewBox="0 0 159 42" fill="none" xmlns="http://www.w3.org/2000/svg">
<path d="M54.7122 12.4218C55.535 12.8083 56.1717 13.3574 56.6223 14.0743C57.0679 14.7913 57.2932 15.6302 57.2932 16.5963C57.2932 17.5624 57.0679 18.4013 56.6223 19.1081C56.1717 19.8149 55.5399 20.364 54.7122 20.7504C53.8894 21.1369 52.9148 21.3301 51.7982 21.3301H49.6433V24.6859H46.1465V11.8422H51.8031C52.9148 11.8422 53.8894 12.0354 54.7122 12.4218ZM53.2087 17.9793C53.576 17.6539 53.7572 17.1912 53.7572 16.5963C53.7572 15.9963 53.576 15.5336 53.2087 15.2031C52.8414 14.8726 52.3026 14.7099 51.5827 14.7099H49.6384V18.4725H51.5827C52.3026 18.4674 52.8463 18.3047 53.2087 17.9793Z" fill="white"/>
<path d="M66.4623 15.7065C67.2998 16.4591 67.7161 17.6133 67.7161 19.1641V24.686H64.5915V23.4046C64.1066 24.3707 63.1663 24.8538 61.7656 24.8538C61.0212 24.8538 60.3796 24.7165 59.8409 24.4521C59.2973 24.1826 58.8908 23.8165 58.6116 23.3589C58.3325 22.9013 58.1953 22.3775 58.1953 21.7877C58.1953 20.8471 58.543 20.1149 59.2385 19.5963C59.9339 19.0776 61.0065 18.8183 62.4562 18.8183H64.3662C64.3074 17.7658 63.6316 17.2421 62.3337 17.2421C61.8734 17.2421 61.4081 17.3184 60.9379 17.4709C60.4678 17.6234 60.0662 17.837 59.738 18.1065L58.6067 15.7421C59.1356 15.376 59.7821 15.0913 60.5412 14.8879C61.3004 14.6845 62.0644 14.5828 62.8284 14.5828C64.4152 14.5778 65.6248 14.954 66.4623 15.7065ZM63.7246 22.3572C64.0185 22.1589 64.2291 21.8742 64.3613 21.4928V20.6284H62.9116C61.9321 20.6284 61.4473 20.964 61.4473 21.6403C61.4473 21.9454 61.5599 22.1894 61.7803 22.3725C62.0056 22.5555 62.3092 22.647 62.701 22.647C63.0879 22.6521 63.4308 22.5504 63.7246 22.3572Z" fill="white"/>
<path d="M76.4477 24.2842C76.1636 24.4672 75.8208 24.6096 75.4143 24.7062C75.0078 24.8028 74.5768 24.8537 74.1164 24.8537C72.8676 24.8537 71.9077 24.5333 71.2367 23.8978C70.5657 23.2622 70.2278 22.3114 70.2278 21.0555V17.7149H68.832V15.1116H70.2278V12.5235H73.5826V15.1116H75.7767V17.7149H73.5826V21.0148C73.5826 21.3707 73.6757 21.6504 73.8569 21.8487C74.0381 22.0521 74.283 22.1487 74.5915 22.1487C74.9833 22.1487 75.3212 22.047 75.6151 21.8385L76.4477 24.2842Z" fill="white"/>
<path d="M84.1508 24.2842C83.8667 24.4672 83.5239 24.6096 83.1174 24.7062C82.7109 24.8028 82.2799 24.8537 81.8196 24.8537C80.5707 24.8537 79.6108 24.5333 78.9399 23.8978C78.2689 23.2622 77.9309 22.3114 77.9309 21.0555V17.7149H76.5352V15.1116H77.9309V12.5235H81.2858V15.1116H83.4798V17.7149H81.2858V21.0148C81.2858 21.3707 81.3788 21.6504 81.56 21.8487C81.7412 22.0521 81.9861 22.1487 82.2946 22.1487C82.6864 22.1487 83.0243 22.047 83.3182 21.8385L84.1508 24.2842Z" fill="white"/>
<path d="M94.8923 20.5929H87.9329C88.075 21.1064 88.3492 21.503 88.7557 21.7776C89.1622 22.0521 89.6716 22.1894 90.2837 22.1894C90.7441 22.1894 91.1408 22.1233 91.4787 21.986C91.8118 21.8488 92.1546 21.6301 92.4925 21.325L94.2605 23.2318C93.33 24.3097 91.9685 24.8436 90.1809 24.8436C89.0594 24.8436 88.0799 24.625 87.2326 24.1826C86.3853 23.7453 85.7291 23.1301 85.2638 22.3471C84.7985 21.564 84.5684 20.6742 84.5684 19.6878C84.5684 18.7115 84.7936 17.8319 85.2491 17.054C85.6997 16.276 86.3266 15.671 87.1297 15.2286C87.9329 14.7862 88.8341 14.5676 89.8332 14.5676C90.7882 14.5676 91.6551 14.771 92.4289 15.1828C93.2076 15.5947 93.8198 16.1845 94.2752 16.9624C94.7307 17.7404 94.956 18.6607 94.956 19.7234C94.9462 19.759 94.9315 20.0437 94.8923 20.5929ZM88.5402 17.5116C88.1925 17.8167 87.9721 18.2336 87.8791 18.7573H91.802C91.7089 18.2336 91.4836 17.8167 91.1408 17.5116C90.7931 17.2065 90.3621 17.054 89.843 17.054C89.3238 17.054 88.888 17.2065 88.5402 17.5116Z" fill="white"/>
<path d="M101.032 14.9184C101.581 14.6947 102.208 14.5777 102.913 14.5777V17.7149C102.604 17.6793 102.354 17.659 102.154 17.659C101.434 17.659 100.871 17.8624 100.464 18.2641C100.058 18.6658 99.8567 19.2861 99.8567 20.1149V24.6808H96.502V14.7455H99.7V15.9353C100.038 15.4828 100.484 15.1421 101.032 14.9184Z" fill="white"/>
<path d="M113.404 15.676C114.129 16.4082 114.492 17.5167 114.492 18.9963V24.6809H111.137V19.5607C111.137 18.2031 110.613 17.5268 109.565 17.5268C108.987 17.5268 108.526 17.72 108.179 18.1166C107.831 18.5082 107.659 19.0929 107.659 19.8759V24.6809H104.305V14.7455H107.503V15.8286C107.88 15.4269 108.326 15.1167 108.845 14.9032C109.364 14.6896 109.927 14.5828 110.544 14.5828C111.72 14.5778 112.679 14.9439 113.404 15.676Z" fill="white"/>
<path d="M119.384 14.7252H115.584V11.8473H126.662V14.7252H122.881V24.6859H119.384V14.7252Z" fill="white"/>
<path d="M136.574 20.5929H129.615C129.757 21.1064 130.031 21.503 130.437 21.7776C130.844 22.0521 131.353 22.1894 131.965 22.1894C132.426 22.1894 132.822 22.1233 133.16 21.986C133.493 21.8488 133.836 21.6301 134.174 21.325L135.942 23.2318C135.012 24.3097 133.65 24.8436 131.863 24.8436C130.741 24.8436 129.762 24.625 128.914 24.1826C128.067 23.7453 127.411 23.1301 126.945 22.3471C126.48 21.564 126.25 20.6742 126.25 19.6878C126.25 18.7115 126.475 17.8319 126.931 17.054C127.381 16.276 128.008 15.671 128.811 15.2286C129.615 14.7862 130.516 14.5676 131.515 14.5676C132.47 14.5676 133.337 14.771 134.111 15.1828C134.889 15.5947 135.501 16.1845 135.957 16.9624C136.412 17.7404 136.638 18.6607 136.638 19.7234C136.628 19.759 136.613 20.0437 136.574 20.5929ZM130.227 17.5116C129.879 17.8167 129.659 18.2336 129.566 18.7573H133.489C133.395 18.2336 133.17 17.8167 132.827 17.5116C132.48 17.2065 132.049 17.054 131.53 17.054C131.005 17.054 130.57 17.2065 130.227 17.5116Z" fill="white"/>
<path d="M140.234 24.1927C139.396 23.7554 138.745 23.1402 138.279 22.3572C137.814 21.5741 137.584 20.6843 137.584 19.6979C137.584 18.7064 137.814 17.8268 138.279 17.0488C138.745 16.2709 139.396 15.6658 140.234 15.2336C141.071 14.8014 142.021 14.5828 143.079 14.5828C144.161 14.5828 145.102 14.8269 145.89 15.3099C146.679 15.7929 147.237 16.4641 147.57 17.3183L144.974 18.6962C144.538 17.8014 143.902 17.3539 143.064 17.3539C142.462 17.3539 141.967 17.5624 141.571 17.9793C141.174 18.3962 140.978 18.9708 140.978 19.703C140.978 20.4504 141.174 21.0352 141.571 21.4572C141.967 21.8792 142.462 22.0928 143.064 22.0928C143.902 22.0928 144.538 21.6453 144.974 20.7504L147.57 22.1284C147.242 22.9826 146.679 23.6537 145.89 24.1368C145.102 24.6198 144.166 24.8639 143.079 24.8639C142.021 24.8537 141.071 24.63 140.234 24.1927Z" fill="white"/>
<path d="M157.912 15.676C158.637 16.4082 158.999 17.5166 158.999 18.9962V24.6808H155.645V19.5606C155.645 18.203 155.12 17.5268 154.072 17.5268C153.495 17.5268 153.034 17.72 152.686 18.1166C152.339 18.5081 152.167 19.0929 152.167 19.8759V24.6808H148.812V11.0693H152.167V15.6557C152.535 15.2997 152.961 15.0303 153.455 14.8472C153.95 14.6642 154.479 14.5726 155.047 14.5726C156.232 14.5777 157.187 14.9438 157.912 15.676Z" fill="white"/>
<path d="M85.6344 37.2195C85.0663 36.9042 84.6206 36.4619 84.2973 35.9025C83.9741 35.3382 83.8125 34.7077 83.8125 33.9958C83.8125 33.284 83.9741 32.6535 84.2973 32.0891C84.6206 31.5298 85.0663 31.0874 85.6344 30.7722C86.2025 30.4569 86.8392 30.2942 87.5493 30.2942C88.1468 30.2942 88.6855 30.4061 89.1704 30.6247C89.6552 30.8434 90.0569 31.1535 90.385 31.5654L89.3614 32.5467C88.8961 31.9874 88.3182 31.7077 87.6277 31.7077C87.2016 31.7077 86.8196 31.8044 86.4866 31.9976C86.1535 32.1908 85.8891 32.4603 85.703 32.8111C85.5169 33.1569 85.4238 33.5535 85.4238 33.9958C85.4238 34.4382 85.5169 34.8348 85.703 35.1805C85.8891 35.5263 86.1486 35.7958 86.4866 35.9941C86.8196 36.1873 87.2016 36.2839 87.6277 36.2839C88.3182 36.2839 88.8961 35.9992 89.3614 35.4348L90.385 36.4161C90.0569 36.833 89.6503 37.1483 89.1655 37.3669C88.6806 37.5856 88.137 37.6923 87.5395 37.6923C86.8343 37.6974 86.1976 37.5347 85.6344 37.2195Z" fill="white"/>
<path d="M92.1781 37.2906C91.7373 37.0466 91.3896 36.711 91.1398 36.2839C90.89 35.8568 90.7676 35.3687 90.7676 34.8246C90.7676 34.2805 90.89 33.7924 91.1398 33.3653C91.3896 32.9382 91.7373 32.6026 92.1781 32.3586C92.6188 32.1145 93.1233 31.9976 93.6767 31.9976C94.235 31.9976 94.7346 32.1196 95.1753 32.3586C95.6161 32.6026 95.9589 32.9382 96.2087 33.3653C96.4585 33.7924 96.5809 34.2805 96.5809 34.8246C96.5809 35.3687 96.4585 35.8568 96.2087 36.2839C95.9589 36.711 95.6161 37.0466 95.1753 37.2906C94.7346 37.5347 94.235 37.6516 93.6767 37.6516C93.1233 37.6516 92.6188 37.5347 92.1781 37.2906ZM94.6464 35.933C94.8962 35.6585 95.0235 35.2873 95.0235 34.8246C95.0235 34.3619 94.8962 33.9907 94.6464 33.7162C94.3966 33.4416 94.0734 33.2992 93.6767 33.2992C93.2849 33.2992 92.9568 33.4365 92.7021 33.7162C92.4474 33.9907 92.3152 34.3619 92.3152 34.8246C92.3152 35.2873 92.4425 35.6585 92.7021 35.933C92.9568 36.2076 93.28 36.35 93.6767 36.35C94.0734 36.3449 94.3966 36.2076 94.6464 35.933Z" fill="white"/>
<path d="M97.4383 37.3669C97.2571 37.1788 97.1641 36.9398 97.1641 36.65C97.1641 36.3551 97.2571 36.1212 97.4383 35.9381C97.6195 35.7551 97.8497 35.6686 98.1191 35.6686C98.3884 35.6686 98.6137 35.7602 98.7998 35.9381C98.9811 36.1161 99.0741 36.3551 99.0741 36.65C99.0741 36.9347 98.9811 37.1737 98.7998 37.3669C98.6186 37.555 98.3884 37.6516 98.1191 37.6516C97.8497 37.6516 97.6244 37.5601 97.4383 37.3669Z" fill="white"/>
<path d="M101.386 35.9431C101.562 36.1211 101.65 36.3601 101.65 36.655C101.65 36.7923 101.636 36.9245 101.601 37.0618C101.567 37.1991 101.493 37.4024 101.386 37.677L100.823 39.1465H99.8479L100.279 37.5194C100.112 37.4533 99.9851 37.3414 99.892 37.1889C99.799 37.0363 99.75 36.8584 99.75 36.655C99.75 36.3601 99.8381 36.1262 100.019 35.9431C100.201 35.7601 100.426 35.6737 100.705 35.6737C100.984 35.6686 101.209 35.7601 101.386 35.9431Z" fill="white"/>
<path d="M102.801 30.4214H104.397V36.228H107.85V37.5754H102.801V30.4214Z" fill="white"/>
<path d="M109.534 31.7688H107.33V30.4214H113.334V31.7688H111.131V37.5754H109.534V31.7688Z" fill="white"/>
<path d="M114.188 30.4214H117.317C118.066 30.4214 118.727 30.5688 119.301 30.8637C119.874 31.1586 120.319 31.5756 120.638 32.1145C120.956 32.6535 121.117 33.2789 121.117 33.9958C121.117 34.7128 120.956 35.3382 120.638 35.8771C120.319 36.4161 119.874 36.8331 119.301 37.128C118.727 37.4229 118.066 37.5703 117.317 37.5703H114.188V30.4214ZM117.239 36.2127C117.929 36.2127 118.478 36.0144 118.884 35.6127C119.296 35.2161 119.501 34.6772 119.501 33.9958C119.501 33.3145 119.296 32.7755 118.884 32.3789C118.473 31.9823 117.924 31.784 117.239 31.784H115.779V36.2178H117.239V36.2127Z" fill="white"/>
<path d="M19.9668 40.4751L21.1604 40.1783L21.8117 39.3419L19.9668 39.243V40.4751Z" fill="white"/>
<path d="M19.9668 36.6043H19.9736V37.3747V37.4831L19.9827 37.4737C19.994 37.7093 20.0326 37.9213 20.1143 38.1003C20.2073 38.3053 20.339 38.4584 20.5046 38.5668C20.6725 38.6728 20.8631 38.727 21.0765 38.727C21.2875 38.727 21.4781 38.6728 21.6438 38.5668C21.8117 38.4608 21.941 38.3053 22.0341 38.1003C22.1271 37.8954 22.1748 37.6551 22.1748 37.3747C22.1748 37.0944 22.1271 36.8541 22.0341 36.6491C21.9841 36.5431 21.9252 36.4512 21.8571 36.3711L22.2905 36.3169V36.642H22.758V38.6728H23.466V36.0931L23.9221 35.5701L19.9668 35.3675V36.6043ZM21.3624 37.9425C21.292 38.0626 21.1967 38.1215 21.0787 38.1215C20.9584 38.1215 20.8609 38.0603 20.7905 37.9425C20.7202 37.8223 20.6861 37.6315 20.6861 37.3724C20.6861 37.1132 20.7202 36.9224 20.7905 36.8022C20.8609 36.6821 20.9562 36.6232 21.0787 36.6232C21.199 36.6232 21.292 36.6844 21.3624 36.8022C21.4327 36.9224 21.4668 37.1132 21.4668 37.3724C21.4668 37.6315 21.4327 37.8223 21.3624 37.9425Z" fill="white"/>
<path d="M24.3648 3.9701C23.5433 3.26804 22.6016 2.66963 21.535 2.17724C19.3657 1.17597 16.815 0.674164 13.89 0.674164H0V6.18232H6.2699H10.9627H13.6018C16.334 6.18232 18.408 6.78308 19.824 7.9846C21.0335 9.01179 21.6939 10.4418 21.8686 12.2253L19.967 12.124L19.9738 13.2195H19.967V14.2019L19.9761 14.1925C19.9761 14.1948 19.9761 14.1972 19.9761 14.2019C19.9761 14.4822 20.0237 14.7226 20.1168 14.9275C20.2098 15.1325 20.3414 15.2856 20.5071 15.394C20.675 15.5 20.8656 15.5542 21.0789 15.5542C21.2877 15.5542 21.4761 15.5 21.6417 15.3987C21.5804 15.6343 21.5124 15.8628 21.4261 16.0796L19.9693 16.0018V18.1481C19.9171 18.1952 19.8808 18.2564 19.824 18.3036C18.4375 19.4815 16.4111 20.0729 13.7606 20.0964V16.645V12.5339H0V20.1058V23.0649V35.728H6.2699V25.614H11.5935V41.2173H13.7606V25.614H13.89C16.1411 25.614 18.163 25.3101 19.967 24.7187V25.2465H19.9738V25.7907C19.9738 26.071 20.0215 26.3113 20.1145 26.5163C20.2075 26.7213 20.3392 26.8744 20.5048 26.9828C20.6727 27.0888 20.8634 27.143 21.0767 27.143C21.2877 27.143 21.4783 27.0888 21.644 26.9828C21.8119 26.8768 21.9412 26.7213 22.0343 26.5163C22.1273 26.3113 22.175 26.071 22.175 25.7907C22.175 25.5103 22.1273 25.27 22.0343 25.0651L22.2907 25.0415V25.058H22.7582V27.0888H23.4662V24.9378L24.097 24.8813C24.0562 24.9378 24.0153 24.9944 23.9836 25.0627C23.8905 25.2677 23.8429 25.508 23.8429 25.7883C23.8429 26.0687 23.8905 26.309 23.9836 26.514C24.0766 26.7189 24.2082 26.8721 24.3739 26.9804C24.5418 27.0864 24.7324 27.1406 24.9457 27.1406C25.1568 27.1406 25.3474 27.0864 25.513 26.9804C25.6809 26.8744 25.8103 26.7189 25.9033 26.514C25.9964 26.309 26.044 26.0687 26.044 25.7883C26.044 25.508 25.9964 25.2677 25.9033 25.0627C25.8443 24.9331 25.7649 24.8318 25.6764 24.7423L26.1575 24.6999V25.058H26.6227V27.0888H27.3307V24.5986L28.463 24.4996C28.3836 24.5256 28.3087 24.5562 28.2384 24.601C28.0705 24.707 27.9411 24.8625 27.8481 25.0674C27.7528 25.2724 27.7074 25.5127 27.7074 25.793C27.7074 26.0734 27.755 26.3137 27.8481 26.5187C27.9411 26.7236 28.0727 26.8768 28.2384 26.9851C28.4063 27.0912 28.5969 27.1454 28.8102 27.1454C29.0213 27.1454 29.2119 27.0912 29.3775 26.9851C29.5455 26.8791 29.6748 26.7236 29.7678 26.5187C29.8609 26.3137 29.9085 26.0734 29.9085 25.793C29.9085 25.5127 29.8609 25.2724 29.7678 25.0674C29.6748 24.8625 29.5432 24.7093 29.3775 24.601C29.2459 24.5185 29.0984 24.4761 28.9396 24.4596L29.1347 24.4431L29.6612 24.2664L22.0002 23.8612C22.3792 23.668 22.7355 23.4536 23.0804 23.2298H23.4639V22.9777C23.6364 22.8576 23.7997 22.7303 23.9631 22.6008C23.9699 22.6196 23.9722 22.6408 23.9813 22.6573C24.0743 22.8623 24.2059 23.0154 24.3716 23.1238C24.5395 23.2298 24.7301 23.284 24.9434 23.284C25.1545 23.284 25.3451 23.2298 25.5108 23.1238C25.6787 23.0178 25.808 22.8623 25.9011 22.6573C25.9941 22.4523 26.0417 22.212 26.0417 21.9317C26.0417 21.8492 26.0281 21.7762 26.0213 21.7008C26.0168 21.6584 26.0168 21.6113 26.01 21.5712L26.6204 21.4605V21.6631V23.2298H27.3284V21.6183V21.3309L27.8344 21.239C27.7891 21.3474 27.755 21.4652 27.7346 21.5924C27.7164 21.6984 27.7051 21.8092 27.7051 21.9293C27.7051 22.2097 27.7528 22.45 27.8458 22.655C27.9388 22.8599 28.0705 23.0131 28.2361 23.1214C28.404 23.2274 28.5946 23.2816 28.8079 23.2816C29.019 23.2816 29.2096 23.2274 29.3753 23.1214C29.5432 23.0154 29.6725 22.8599 29.7656 22.655C29.8586 22.45 29.9063 22.2097 29.9063 21.9293C29.9063 21.7573 29.8813 21.6042 29.8473 21.4629C29.8246 21.3733 29.8019 21.2838 29.7656 21.2061C29.7156 21.0977 29.6544 21.0058 29.5818 20.9233L30.0197 20.8432V21.199H30.4849V21.4228V22.6762V23.2298H31.1929V20.6336L31.6218 20.4969L26.2188 20.2048C26.3186 20.0587 26.4343 19.9291 26.5274 19.7784C26.6113 19.6417 26.6885 19.5027 26.7634 19.3637H27.3329V18.1198C27.3829 17.9926 27.4328 17.8654 27.4804 17.7358C27.5236 17.6156 27.5644 17.4931 27.6053 17.3706L27.8503 17.3447C27.7981 17.4578 27.7641 17.585 27.7414 17.7216C27.7233 17.83 27.7096 17.9431 27.7096 18.0656C27.7096 18.346 27.7573 18.5863 27.8503 18.7912C27.9434 18.9962 28.075 19.1493 28.2406 19.2577C28.4086 19.3637 28.5992 19.4179 28.8125 19.4179C29.0235 19.4179 29.2141 19.3637 29.3798 19.2577C29.5477 19.1517 29.6771 18.9962 29.7701 18.7912C29.8632 18.5863 29.9108 18.346 29.9108 18.0656C29.9108 17.8913 29.8858 17.7358 29.8495 17.5921C29.8268 17.5049 29.8064 17.4177 29.7701 17.34C29.7361 17.2669 29.693 17.2081 29.6498 17.1492L30.0243 17.1091V17.3353H30.4895V17.552V19.3637H31.1975V17.5073V16.9795L32.0938 16.8829C31.9327 16.989 31.8056 17.1397 31.7126 17.34C31.6922 17.3824 31.6831 17.4342 31.6695 17.479C31.6105 17.6533 31.5719 17.8442 31.5719 18.0656C31.5719 18.346 31.6195 18.5863 31.7126 18.7912C31.8079 18.9962 31.9372 19.1493 32.1029 19.2577C32.1437 19.2836 32.1914 19.2978 32.2345 19.3166C32.3684 19.3779 32.5113 19.4179 32.6725 19.4179C32.8835 19.4179 33.0741 19.3637 33.2398 19.2577C33.4077 19.1517 33.537 18.9962 33.6301 18.7912C33.7254 18.5863 33.7708 18.346 33.7708 18.0656C33.7708 17.7853 33.7231 17.5449 33.6301 17.34C33.537 17.135 33.4054 16.9819 33.2398 16.8735C33.174 16.8335 33.1036 16.8052 33.0333 16.7816L33.5847 16.7227L27.8776 16.4212C27.9661 16.0466 28.0341 15.6602 28.0886 15.2668C28.1363 15.3115 28.1794 15.361 28.2338 15.3963C28.4018 15.5024 28.5924 15.5565 28.8057 15.5565C29.0167 15.5565 29.2073 15.5024 29.373 15.3963C29.5409 15.2903 29.6703 15.1348 29.7633 14.9299C29.8563 14.7249 29.904 14.4846 29.904 14.2042C29.904 13.9239 29.8563 13.6836 29.7633 13.4786C29.7225 13.3915 29.6725 13.3184 29.6203 13.2501L30.0175 13.2289V13.4716H30.4826V15.5024H31.1906V13.1723L31.9622 13.1323C31.8623 13.2265 31.7716 13.3373 31.7058 13.4786C31.6127 13.6836 31.5651 13.9239 31.5651 14.2042C31.5651 14.4846 31.6127 14.7249 31.7058 14.9299C31.8011 15.1348 31.9304 15.288 32.0961 15.3963C32.264 15.5024 32.4546 15.5565 32.6679 15.5565C32.879 15.5565 33.0696 15.5024 33.2352 15.3963C33.4032 15.2903 33.5325 15.1348 33.6255 14.9299C33.7209 14.7249 33.7662 14.4846 33.7662 14.2042C33.7662 13.9239 33.7186 13.6836 33.6255 13.4786C33.5438 13.3019 33.4304 13.17 33.2942 13.064L33.882 13.0334V13.4716H34.3472V15.5024H35.0552V12.9768L35.5431 12.9532L35.0552 12.9273L34.6626 12.9061L28.2179 12.5645C28.134 10.2463 27.5826 8.21077 26.516 6.48623C26.4502 6.38022 26.3663 6.28834 26.2959 6.18468H35.6157V12.541L37.2427 9.32041V6.18468V3.97246H24.3648V3.9701ZM25.2294 26.3561C25.159 26.4763 25.0637 26.5352 24.9457 26.5352C24.8254 26.5352 24.7279 26.4739 24.6575 26.3561C24.5872 26.236 24.5531 26.0451 24.5531 25.786C24.5531 25.5268 24.5872 25.336 24.6575 25.2158C24.7279 25.0957 24.8232 25.0368 24.9457 25.0368C25.066 25.0368 25.159 25.0981 25.2294 25.2158C25.2997 25.336 25.3337 25.5268 25.3337 25.786C25.336 26.0475 25.2997 26.236 25.2294 26.3561ZM29.0961 25.2182C29.1665 25.3384 29.2005 25.5292 29.2005 25.7883C29.2005 26.0475 29.1665 26.2383 29.0961 26.3585C29.0258 26.4786 28.9305 26.5375 28.8125 26.5375C28.6922 26.5375 28.5946 26.4763 28.5243 26.3585C28.4539 26.2383 28.4199 26.0475 28.4199 25.7883C28.4199 25.5292 28.4539 25.3384 28.5243 25.2182C28.5946 25.098 28.6899 25.0392 28.8125 25.0392C28.9328 25.0368 29.0258 25.098 29.0961 25.2182ZM29.2028 21.9246C29.2028 22.1838 29.1688 22.3746 29.0984 22.4948C29.0281 22.6149 28.9328 22.6738 28.8148 22.6738C28.6945 22.6738 28.5969 22.6125 28.5266 22.4948C28.4562 22.3746 28.4222 22.1838 28.4222 21.9246C28.4222 21.7691 28.4381 21.649 28.463 21.543C28.4789 21.4723 28.4993 21.404 28.5266 21.3545C28.5969 21.2343 28.6922 21.1754 28.8148 21.1754C28.935 21.1754 29.0281 21.2367 29.0984 21.3545C29.1211 21.3922 29.1324 21.4487 29.1483 21.5005C29.1801 21.6136 29.2028 21.7479 29.2028 21.9246ZM29.2028 18.0633C29.2028 18.3224 29.1688 18.5132 29.0984 18.6334C29.0281 18.7535 28.9328 18.8124 28.8148 18.8124C28.6945 18.8124 28.5969 18.7512 28.5266 18.6334C28.4562 18.5132 28.4222 18.3224 28.4222 18.0633C28.4222 17.9054 28.4403 17.7805 28.4653 17.6745C28.4812 17.6062 28.4993 17.5402 28.5266 17.4931C28.5969 17.373 28.6922 17.3141 28.8148 17.3141C28.935 17.3141 29.0281 17.3753 29.0984 17.4931C29.1188 17.5285 29.1302 17.585 29.1461 17.6321C29.1778 17.7452 29.2028 17.8818 29.2028 18.0633ZM32.9629 18.6334C32.8926 18.7535 32.7973 18.8124 32.6793 18.8124C32.6203 18.8124 32.5704 18.7959 32.5227 18.77C32.4728 18.7394 32.4274 18.6946 32.3911 18.6334C32.3207 18.5132 32.2867 18.3224 32.2867 18.0633C32.2867 17.8041 32.3207 17.6133 32.3911 17.4931C32.407 17.4648 32.4319 17.4507 32.4501 17.4272C32.5136 17.3588 32.5862 17.3117 32.677 17.3117C32.7564 17.3117 32.82 17.3471 32.8767 17.4012C32.9062 17.4272 32.9357 17.4531 32.9607 17.4931C32.9992 17.5614 33.0265 17.6557 33.0423 17.7664C33.056 17.8536 33.065 17.9478 33.065 18.0633C33.0673 18.3224 33.0333 18.5132 32.9629 18.6334ZM21.3626 25.2182C21.4329 25.3384 21.467 25.5292 21.467 25.7883C21.467 26.0475 21.4329 26.2383 21.3626 26.3585C21.2922 26.4786 21.1969 26.5375 21.0789 26.5375C20.9587 26.5375 20.8611 26.4763 20.7907 26.3585C20.7204 26.2383 20.6864 26.0475 20.6864 25.7883C20.6864 25.5292 20.7204 25.3384 20.7907 25.2182C20.8044 25.197 20.8225 25.1852 20.8361 25.1687L21.2809 25.1287C21.3104 25.1546 21.3399 25.1782 21.3626 25.2182ZM25.3201 21.7385C25.3247 21.7998 25.3337 21.8539 25.3337 21.927C25.3337 22.1861 25.2997 22.377 25.2294 22.4971C25.159 22.6173 25.0637 22.6762 24.9457 22.6762C24.8254 22.6762 24.7279 22.6149 24.6575 22.4971C24.6031 22.4052 24.5781 22.2615 24.5645 22.0872C24.6825 21.9788 24.805 21.8751 24.9185 21.7644L25.3179 21.6914C25.3179 21.7055 25.3201 21.722 25.3201 21.7385ZM32.9629 14.772C32.8926 14.8922 32.7973 14.9511 32.6793 14.9511C32.559 14.9511 32.4614 14.8898 32.3911 14.772C32.3207 14.6519 32.2867 14.461 32.2867 14.2019C32.2867 13.9427 32.3207 13.7519 32.3911 13.6318C32.4614 13.5116 32.5567 13.4527 32.6793 13.4527C32.7995 13.4527 32.8926 13.514 32.9629 13.6318C33.0333 13.7519 33.0673 13.9427 33.0673 14.2019C33.0673 14.461 33.0333 14.6519 32.9629 14.772ZM21.3626 14.772C21.2922 14.8922 21.1969 14.9511 21.0789 14.9511C20.9587 14.9511 20.8611 14.8898 20.7907 14.772C20.7204 14.6519 20.6864 14.461 20.6864 14.2019C20.6864 13.9781 20.7181 13.8155 20.7703 13.6954L21.3739 13.6647C21.4352 13.7849 21.4692 13.9592 21.4692 14.2019C21.4692 14.461 21.4329 14.6519 21.3626 14.772ZM29.0961 14.772C29.0258 14.8922 28.9305 14.9511 28.8125 14.9511C28.6922 14.9511 28.5946 14.8898 28.5243 14.772C28.4539 14.6519 28.4199 14.461 28.4199 14.2019C28.4199 13.9427 28.4539 13.7519 28.5243 13.6318C28.5946 13.5116 28.6899 13.4527 28.8125 13.4527C28.9328 13.4527 29.0258 13.514 29.0961 13.6318C29.1665 13.7519 29.2005 13.9427 29.2005 14.2019C29.2028 14.461 29.1665 14.6519 29.0961 14.772Z" fill="white"/>
<path d="M19.9671 28.8675H19.9739V29.652C19.9739 29.9323 20.0216 30.1726 20.1146 30.3776C20.2076 30.5826 20.3393 30.7357 20.5049 30.8441C20.6728 30.9501 20.8635 31.0043 21.0768 31.0043C21.2878 31.0043 21.4784 30.9501 21.6441 30.8441C21.812 30.7381 21.9413 30.5826 22.0344 30.3776C22.1274 30.1726 22.1751 29.9323 22.1751 29.652C22.1751 29.3716 22.1274 29.1313 22.0344 28.9264C21.9935 28.8368 21.9436 28.7638 21.8892 28.6931L22.2908 28.6554V28.9193H22.7583V30.9501H23.4663V28.5494L24.3672 28.467C24.2038 28.573 24.0767 28.7261 23.9837 28.9264C23.8906 29.1313 23.843 29.3716 23.843 29.652C23.843 29.9323 23.8906 30.1726 23.9837 30.3776C24.0767 30.5826 24.2083 30.7357 24.374 30.8441C24.5419 30.9501 24.7325 31.0043 24.9458 31.0043C25.1569 31.0043 25.3475 30.9501 25.5131 30.8441C25.6811 30.7381 25.8104 30.5826 25.9034 30.3776C25.9965 30.1726 26.0441 29.9323 26.0441 29.652C26.0441 29.3716 25.9965 29.1313 25.9034 28.9264C25.8081 28.7214 25.6788 28.5683 25.5131 28.4599C25.4564 28.4245 25.3929 28.401 25.3293 28.3774L27.4011 28.189L27.6984 28.0335L19.9648 27.6235V28.8675H19.9671ZM24.6576 29.0795C24.728 28.9593 24.8233 28.9004 24.9458 28.9004C25.0661 28.9004 25.1591 28.9617 25.2295 29.0795C25.2998 29.1996 25.3339 29.3905 25.3339 29.6496C25.3339 29.9088 25.2998 30.0996 25.2295 30.2198C25.1591 30.3399 25.0638 30.3988 24.9458 30.3988C24.8256 30.3988 24.728 30.3376 24.6576 30.2198C24.5873 30.0996 24.5532 29.9088 24.5532 29.6496C24.5532 29.3905 24.5873 29.1996 24.6576 29.0795ZM21.079 28.9004C21.1993 28.9004 21.2923 28.9617 21.3627 29.0795C21.433 29.1996 21.4671 29.3905 21.4671 29.6496C21.4671 29.9088 21.433 30.0996 21.3627 30.2198C21.2923 30.3399 21.197 30.3988 21.079 30.3988C20.9588 30.3988 20.8612 30.3376 20.7908 30.2198C20.7205 30.0996 20.6865 29.9088 20.6865 29.6496C20.6865 29.3905 20.7205 29.1996 20.7908 29.0795C20.8612 28.9593 20.9588 28.9004 21.079 28.9004Z" fill="white"/>
<path d="M26.1602 28.9193H26.6253V30.9477H27.3333V28.3515L26.1602 28.5164V28.9193Z" fill="white"/>
<path d="M25.5131 32.3213C25.4428 32.2766 25.3634 32.246 25.2839 32.22L25.7355 31.803L19.9648 31.4968V32.4344V32.7383V33.5134L19.9739 33.504C19.9739 33.5087 19.9739 33.5111 19.9739 33.5134C19.9739 33.7938 20.0216 34.0341 20.1146 34.2391C20.2076 34.444 20.3393 34.5972 20.5049 34.7055C20.6728 34.8116 20.8635 34.8657 21.0768 34.8657C21.2878 34.8657 21.4784 34.8116 21.6441 34.7055C21.812 34.5995 21.9413 34.444 22.0344 34.2391C22.1274 34.0341 22.1751 33.7938 22.1751 33.5134C22.1751 33.2331 22.1274 32.9928 22.0344 32.7878C21.9935 32.6983 21.9436 32.6229 21.8892 32.5546L22.2908 32.5169V32.7831H22.7583V34.8139H23.4663V32.4062L24.3876 32.319C24.383 32.3213 24.3785 32.3213 24.374 32.3261C24.206 32.4321 24.0767 32.5876 23.9837 32.7925C23.8906 32.9975 23.843 33.2378 23.843 33.5182C23.843 33.7985 23.8906 34.0388 23.9837 34.2438C24.0767 34.4487 24.2083 34.6019 24.374 34.7103C24.5419 34.8163 24.7325 34.8705 24.9458 34.8705C25.1569 34.8705 25.3475 34.8163 25.5131 34.7103C25.6811 34.6042 25.8104 34.4487 25.9034 34.2438C25.9965 34.0388 26.0441 33.7985 26.0441 33.5182C26.0441 33.2378 25.9965 32.9975 25.9034 32.7925C25.8104 32.5828 25.6811 32.4274 25.5131 32.3213ZM21.3627 34.0812C21.2923 34.2014 21.197 34.2603 21.079 34.2603C20.9588 34.2603 20.8612 34.199 20.7908 34.0812C20.7205 33.9611 20.6865 33.7702 20.6865 33.5111C20.6865 33.2519 20.7205 33.0611 20.7908 32.9409C20.8612 32.8208 20.9565 32.7619 21.079 32.7619C21.1993 32.7619 21.2923 32.8232 21.3627 32.9409C21.433 33.0611 21.4671 33.2519 21.4671 33.5111C21.4693 33.7726 21.433 33.9611 21.3627 34.0812ZM25.2295 34.0812C25.1591 34.2014 25.0638 34.2603 24.9458 34.2603C24.8256 34.2603 24.728 34.199 24.6576 34.0812C24.5873 33.9611 24.5532 33.7702 24.5532 33.5111C24.5532 33.2519 24.5873 33.0611 24.6576 32.9409C24.728 32.8208 24.8233 32.7619 24.9458 32.7619C25.0661 32.7619 25.1591 32.8232 25.2295 32.9409C25.2998 33.0611 25.3339 33.2519 25.3339 33.5111C25.3361 33.7726 25.2998 33.9611 25.2295 34.0812Z" fill="white"/>
</svg>
