<?xml version="1.0" encoding="utf-8"?>
<!-- Generator: Adobe Illustrator 24.3.0, SVG Export Plug-In . SVG Version: 6.00 Build 0)  -->
<svg version="1.1" id="Layer_1" xmlns="http://www.w3.org/2000/svg" xmlns:xlink="http://www.w3.org/1999/xlink" x="0px" y="0px"
	 viewBox="0 0 39 41" style="enable-background:new 0 0 39 41;" xml:space="preserve">
<style type="text/css">
	.st0{fill:#FFFFFF;}
</style>
<path class="st0" d="M20,39.3l1.2-0.3l0.7-0.8L20,38.1V39.3z"/>
<path class="st0" d="M20,35.6L20,35.6l0,0.7v0.1l0,0c0,0.2,0,0.4,0.1,0.6c0.1,0.2,0.2,0.3,0.4,0.4c0.2,0.1,0.4,0.2,0.6,0.2
	c0.2,0,0.4-0.1,0.6-0.2c0.2-0.1,0.3-0.3,0.4-0.4c0.1-0.2,0.1-0.4,0.1-0.7c0-0.3,0-0.5-0.1-0.7c0-0.1-0.1-0.2-0.2-0.3l0.4-0.1v0.3
	h0.5v2h0.7v-2.5l0.5-0.5l-4-0.2V35.6z M21.4,36.9c-0.1,0.1-0.2,0.2-0.3,0.2c-0.1,0-0.2-0.1-0.3-0.2c-0.1-0.1-0.1-0.3-0.1-0.5
	s0-0.4,0.1-0.5c0.1-0.1,0.2-0.2,0.3-0.2c0.1,0,0.2,0.1,0.3,0.2c0.1,0.1,0.1,0.3,0.1,0.5S21.4,36.8,21.4,36.9z"/>
<path class="st0" d="M24.4,4.2c-0.8-0.7-1.8-1.3-2.8-1.7c-2.2-1-4.7-1.4-7.6-1.4H0v5.3h6.3H11h2.6c2.7,0,4.8,0.6,6.2,1.7
	c1.2,1,1.9,2.4,2,4.1L20,12l0,1.1h0V14l0,0c0,0,0,0,0,0c0,0.3,0,0.5,0.1,0.7c0.1,0.2,0.2,0.3,0.4,0.4c0.2,0.1,0.4,0.2,0.6,0.2
	c0.2,0,0.4-0.1,0.6-0.1c-0.1,0.2-0.1,0.4-0.2,0.7L20,15.8v2.1c-0.1,0-0.1,0.1-0.1,0.1c-1.4,1.1-3.4,1.7-6.1,1.7v-3.3v-4H0v7.3v2.9
	v12.2h6.3V25h5.3v15h2.2V25h0.1c2.3,0,4.3-0.3,6.1-0.9v0.5h0v0.5c0,0.3,0,0.5,0.1,0.7c0.1,0.2,0.2,0.3,0.4,0.4
	c0.2,0.1,0.4,0.2,0.6,0.2c0.2,0,0.4-0.1,0.6-0.2c0.2-0.1,0.3-0.3,0.4-0.4c0.1-0.2,0.1-0.4,0.1-0.7c0-0.3,0-0.5-0.1-0.7l0.3,0v0h0.5
	v2h0.7v-2.1l0.6-0.1c0,0.1-0.1,0.1-0.1,0.2c-0.1,0.2-0.1,0.4-0.1,0.7c0,0.3,0,0.5,0.1,0.7c0.1,0.2,0.2,0.3,0.4,0.4
	c0.2,0.1,0.4,0.2,0.6,0.2c0.2,0,0.4-0.1,0.6-0.2c0.2-0.1,0.3-0.3,0.4-0.4c0.1-0.2,0.1-0.4,0.1-0.7c0-0.3,0-0.5-0.1-0.7
	c-0.1-0.1-0.1-0.2-0.2-0.3l0.5,0v0.3h0.5v2h0.7V24l1.1-0.1c-0.1,0-0.2,0.1-0.2,0.1c-0.2,0.1-0.3,0.3-0.4,0.4
	c-0.1,0.2-0.1,0.4-0.1,0.7s0,0.5,0.1,0.7c0.1,0.2,0.2,0.3,0.4,0.4c0.2,0.1,0.4,0.2,0.6,0.2c0.2,0,0.4-0.1,0.6-0.2
	c0.2-0.1,0.3-0.3,0.4-0.4c0.1-0.2,0.1-0.4,0.1-0.7s0-0.5-0.1-0.7c-0.1-0.2-0.2-0.3-0.4-0.4c-0.1-0.1-0.3-0.1-0.4-0.1l0.2,0l0.5-0.2
	L22,23.3c0.4-0.2,0.7-0.4,1.1-0.6h0.4v-0.2c0.2-0.1,0.3-0.2,0.5-0.4c0,0,0,0,0,0.1c0.1,0.2,0.2,0.3,0.4,0.4c0.2,0.1,0.4,0.2,0.6,0.2
	c0.2,0,0.4-0.1,0.6-0.2c0.2-0.1,0.3-0.3,0.4-0.4C26,22,26,21.7,26,21.5c0-0.1,0-0.1,0-0.2c0,0,0-0.1,0-0.1l0.6-0.1v0.2v1.5h0.7v-1.6
	v-0.3l0.5-0.1c0,0.1-0.1,0.2-0.1,0.3c0,0.1,0,0.2,0,0.3c0,0.3,0,0.5,0.1,0.7c0.1,0.2,0.2,0.3,0.4,0.4c0.2,0.1,0.4,0.2,0.6,0.2
	c0.2,0,0.4-0.1,0.6-0.2c0.2-0.1,0.3-0.3,0.4-0.4c0.1-0.2,0.1-0.4,0.1-0.7c0-0.2,0-0.3-0.1-0.4c0-0.1,0-0.2-0.1-0.2
	c-0.1-0.1-0.1-0.2-0.2-0.3l0.4-0.1v0.3h0.5V21v1.2v0.5h0.7v-2.5l0.4-0.1l-5.4-0.3c0.1-0.1,0.2-0.3,0.3-0.4c0.1-0.1,0.2-0.3,0.2-0.4
	h0.6v-1.2c0.1-0.1,0.1-0.2,0.1-0.4c0-0.1,0.1-0.2,0.1-0.4l0.2,0c-0.1,0.1-0.1,0.2-0.1,0.4c0,0.1,0,0.2,0,0.3c0,0.3,0,0.5,0.1,0.7
	c0.1,0.2,0.2,0.3,0.4,0.4c0.2,0.1,0.4,0.2,0.6,0.2c0.2,0,0.4-0.1,0.6-0.2c0.2-0.1,0.3-0.3,0.4-0.4c0.1-0.2,0.1-0.4,0.1-0.7
	c0-0.2,0-0.3-0.1-0.5c0-0.1,0-0.2-0.1-0.2c0-0.1-0.1-0.1-0.1-0.2l0.4,0V17h0.5v0.2V19h0.7v-1.8v-0.5l0.9-0.1
	c-0.2,0.1-0.3,0.2-0.4,0.4c0,0,0,0.1,0,0.1c-0.1,0.2-0.1,0.4-0.1,0.6c0,0.3,0,0.5,0.1,0.7c0.1,0.2,0.2,0.3,0.4,0.4
	c0,0,0.1,0,0.1,0.1c0.1,0.1,0.3,0.1,0.4,0.1c0.2,0,0.4-0.1,0.6-0.2c0.2-0.1,0.3-0.3,0.4-0.4c0.1-0.2,0.1-0.4,0.1-0.7s0-0.5-0.1-0.7
	c-0.1-0.2-0.2-0.3-0.4-0.4c-0.1,0-0.1-0.1-0.2-0.1l0.6-0.1l-5.7-0.3c0.1-0.4,0.2-0.7,0.2-1.1c0,0,0.1,0.1,0.1,0.1
	c0.2,0.1,0.4,0.2,0.6,0.2c0.2,0,0.4-0.1,0.6-0.2c0.2-0.1,0.3-0.3,0.4-0.4c0.1-0.2,0.1-0.4,0.1-0.7c0-0.3,0-0.5-0.1-0.7
	c0-0.1-0.1-0.2-0.1-0.2l0.4,0v0.2h0.5v2h0.7V13l0.8,0c-0.1,0.1-0.2,0.2-0.3,0.3c-0.1,0.2-0.1,0.4-0.1,0.7c0,0.3,0,0.5,0.1,0.7
	c0.1,0.2,0.2,0.3,0.4,0.4c0.2,0.1,0.4,0.2,0.6,0.2c0.2,0,0.4-0.1,0.6-0.2c0.2-0.1,0.3-0.3,0.4-0.4c0.1-0.2,0.1-0.4,0.1-0.7
	c0-0.3,0-0.5-0.1-0.7c-0.1-0.2-0.2-0.3-0.3-0.4l0.6,0v0.4h0.5v2h0.7v-2.4l0.5,0l-0.5,0l-0.4,0l-6.4-0.3c-0.1-2.2-0.6-4.2-1.7-5.9
	c-0.1-0.1-0.1-0.2-0.2-0.3h9.3v6.1l1.6-3.1v-3V4.2L24.4,4.2L24.4,4.2z M25.2,25.7c-0.1,0.1-0.2,0.2-0.3,0.2c-0.1,0-0.2-0.1-0.3-0.2
	c-0.1-0.1-0.1-0.3-0.1-0.5s0-0.4,0.1-0.5c0.1-0.1,0.2-0.2,0.3-0.2c0.1,0,0.2,0.1,0.3,0.2c0.1,0.1,0.1,0.3,0.1,0.5
	C25.3,25.4,25.3,25.6,25.2,25.7z M29.1,24.6c0.1,0.1,0.1,0.3,0.1,0.5c0,0.2,0,0.4-0.1,0.5c-0.1,0.1-0.2,0.2-0.3,0.2
	c-0.1,0-0.2-0.1-0.3-0.2c-0.1-0.1-0.1-0.3-0.1-0.5c0-0.2,0-0.4,0.1-0.5c0.1-0.1,0.2-0.2,0.3-0.2C28.9,24.5,29,24.5,29.1,24.6z
	 M29.2,21.5c0,0.2,0,0.4-0.1,0.5c-0.1,0.1-0.2,0.2-0.3,0.2c-0.1,0-0.2-0.1-0.3-0.2c-0.1-0.1-0.1-0.3-0.1-0.5c0-0.1,0-0.3,0-0.4
	c0-0.1,0-0.1,0.1-0.2c0.1-0.1,0.2-0.2,0.3-0.2c0.1,0,0.2,0.1,0.3,0.2c0,0,0,0.1,0,0.1C29.2,21.2,29.2,21.3,29.2,21.5z M29.2,17.7
	c0,0.2,0,0.4-0.1,0.5c-0.1,0.1-0.2,0.2-0.3,0.2c-0.1,0-0.2-0.1-0.3-0.2c-0.1-0.1-0.1-0.3-0.1-0.5c0-0.2,0-0.3,0-0.4
	c0-0.1,0-0.1,0.1-0.2c0.1-0.1,0.2-0.2,0.3-0.2c0.1,0,0.2,0.1,0.3,0.2c0,0,0,0.1,0,0.1C29.2,17.4,29.2,17.6,29.2,17.7z M33,18.3
	c-0.1,0.1-0.2,0.2-0.3,0.2c-0.1,0-0.1,0-0.2,0c0,0-0.1-0.1-0.1-0.1c-0.1-0.1-0.1-0.3-0.1-0.5c0-0.2,0-0.4,0.1-0.5c0,0,0,0,0.1-0.1
	c0.1-0.1,0.1-0.1,0.2-0.1c0.1,0,0.1,0,0.2,0.1c0,0,0.1,0,0.1,0.1c0,0.1,0.1,0.2,0.1,0.3c0,0.1,0,0.2,0,0.3C33.1,18,33,18.2,33,18.3z
	 M21.4,24.6c0.1,0.1,0.1,0.3,0.1,0.5c0,0.2,0,0.4-0.1,0.5c-0.1,0.1-0.2,0.2-0.3,0.2c-0.1,0-0.2-0.1-0.3-0.2
	c-0.1-0.1-0.1-0.3-0.1-0.5c0-0.2,0-0.4,0.1-0.5c0,0,0,0,0,0L21.4,24.6C21.3,24.6,21.3,24.6,21.4,24.6z M25.3,21.3c0,0.1,0,0.1,0,0.2
	c0,0.2,0,0.4-0.1,0.5c-0.1,0.1-0.2,0.2-0.3,0.2c-0.1,0-0.2-0.1-0.3-0.2c-0.1-0.1-0.1-0.2-0.1-0.4c0.1-0.1,0.2-0.2,0.4-0.3L25.3,21.3
	C25.3,21.2,25.3,21.3,25.3,21.3z M33,14.6c-0.1,0.1-0.2,0.2-0.3,0.2c-0.1,0-0.2-0.1-0.3-0.2c-0.1-0.1-0.1-0.3-0.1-0.5
	c0-0.2,0-0.4,0.1-0.5c0.1-0.1,0.2-0.2,0.3-0.2c0.1,0,0.2,0.1,0.3,0.2c0.1,0.1,0.1,0.3,0.1,0.5C33.1,14.3,33,14.5,33,14.6z
	 M21.4,14.6c-0.1,0.1-0.2,0.2-0.3,0.2c-0.1,0-0.2-0.1-0.3-0.2c-0.1-0.1-0.1-0.3-0.1-0.5c0-0.2,0-0.4,0.1-0.5l0.6,0
	c0.1,0.1,0.1,0.3,0.1,0.5C21.5,14.3,21.4,14.5,21.4,14.6z M29.1,14.6c-0.1,0.1-0.2,0.2-0.3,0.2c-0.1,0-0.2-0.1-0.3-0.2
	c-0.1-0.1-0.1-0.3-0.1-0.5c0-0.2,0-0.4,0.1-0.5c0.1-0.1,0.2-0.2,0.3-0.2c0.1,0,0.2,0.1,0.3,0.2c0.1,0.1,0.1,0.3,0.1,0.5
	C29.2,14.3,29.2,14.5,29.1,14.6z"/>
<path class="st0" d="M20,28.1L20,28.1l0,0.8c0,0.3,0,0.5,0.1,0.7c0.1,0.2,0.2,0.3,0.4,0.4c0.2,0.1,0.4,0.2,0.6,0.2
	c0.2,0,0.4-0.1,0.6-0.2c0.2-0.1,0.3-0.3,0.4-0.4c0.1-0.2,0.1-0.4,0.1-0.7c0-0.3,0-0.5-0.1-0.7c0-0.1-0.1-0.2-0.1-0.2l0.4,0v0.3h0.5
	v2h0.7v-2.3l0.9-0.1c-0.2,0.1-0.3,0.2-0.4,0.4c-0.1,0.2-0.1,0.4-0.1,0.7c0,0.3,0,0.5,0.1,0.7c0.1,0.2,0.2,0.3,0.4,0.4
	c0.2,0.1,0.4,0.2,0.6,0.2c0.2,0,0.4-0.1,0.6-0.2c0.2-0.1,0.3-0.3,0.4-0.4c0.1-0.2,0.1-0.4,0.1-0.7c0-0.3,0-0.5-0.1-0.7
	c-0.1-0.2-0.2-0.3-0.4-0.4c-0.1,0-0.1-0.1-0.2-0.1l2.1-0.2l0.3-0.1L20,26.9L20,28.1L20,28.1z M24.7,28.3c0.1-0.1,0.2-0.2,0.3-0.2
	c0.1,0,0.2,0.1,0.3,0.2c0.1,0.1,0.1,0.3,0.1,0.5c0,0.2,0,0.4-0.1,0.5c-0.1,0.1-0.2,0.2-0.3,0.2c-0.1,0-0.2-0.1-0.3-0.2
	c-0.1-0.1-0.1-0.3-0.1-0.5C24.6,28.6,24.6,28.5,24.7,28.3z M21.1,28.2c0.1,0,0.2,0.1,0.3,0.2c0.1,0.1,0.1,0.3,0.1,0.5
	c0,0.2,0,0.4-0.1,0.5c-0.1,0.1-0.2,0.2-0.3,0.2c-0.1,0-0.2-0.1-0.3-0.2c-0.1-0.1-0.1-0.3-0.1-0.5c0-0.2,0-0.4,0.1-0.5
	C20.9,28.2,21,28.2,21.1,28.2z"/>
<path class="st0" d="M26.2,28.2h0.5v2h0.7v-2.5l-1.2,0.2V28.2z"/>
<path class="st0" d="M25.5,31.5c-0.1,0-0.1-0.1-0.2-0.1l0.5-0.4L20,30.7v0.9v0.3v0.7l0,0c0,0,0,0,0,0c0,0.3,0,0.5,0.1,0.7
	c0.1,0.2,0.2,0.3,0.4,0.4c0.2,0.1,0.4,0.2,0.6,0.2c0.2,0,0.4-0.1,0.6-0.2c0.2-0.1,0.3-0.3,0.4-0.4c0.1-0.2,0.1-0.4,0.1-0.7
	c0-0.3,0-0.5-0.1-0.7c0-0.1-0.1-0.2-0.1-0.2l0.4,0v0.3h0.5v2h0.7v-2.3l0.9-0.1c0,0,0,0,0,0c-0.2,0.1-0.3,0.3-0.4,0.4
	c-0.1,0.2-0.1,0.4-0.1,0.7s0,0.5,0.1,0.7c0.1,0.2,0.2,0.3,0.4,0.4c0.2,0.1,0.4,0.2,0.6,0.2c0.2,0,0.4-0.1,0.6-0.2
	c0.2-0.1,0.3-0.3,0.4-0.4c0.1-0.2,0.1-0.4,0.1-0.7s0-0.5-0.1-0.7C25.8,31.7,25.7,31.6,25.5,31.5z M21.4,33.2
	c-0.1,0.1-0.2,0.2-0.3,0.2c-0.1,0-0.2-0.1-0.3-0.2c-0.1-0.1-0.1-0.3-0.1-0.5s0-0.4,0.1-0.5c0.1-0.1,0.2-0.2,0.3-0.2
	c0.1,0,0.2,0.1,0.3,0.2c0.1,0.1,0.1,0.3,0.1,0.5C21.5,32.9,21.4,33,21.4,33.2z M25.2,33.2c-0.1,0.1-0.2,0.2-0.3,0.2
	c-0.1,0-0.2-0.1-0.3-0.2c-0.1-0.1-0.1-0.3-0.1-0.5s0-0.4,0.1-0.5c0.1-0.1,0.2-0.2,0.3-0.2c0.1,0,0.2,0.1,0.3,0.2
	c0.1,0.1,0.1,0.3,0.1,0.5C25.3,32.9,25.3,33,25.2,33.2z"/>
</svg>
