<svg width="159" height="41" viewBox="0 0 159 41" fill="none" xmlns="http://www.w3.org/2000/svg">
<path d="M54.7122 12.3027C55.535 12.6749 56.1717 13.2038 56.6223 13.8944C57.0679 14.5849 57.2932 15.393 57.2932 16.3236C57.2932 17.2541 57.0679 18.0622 56.6223 18.7429C56.1717 19.4237 55.5399 19.9526 54.7122 20.3248C53.8894 20.697 52.9148 20.8831 51.7982 20.8831H49.6433V24.1155H46.1465V11.7444H51.8031C52.9148 11.7444 53.8894 11.9305 54.7122 12.3027ZM53.2087 17.6557C53.576 17.3422 53.7572 16.8966 53.7572 16.3236C53.7572 15.7456 53.576 15.3 53.2087 14.9816C52.8414 14.6633 52.3026 14.5066 51.5827 14.5066H49.6384V18.1307H51.5827C52.3026 18.1258 52.8463 17.9691 53.2087 17.6557Z" fill="#23262F"/>
<path d="M66.4623 15.4666C67.2998 16.1914 67.7161 17.3031 67.7161 18.7969V24.1156H64.5915V22.8814C64.1066 23.8119 63.1663 24.2772 61.7656 24.2772C61.0212 24.2772 60.3796 24.1449 59.8409 23.8903C59.2973 23.6307 58.8908 23.2781 58.6116 22.8373C58.3325 22.3965 58.1953 21.8921 58.1953 21.324C58.1953 20.4179 58.543 19.7127 59.2385 19.2132C59.9339 18.7136 61.0065 18.4638 62.4562 18.4638H64.3662C64.3074 17.45 63.6316 16.9456 62.3337 16.9456C61.8734 16.9456 61.4081 17.0191 60.9379 17.166C60.4678 17.3129 60.0662 17.5186 59.738 17.7782L58.6067 15.5008C59.1356 15.1482 59.7821 14.874 60.5412 14.6781C61.3004 14.4822 62.0644 14.3842 62.8284 14.3842C64.4152 14.3793 65.6248 14.7417 66.4623 15.4666ZM63.7246 21.8725C64.0185 21.6815 64.2291 21.4072 64.3613 21.0399V20.2073H62.9116C61.9321 20.2073 61.4473 20.5306 61.4473 21.182C61.4473 21.4758 61.5599 21.7109 61.7803 21.8872C62.0056 22.0635 62.3092 22.1517 62.701 22.1517C63.0879 22.1566 63.4308 22.0586 63.7246 21.8725Z" fill="#23262F"/>
<path d="M76.4477 23.7286C76.1636 23.9049 75.8208 24.042 75.4143 24.1351C75.0078 24.2281 74.5768 24.2771 74.1164 24.2771C72.8676 24.2771 71.9077 23.9686 71.2367 23.3564C70.5657 22.7442 70.2278 21.8283 70.2278 20.6187V17.401H68.832V14.8935H70.2278V12.4006H73.5826V14.8935H75.7767V17.401H73.5826V20.5795C73.5826 20.9223 73.6757 21.1917 73.8569 21.3827C74.0381 21.5786 74.283 21.6716 74.5915 21.6716C74.9833 21.6716 75.3212 21.5737 75.6151 21.3729L76.4477 23.7286Z" fill="#23262F"/>
<path d="M84.1508 23.7286C83.8667 23.9049 83.5239 24.042 83.1174 24.1351C82.7109 24.2281 82.2799 24.2771 81.8196 24.2771C80.5707 24.2771 79.6108 23.9686 78.9399 23.3564C78.2689 22.7442 77.9309 21.8283 77.9309 20.6187V17.401H76.5352V14.8935H77.9309V12.4006H81.2858V14.8935H83.4798V17.401H81.2858V20.5795C81.2858 20.9223 81.3788 21.1917 81.56 21.3827C81.7412 21.5786 81.9861 21.6716 82.2946 21.6716C82.6864 21.6716 83.0243 21.5737 83.3182 21.3729L84.1508 23.7286Z" fill="#23262F"/>
<path d="M94.8923 20.1731H87.9329C88.075 20.6677 88.3492 21.0497 88.7557 21.3142C89.1622 21.5786 89.6716 21.7109 90.2837 21.7109C90.7441 21.7109 91.1408 21.6472 91.4787 21.515C91.8118 21.3827 92.1546 21.1722 92.4925 20.8783L94.2605 22.7149C93.33 23.7531 91.9685 24.2674 90.1809 24.2674C89.0594 24.2674 88.0799 24.0568 87.2326 23.6307C86.3853 23.2095 85.7291 22.6169 85.2638 21.8627C84.7985 21.1085 84.5684 20.2514 84.5684 19.3013C84.5684 18.361 84.7936 17.5137 85.2491 16.7644C85.6997 16.0151 86.3266 15.4323 87.1297 15.0062C87.9329 14.5801 88.8341 14.3695 89.8332 14.3695C90.7882 14.3695 91.6551 14.5654 92.4289 14.9621C93.2076 15.3588 93.8198 15.9269 94.2752 16.6762C94.7307 17.4256 94.956 18.312 94.956 19.3356C94.9462 19.3699 94.9315 19.6441 94.8923 20.1731ZM88.5402 17.2052C88.1925 17.499 87.9721 17.9006 87.8791 18.4051H91.802C91.7089 17.9006 91.4836 17.499 91.1408 17.2052C90.7931 16.9113 90.3621 16.7644 89.843 16.7644C89.3238 16.7644 88.888 16.9113 88.5402 17.2052Z" fill="#23262F"/>
<path d="M101.032 14.7074C101.581 14.4919 102.208 14.3793 102.913 14.3793V17.401C102.604 17.3668 102.354 17.3472 102.154 17.3472C101.434 17.3472 100.871 17.5431 100.464 17.93C100.058 18.3169 99.8567 18.9144 99.8567 19.7127V24.1106H96.502V14.5409H99.7V15.6869C100.038 15.251 100.484 14.9229 101.032 14.7074Z" fill="#23262F"/>
<path d="M113.404 15.4372C114.129 16.1424 114.492 17.2101 114.492 18.6352V24.1107H111.137V19.1789C111.137 17.8712 110.613 17.2199 109.565 17.2199C108.987 17.2199 108.526 17.406 108.179 17.788C107.831 18.1651 107.659 18.7283 107.659 19.4825V24.1107H104.305V14.5409H107.503V15.5841C107.88 15.1972 108.326 14.8984 108.845 14.6928C109.364 14.4871 109.927 14.3842 110.544 14.3842C111.72 14.3793 112.679 14.7319 113.404 15.4372Z" fill="#23262F"/>
<path d="M119.384 14.5213H115.584V11.7493H126.662V14.5213H122.881V24.1155H119.384V14.5213Z" fill="#23262F"/>
<path d="M136.574 20.1731H129.615C129.757 20.6677 130.031 21.0497 130.437 21.3142C130.844 21.5786 131.353 21.7109 131.965 21.7109C132.426 21.7109 132.822 21.6472 133.16 21.515C133.493 21.3827 133.836 21.1722 134.174 20.8783L135.942 22.7149C135.012 23.7531 133.65 24.2674 131.863 24.2674C130.741 24.2674 129.762 24.0568 128.914 23.6307C128.067 23.2095 127.411 22.6169 126.945 21.8627C126.48 21.1085 126.25 20.2514 126.25 19.3013C126.25 18.361 126.475 17.5137 126.931 16.7644C127.381 16.0151 128.008 15.4323 128.811 15.0062C129.615 14.5801 130.516 14.3695 131.515 14.3695C132.47 14.3695 133.337 14.5654 134.111 14.9621C134.889 15.3588 135.501 15.9269 135.957 16.6762C136.412 17.4256 136.638 18.312 136.638 19.3356C136.628 19.3699 136.613 19.6441 136.574 20.1731ZM130.227 17.2052C129.879 17.499 129.659 17.9006 129.566 18.4051H133.489C133.395 17.9006 133.17 17.499 132.827 17.2052C132.48 16.9113 132.049 16.7644 131.53 16.7644C131.005 16.7644 130.57 16.9113 130.227 17.2052Z" fill="#23262F"/>
<path d="M140.234 23.6405C139.396 23.2193 138.745 22.6267 138.279 21.8724C137.814 21.1182 137.584 20.2612 137.584 19.3111C137.584 18.356 137.814 17.5088 138.279 16.7594C138.745 16.0101 139.396 15.4273 140.234 15.011C141.071 14.5947 142.021 14.3842 143.079 14.3842C144.161 14.3842 145.102 14.6192 145.89 15.0845C146.679 15.5498 147.237 16.1962 147.57 17.019L144.974 18.3462C144.538 17.4843 143.902 17.0533 143.064 17.0533C142.462 17.0533 141.967 17.2541 141.571 17.6557C141.174 18.0573 140.978 18.6107 140.978 19.3159C140.978 20.0359 141.174 20.5991 141.571 21.0056C141.967 21.4121 142.462 21.6178 143.064 21.6178C143.902 21.6178 144.538 21.1868 144.974 20.3248L147.57 21.6521C147.242 22.4748 146.679 23.1213 145.89 23.5866C145.102 24.0518 144.166 24.2869 143.079 24.2869C142.021 24.2771 141.071 24.0616 140.234 23.6405Z" fill="#23262F"/>
<path d="M157.912 15.4371C158.637 16.1424 158.999 17.21 158.999 18.6352V24.1106H155.645V19.1788C155.645 17.8712 155.12 17.2198 154.072 17.2198C153.495 17.2198 153.034 17.4059 152.686 17.788C152.339 18.1651 152.167 18.7283 152.167 19.4825V24.1106H148.812V11H152.167V15.4176C152.535 15.0747 152.961 14.8152 153.455 14.6389C153.95 14.4625 154.479 14.3744 155.047 14.3744C156.232 14.3793 157.187 14.7319 157.912 15.4371Z" fill="#23262F"/>
<path d="M85.6344 36.1879C85.0663 35.8842 84.6206 35.4581 84.2973 34.9194C83.9741 34.3758 83.8125 33.7685 83.8125 33.0828C83.8125 32.3972 83.9741 31.7899 84.2973 31.2463C84.6206 30.7076 85.0663 30.2815 85.6344 29.9778C86.2025 29.6742 86.8392 29.5175 87.5493 29.5175C88.1468 29.5175 88.6855 29.6252 89.1704 29.8358C89.6552 30.0464 90.0569 30.3451 90.385 30.7418L89.3614 31.6871C88.8961 31.1483 88.3182 30.879 87.6277 30.879C87.2016 30.879 86.8196 30.972 86.4866 31.1581C86.1535 31.3442 85.8891 31.6038 85.703 31.9417C85.5169 32.2748 85.4238 32.6568 85.4238 33.0828C85.4238 33.5089 85.5169 33.8909 85.703 34.224C85.8891 34.557 86.1486 34.8166 86.4866 35.0076C86.8196 35.1937 87.2016 35.2867 87.6277 35.2867C88.3182 35.2867 88.8961 35.0125 89.3614 34.4688L90.385 35.4141C90.0569 35.8157 89.6503 36.1193 89.1655 36.3299C88.6806 36.5405 88.137 36.6433 87.5395 36.6433C86.8343 36.6482 86.1976 36.4915 85.6344 36.1879Z" fill="#23262F"/>
<path d="M92.1781 36.2564C91.7373 36.0213 91.3896 35.6981 91.1398 35.2867C90.89 34.8753 90.7676 34.4051 90.7676 33.8811C90.7676 33.3571 90.89 32.8869 91.1398 32.4755C91.3896 32.0641 91.7373 31.7409 92.1781 31.5058C92.6188 31.2707 93.1233 31.1581 93.6767 31.1581C94.235 31.1581 94.7346 31.2756 95.1753 31.5058C95.6161 31.7409 95.9589 32.0641 96.2087 32.4755C96.4585 32.8869 96.5809 33.3571 96.5809 33.8811C96.5809 34.4051 96.4585 34.8753 96.2087 35.2867C95.9589 35.6981 95.6161 36.0213 95.1753 36.2564C94.7346 36.4915 94.235 36.6041 93.6767 36.6041C93.1233 36.6041 92.6188 36.4915 92.1781 36.2564ZM94.6464 34.9488C94.8962 34.6843 95.0235 34.3268 95.0235 33.8811C95.0235 33.4354 94.8962 33.0779 94.6464 32.8134C94.3966 32.549 94.0734 32.4118 93.6767 32.4118C93.2849 32.4118 92.9568 32.5441 92.7021 32.8134C92.4474 33.0779 92.3152 33.4354 92.3152 33.8811C92.3152 34.3268 92.4425 34.6843 92.7021 34.9488C92.9568 35.2132 93.28 35.3504 93.6767 35.3504C94.0734 35.3455 94.3966 35.2132 94.6464 34.9488Z" fill="#23262F"/>
<path d="M97.4383 36.3299C97.2571 36.1487 97.1641 35.9185 97.1641 35.6393C97.1641 35.3553 97.2571 35.13 97.4383 34.9537C97.6195 34.7773 97.8497 34.6941 98.1191 34.6941C98.3884 34.6941 98.6137 34.7822 98.7998 34.9537C98.9811 35.1251 99.0741 35.3553 99.0741 35.6393C99.0741 35.9136 98.9811 36.1438 98.7998 36.3299C98.6186 36.5111 98.3884 36.6041 98.1191 36.6041C97.8497 36.6041 97.6244 36.516 97.4383 36.3299Z" fill="#23262F"/>
<path d="M101.386 34.9585C101.562 35.1299 101.65 35.3601 101.65 35.6441C101.65 35.7764 101.636 35.9037 101.601 36.036C101.567 36.1682 101.493 36.3641 101.386 36.6285L100.823 38.0439H99.8479L100.279 36.4767C100.112 36.4131 99.9851 36.3053 99.892 36.1584C99.799 36.0115 99.75 35.84 99.75 35.6441C99.75 35.3601 99.8381 35.1348 100.019 34.9585C100.201 34.7822 100.426 34.6989 100.705 34.6989C100.984 34.694 101.209 34.7822 101.386 34.9585Z" fill="#23262F"/>
<path d="M102.801 29.6399H104.397V35.2329H107.85V36.5307H102.801V29.6399Z" fill="#23262F"/>
<path d="M109.534 30.9377H107.33V29.6399H113.334V30.9377H111.131V36.5307H109.534V30.9377Z" fill="#23262F"/>
<path d="M114.188 29.6399H117.317C118.066 29.6399 118.727 29.7819 119.301 30.066C119.874 30.35 120.319 30.7516 120.638 31.2708C120.956 31.7899 121.117 32.3923 121.117 33.0828C121.117 33.7734 120.956 34.3758 120.638 34.8949C120.319 35.4141 119.874 35.8157 119.301 36.0997C118.727 36.3838 118.066 36.5258 117.317 36.5258H114.188V29.6399ZM117.239 35.2182C117.929 35.2182 118.478 35.0272 118.884 34.6403C119.296 34.2583 119.501 33.7391 119.501 33.0828C119.501 32.4266 119.296 31.9074 118.884 31.5254C118.473 31.1434 117.924 30.9524 117.239 30.9524H115.779V35.2231H117.239V35.2182Z" fill="#23262F"/>
<path d="M19.9668 39.3238L21.1604 39.0379L21.8117 38.2323L19.9668 38.137V39.3238Z" fill="#23262F"/>
<path d="M19.9668 35.5954H19.9736V36.3374V36.4418L19.9827 36.4328C19.994 36.6597 20.0326 36.8639 20.1143 37.0364C20.2073 37.2338 20.339 37.3813 20.5046 37.4857C20.6725 37.5878 20.8631 37.64 21.0765 37.64C21.2875 37.64 21.4781 37.5878 21.6438 37.4857C21.8117 37.3836 21.941 37.2338 22.0341 37.0364C22.1271 36.8389 22.1748 36.6075 22.1748 36.3374C22.1748 36.0674 22.1271 35.8359 22.0341 35.6385C21.9841 35.5364 21.9252 35.4479 21.8571 35.3707L22.2905 35.3186V35.6317H22.758V37.5878H23.466V35.103L23.9221 34.5992L19.9668 34.4041V35.5954ZM21.3624 36.8843C21.292 37.0001 21.1967 37.0568 21.0787 37.0568C20.9584 37.0568 20.8609 36.9978 20.7905 36.8843C20.7202 36.7686 20.6861 36.5848 20.6861 36.3352C20.6861 36.0856 20.7202 35.9018 20.7905 35.786C20.8609 35.6703 20.9562 35.6136 21.0787 35.6136C21.199 35.6136 21.292 35.6726 21.3624 35.786C21.4327 35.9018 21.4668 36.0856 21.4668 36.3352C21.4668 36.5848 21.4327 36.7686 21.3624 36.8843Z" fill="#23262F"/>
<path d="M24.3648 4.16196C23.5433 3.48573 22.6016 2.90935 21.535 2.43508C19.3657 1.47065 16.815 0.987305 13.89 0.987305H0V6.29278H6.2699H10.9627H13.6018C16.334 6.29278 18.408 6.87143 19.824 8.02874C21.0335 9.01813 21.6939 10.3956 21.8686 12.1134L19.967 12.0158L19.9738 13.071H19.967V14.0173L19.9761 14.0082C19.9761 14.0104 19.9761 14.0127 19.9761 14.0173C19.9761 14.2873 20.0237 14.5188 20.1168 14.7162C20.2098 14.9136 20.3414 15.0611 20.5071 15.1655C20.675 15.2676 20.8656 15.3198 21.0789 15.3198C21.2877 15.3198 21.4761 15.2676 21.6417 15.17C21.5804 15.397 21.5124 15.6171 21.4261 15.8258L19.9693 15.751V17.8182C19.9171 17.8636 19.8808 17.9226 19.824 17.968C18.4375 19.1026 16.4111 19.6722 13.7606 19.6949V16.3705V12.4106H0V19.704V22.5541V34.7513H6.2699V25.0094H11.5935V40.0386H13.7606V25.0094H13.89C16.1411 25.0094 18.163 24.7167 19.967 24.1471V24.6554H19.9738V25.1796C19.9738 25.4497 20.0215 25.6811 20.1145 25.8786C20.2075 26.076 20.3392 26.2235 20.5048 26.3279C20.6727 26.43 20.8634 26.4822 21.0767 26.4822C21.2877 26.4822 21.4783 26.43 21.644 26.3279C21.8119 26.2257 21.9412 26.076 22.0343 25.8786C22.1273 25.6811 22.175 25.4497 22.175 25.1796C22.175 24.9096 22.1273 24.6781 22.0343 24.4807L22.2907 24.458V24.4739H22.7582V26.43H23.4662V24.3582L24.097 24.3037C24.0562 24.3582 24.0153 24.4126 23.9836 24.4784C23.8905 24.6759 23.8429 24.9073 23.8429 25.1774C23.8429 25.4474 23.8905 25.6789 23.9836 25.8763C24.0766 26.0737 24.2082 26.2212 24.3739 26.3256C24.5418 26.4277 24.7324 26.4799 24.9457 26.4799C25.1568 26.4799 25.3474 26.4277 25.513 26.3256C25.6809 26.2235 25.8103 26.0737 25.9033 25.8763C25.9964 25.6789 26.044 25.4474 26.044 25.1774C26.044 24.9073 25.9964 24.6759 25.9033 24.4784C25.8443 24.3536 25.7649 24.2561 25.6764 24.1698L26.1575 24.129V24.4739H26.6227V26.43H27.3307V24.0314L28.463 23.9361C28.3836 23.9611 28.3087 23.9906 28.2384 24.0337C28.0705 24.1358 27.9411 24.2856 27.8481 24.483C27.7528 24.6804 27.7074 24.9119 27.7074 25.1819C27.7074 25.4519 27.755 25.6834 27.8481 25.8808C27.9411 26.0782 28.0727 26.2257 28.2384 26.3301C28.4063 26.4322 28.5969 26.4844 28.8102 26.4844C29.0213 26.4844 29.2119 26.4322 29.3775 26.3301C29.5455 26.228 29.6748 26.0782 29.7678 25.8808C29.8609 25.6834 29.9085 25.4519 29.9085 25.1819C29.9085 24.9119 29.8609 24.6804 29.7678 24.483C29.6748 24.2856 29.5432 24.1381 29.3775 24.0337C29.2459 23.9542 29.0984 23.9134 28.9396 23.8975L29.1347 23.8816L29.6612 23.7114L22.0002 23.3211C22.3792 23.135 22.7355 22.9285 23.0804 22.713H23.4639V22.4702C23.6364 22.3544 23.7997 22.2319 23.9631 22.1071C23.9699 22.1252 23.9722 22.1457 23.9813 22.1615C24.0743 22.359 24.2059 22.5065 24.3716 22.6109C24.5395 22.713 24.7301 22.7652 24.9434 22.7652C25.1545 22.7652 25.3451 22.713 25.5108 22.6109C25.6787 22.5087 25.808 22.359 25.9011 22.1615C25.9941 21.9641 26.0417 21.7327 26.0417 21.4626C26.0417 21.3832 26.0281 21.3129 26.0213 21.2402C26.0168 21.1994 26.0168 21.154 26.01 21.1154L26.6204 21.0088V21.2039V22.713H27.3284V21.1608V20.884L27.8344 20.7955C27.7891 20.8999 27.755 21.0133 27.7346 21.1359C27.7164 21.238 27.7051 21.3446 27.7051 21.4604C27.7051 21.7304 27.7528 21.9619 27.8458 22.1593C27.9388 22.3567 28.0705 22.5042 28.2361 22.6086C28.404 22.7107 28.5946 22.7629 28.8079 22.7629C29.019 22.7629 29.2096 22.7107 29.3753 22.6086C29.5432 22.5065 29.6725 22.3567 29.7656 22.1593C29.8586 21.9619 29.9063 21.7304 29.9063 21.4604C29.9063 21.2947 29.8813 21.1472 29.8473 21.011C29.8246 20.9248 29.8019 20.8386 29.7656 20.7637C29.7156 20.6593 29.6544 20.5708 29.5818 20.4914L30.0197 20.4142V20.7569H30.4849V20.9725V22.1797V22.713H31.1929V20.2123L31.6218 20.0807L26.2188 19.7993C26.3186 19.6586 26.4343 19.5338 26.5274 19.3885C26.6113 19.2569 26.6885 19.123 26.7634 18.9892H27.3329V17.791C27.3829 17.6685 27.4328 17.5459 27.4804 17.4211C27.5236 17.3054 27.5644 17.1874 27.6053 17.0694L27.8503 17.0444C27.7981 17.1533 27.7641 17.2759 27.7414 17.4075C27.7233 17.5119 27.7096 17.6208 27.7096 17.7388C27.7096 18.0088 27.7573 18.2403 27.8503 18.4377C27.9434 18.6352 28.075 18.7827 28.2406 18.887C28.4086 18.9892 28.5992 19.0413 28.8125 19.0413C29.0235 19.0413 29.2141 18.9892 29.3798 18.887C29.5477 18.7849 29.6771 18.6352 29.7701 18.4377C29.8632 18.2403 29.9108 18.0088 29.9108 17.7388C29.9108 17.5709 29.8858 17.4211 29.8495 17.2827C29.8268 17.1987 29.8064 17.1148 29.7701 17.0399C29.7361 16.9695 29.693 16.9128 29.6498 16.8561L30.0243 16.8175V17.0353H30.4895V17.2441V18.9892H31.1975V17.201V16.6927L32.0938 16.5996C31.9327 16.7018 31.8056 16.847 31.7126 17.0399C31.6922 17.0807 31.6831 17.1306 31.6695 17.1738C31.6105 17.3417 31.5719 17.5255 31.5719 17.7388C31.5719 18.0088 31.6195 18.2403 31.7126 18.4377C31.8079 18.6352 31.9372 18.7827 32.1029 18.887C32.1437 18.912 32.1914 18.9256 32.2345 18.9438C32.3684 19.0028 32.5113 19.0413 32.6725 19.0413C32.8835 19.0413 33.0741 18.9892 33.2398 18.887C33.4077 18.7849 33.537 18.6352 33.6301 18.4377C33.7254 18.2403 33.7708 18.0088 33.7708 17.7388C33.7708 17.4688 33.7231 17.2373 33.6301 17.0399C33.537 16.8425 33.4054 16.695 33.2398 16.5906C33.174 16.552 33.1036 16.5248 33.0333 16.5021L33.5847 16.4453L27.8776 16.1549C27.9661 15.7941 28.0341 15.4219 28.0886 15.043C28.1363 15.0861 28.1794 15.1337 28.2338 15.1678C28.4018 15.2699 28.5924 15.3221 28.8057 15.3221C29.0167 15.3221 29.2073 15.2699 29.373 15.1678C29.5409 15.0656 29.6703 14.9159 29.7633 14.7185C29.8563 14.521 29.904 14.2896 29.904 14.0195C29.904 13.7495 29.8563 13.518 29.7633 13.3206C29.7225 13.2366 29.6725 13.1663 29.6203 13.1005L30.0175 13.0801V13.3138H30.4826V15.2699H31.1906V13.0256L31.9622 12.987C31.8623 13.0778 31.7716 13.1844 31.7058 13.3206C31.6127 13.518 31.5651 13.7495 31.5651 14.0195C31.5651 14.2896 31.6127 14.521 31.7058 14.7185C31.8011 14.9159 31.9304 15.0634 32.0961 15.1678C32.264 15.2699 32.4546 15.3221 32.6679 15.3221C32.879 15.3221 33.0696 15.2699 33.2352 15.1678C33.4032 15.0656 33.5325 14.9159 33.6255 14.7185C33.7209 14.521 33.7662 14.2896 33.7662 14.0195C33.7662 13.7495 33.7186 13.518 33.6255 13.3206C33.5438 13.1504 33.4304 13.0233 33.2942 12.9212L33.882 12.8917V13.3138H34.3472V15.2699H35.0552V12.8373L35.5431 12.8146L35.0552 12.7896L34.6626 12.7692L28.2179 12.4401C28.134 10.2072 27.5826 8.24659 26.516 6.58551C26.4502 6.48339 26.3663 6.39489 26.2959 6.29505H35.6157V12.4174L37.2427 9.3154V6.29505V4.16424H24.3648V4.16196ZM25.2294 25.7242C25.159 25.84 25.0637 25.8967 24.9457 25.8967C24.8254 25.8967 24.7279 25.8377 24.6575 25.7242C24.5872 25.6085 24.5531 25.4247 24.5531 25.1751C24.5531 24.9255 24.5872 24.7417 24.6575 24.6259C24.7279 24.5102 24.8232 24.4535 24.9457 24.4535C25.066 24.4535 25.159 24.5125 25.2294 24.6259C25.2997 24.7417 25.3337 24.9255 25.3337 25.1751C25.336 25.427 25.2997 25.6085 25.2294 25.7242ZM29.0961 24.6282C29.1665 24.7439 29.2005 24.9277 29.2005 25.1774C29.2005 25.427 29.1665 25.6108 29.0961 25.7265C29.0258 25.8422 28.9305 25.899 28.8125 25.899C28.6922 25.899 28.5946 25.84 28.5243 25.7265C28.4539 25.6108 28.4199 25.427 28.4199 25.1774C28.4199 24.9277 28.4539 24.7439 28.5243 24.6282C28.5946 24.5125 28.6899 24.4557 28.8125 24.4557C28.9328 24.4535 29.0258 24.5125 29.0961 24.6282ZM29.2028 21.4558C29.2028 21.7054 29.1688 21.8892 29.0984 22.005C29.0281 22.1207 28.9328 22.1774 28.8148 22.1774C28.6945 22.1774 28.5969 22.1184 28.5266 22.005C28.4562 21.8892 28.4222 21.7054 28.4222 21.4558C28.4222 21.306 28.4381 21.1903 28.463 21.0882C28.4789 21.0201 28.4993 20.9543 28.5266 20.9067C28.5969 20.7909 28.6922 20.7342 28.8148 20.7342C28.935 20.7342 29.0281 20.7932 29.0984 20.9067C29.1211 20.943 29.1324 20.9974 29.1483 21.0473C29.1801 21.1563 29.2028 21.2856 29.2028 21.4558ZM29.2028 17.7365C29.2028 17.9862 29.1688 18.17 29.0984 18.2857C29.0281 18.4014 28.9328 18.4582 28.8148 18.4582C28.6945 18.4582 28.5969 18.3992 28.5266 18.2857C28.4562 18.17 28.4222 17.9862 28.4222 17.7365C28.4222 17.5845 28.4403 17.4642 28.4653 17.3621C28.4812 17.2963 28.4993 17.2328 28.5266 17.1874C28.5969 17.0716 28.6922 17.0149 28.8148 17.0149C28.935 17.0149 29.0281 17.0739 29.0984 17.1874C29.1188 17.2214 29.1302 17.2759 29.1461 17.3213C29.1778 17.4302 29.2028 17.5618 29.2028 17.7365ZM32.9629 18.2857C32.8926 18.4014 32.7973 18.4582 32.6793 18.4582C32.6203 18.4582 32.5704 18.4423 32.5227 18.4173C32.4728 18.3878 32.4274 18.3447 32.3911 18.2857C32.3207 18.17 32.2867 17.9862 32.2867 17.7365C32.2867 17.4869 32.3207 17.3031 32.3911 17.1874C32.407 17.1602 32.4319 17.1465 32.4501 17.1238C32.5136 17.058 32.5862 17.0126 32.677 17.0126C32.7564 17.0126 32.82 17.0467 32.8767 17.0989C32.9062 17.1238 32.9357 17.1488 32.9607 17.1874C32.9992 17.2532 33.0265 17.344 33.0423 17.4506C33.056 17.5346 33.065 17.6253 33.065 17.7365C33.0673 17.9862 33.0333 18.17 32.9629 18.2857ZM21.3626 24.6282C21.4329 24.7439 21.467 24.9277 21.467 25.1774C21.467 25.427 21.4329 25.6108 21.3626 25.7265C21.2922 25.8422 21.1969 25.899 21.0789 25.899C20.9587 25.899 20.8611 25.84 20.7907 25.7265C20.7204 25.6108 20.6864 25.427 20.6864 25.1774C20.6864 24.9277 20.7204 24.7439 20.7907 24.6282C20.8044 24.6078 20.8225 24.5964 20.8361 24.5806L21.2809 24.542C21.3104 24.5669 21.3399 24.5896 21.3626 24.6282ZM25.3201 21.2765C25.3247 21.3355 25.3337 21.3877 25.3337 21.4581C25.3337 21.7077 25.2997 21.8915 25.2294 22.0072C25.159 22.123 25.0637 22.1797 24.9457 22.1797C24.8254 22.1797 24.7279 22.1207 24.6575 22.0072C24.6031 21.9187 24.5781 21.7803 24.5645 21.6124C24.6825 21.508 24.805 21.4082 24.9185 21.3015L25.3179 21.2312C25.3179 21.2448 25.3201 21.2607 25.3201 21.2765ZM32.9629 14.5664C32.8926 14.6821 32.7973 14.7389 32.6793 14.7389C32.559 14.7389 32.4614 14.6799 32.3911 14.5664C32.3207 14.4507 32.2867 14.2669 32.2867 14.0173C32.2867 13.7676 32.3207 13.5838 32.3911 13.4681C32.4614 13.3524 32.5567 13.2956 32.6793 13.2956C32.7995 13.2956 32.8926 13.3546 32.9629 13.4681C33.0333 13.5838 33.0673 13.7676 33.0673 14.0173C33.0673 14.2669 33.0333 14.4507 32.9629 14.5664ZM21.3626 14.5664C21.2922 14.6821 21.1969 14.7389 21.0789 14.7389C20.9587 14.7389 20.8611 14.6799 20.7907 14.5664C20.7204 14.4507 20.6864 14.2669 20.6864 14.0173C20.6864 13.8017 20.7181 13.6451 20.7703 13.5294L21.3739 13.4999C21.4352 13.6156 21.4692 13.7835 21.4692 14.0173C21.4692 14.2669 21.4329 14.4507 21.3626 14.5664ZM29.0961 14.5664C29.0258 14.6821 28.9305 14.7389 28.8125 14.7389C28.6922 14.7389 28.5946 14.6799 28.5243 14.5664C28.4539 14.4507 28.4199 14.2669 28.4199 14.0173C28.4199 13.7676 28.4539 13.5838 28.5243 13.4681C28.5946 13.3524 28.6899 13.2956 28.8125 13.2956C28.9328 13.2956 29.0258 13.3546 29.0961 13.4681C29.1665 13.5838 29.2005 13.7676 29.2005 14.0173C29.2028 14.2669 29.1665 14.4507 29.0961 14.5664Z" fill="#23262F"/>
<path d="M19.9671 28.1432H19.9739V28.8989C19.9739 29.1689 20.0216 29.4004 20.1146 29.5978C20.2076 29.7952 20.3393 29.9427 20.5049 30.0471C20.6728 30.1492 20.8635 30.2014 21.0768 30.2014C21.2878 30.2014 21.4784 30.1492 21.6441 30.0471C21.812 29.945 21.9413 29.7952 22.0344 29.5978C22.1274 29.4004 22.1751 29.1689 22.1751 28.8989C22.1751 28.6288 22.1274 28.3974 22.0344 28.2C21.9935 28.1137 21.9436 28.0434 21.8892 27.9753L22.2908 27.939V28.1931H22.7583V30.1492H23.4663V27.8369L24.3672 27.7575C24.2038 27.8596 24.0767 28.0071 23.9837 28.2C23.8906 28.3974 23.843 28.6288 23.843 28.8989C23.843 29.1689 23.8906 29.4004 23.9837 29.5978C24.0767 29.7952 24.2083 29.9427 24.374 30.0471C24.5419 30.1492 24.7325 30.2014 24.9458 30.2014C25.1569 30.2014 25.3475 30.1492 25.5131 30.0471C25.6811 29.945 25.8104 29.7952 25.9034 29.5978C25.9965 29.4004 26.0441 29.1689 26.0441 28.8989C26.0441 28.6288 25.9965 28.3974 25.9034 28.2C25.8081 28.0025 25.6788 27.855 25.5131 27.7506C25.4564 27.7166 25.3929 27.6939 25.3293 27.6712L27.4011 27.4897L27.6984 27.3399L19.9648 26.9451V28.1432H19.9671ZM24.6576 28.3475C24.728 28.2317 24.8233 28.175 24.9458 28.175C25.0661 28.175 25.1591 28.234 25.2295 28.3475C25.2998 28.4632 25.3339 28.647 25.3339 28.8966C25.3339 29.1462 25.2998 29.33 25.2295 29.4458C25.1591 29.5615 25.0638 29.6182 24.9458 29.6182C24.8256 29.6182 24.728 29.5592 24.6576 29.4458C24.5873 29.33 24.5532 29.1462 24.5532 28.8966C24.5532 28.647 24.5873 28.4632 24.6576 28.3475ZM21.079 28.175C21.1993 28.175 21.2923 28.234 21.3627 28.3475C21.433 28.4632 21.4671 28.647 21.4671 28.8966C21.4671 29.1462 21.433 29.33 21.3627 29.4458C21.2923 29.5615 21.197 29.6182 21.079 29.6182C20.9588 29.6182 20.8612 29.5592 20.7908 29.4458C20.7205 29.33 20.6865 29.1462 20.6865 28.8966C20.6865 28.647 20.7205 28.4632 20.7908 28.3475C20.8612 28.2317 20.9588 28.175 21.079 28.175Z" fill="#23262F"/>
<path d="M26.1602 28.1931H26.6253V30.1469H27.3333V27.6462L26.1602 27.8051V28.1931Z" fill="#23262F"/>
<path d="M25.5131 31.47C25.4428 31.4269 25.3634 31.3974 25.2839 31.3724L25.7355 30.9708L19.9648 30.6758V31.5789V31.8717V32.6182L19.9739 32.6092C19.9739 32.6137 19.9739 32.616 19.9739 32.6182C19.9739 32.8883 20.0216 33.1198 20.1146 33.3172C20.2076 33.5146 20.3393 33.6621 20.5049 33.7665C20.6728 33.8686 20.8635 33.9208 21.0768 33.9208C21.2878 33.9208 21.4784 33.8686 21.6441 33.7665C21.812 33.6644 21.9413 33.5146 22.0344 33.3172C22.1274 33.1198 22.1751 32.8883 22.1751 32.6182C22.1751 32.3482 22.1274 32.1167 22.0344 31.9193C21.9935 31.8331 21.9436 31.7605 21.8892 31.6947L22.2908 31.6584V31.9148H22.7583V33.8709H23.4663V31.5517L24.3876 31.4677C24.383 31.47 24.3785 31.47 24.374 31.4746C24.206 31.5767 24.0767 31.7264 23.9837 31.9239C23.8906 32.1213 23.843 32.3528 23.843 32.6228C23.843 32.8928 23.8906 33.1243 23.9837 33.3217C24.0767 33.5191 24.2083 33.6666 24.374 33.771C24.5419 33.8731 24.7325 33.9253 24.9458 33.9253C25.1569 33.9253 25.3475 33.8731 25.5131 33.771C25.6811 33.6689 25.8104 33.5191 25.9034 33.3217C25.9965 33.1243 26.0441 32.8928 26.0441 32.6228C26.0441 32.3528 25.9965 32.1213 25.9034 31.9239C25.8104 31.7219 25.6811 31.5721 25.5131 31.47ZM21.3627 33.1651C21.2923 33.2809 21.197 33.3376 21.079 33.3376C20.9588 33.3376 20.8612 33.2786 20.7908 33.1651C20.7205 33.0494 20.6865 32.8656 20.6865 32.616C20.6865 32.3664 20.7205 32.1826 20.7908 32.0668C20.8612 31.9511 20.9565 31.8944 21.079 31.8944C21.1993 31.8944 21.2923 31.9534 21.3627 32.0668C21.433 32.1826 21.4671 32.3664 21.4671 32.616C21.4693 32.8679 21.433 33.0494 21.3627 33.1651ZM25.2295 33.1651C25.1591 33.2809 25.0638 33.3376 24.9458 33.3376C24.8256 33.3376 24.728 33.2786 24.6576 33.1651C24.5873 33.0494 24.5532 32.8656 24.5532 32.616C24.5532 32.3664 24.5873 32.1826 24.6576 32.0668C24.728 31.9511 24.8233 31.8944 24.9458 31.8944C25.0661 31.8944 25.1591 31.9534 25.2295 32.0668C25.2998 32.1826 25.3339 32.3664 25.3339 32.616C25.3361 32.8679 25.2998 33.0494 25.2295 33.1651Z" fill="#23262F"/>
</svg>
