<?xml version="1.0" encoding="utf-8"?>
<!-- Generator: Adobe Illustrator 24.3.0, SVG Export Plug-In . SVG Version: 6.00 Build 0)  -->
<svg version="1.1" id="Layer_1" xmlns="http://www.w3.org/2000/svg" xmlns:xlink="http://www.w3.org/1999/xlink" x="0px" y="0px"
	 viewBox="0 0 114 41" style="enable-background:new 0 0 114 41;" xml:space="preserve">
<style type="text/css">
	.st0{fill:#FFFFFF;}
</style>
<path class="st0" d="M9.7,12.3c0.8,0.4,1.5,0.9,1.9,1.6c0.4,0.7,0.7,1.5,0.7,2.4c0,0.9-0.2,1.7-0.7,2.4c-0.5,0.7-1.1,1.2-1.9,1.6
	c-0.8,0.4-1.8,0.6-2.9,0.6H4.6v3.2H1.1V11.7h5.7C7.9,11.7,8.9,11.9,9.7,12.3z M8.2,17.7c0.4-0.3,0.5-0.8,0.5-1.3
	c0-0.6-0.2-1-0.5-1.3c-0.4-0.3-0.9-0.5-1.6-0.5H4.6v3.6h1.9C7.3,18.1,7.8,18,8.2,17.7z"/>
<path class="st0" d="M21.5,15.5c0.8,0.7,1.3,1.8,1.3,3.3v5.3h-3.1v-1.2c-0.5,0.9-1.4,1.4-2.8,1.4c-0.7,0-1.4-0.1-1.9-0.4
	c-0.5-0.3-1-0.6-1.2-1.1c-0.3-0.4-0.4-0.9-0.4-1.5c0-0.9,0.3-1.6,1-2.1c0.7-0.5,1.8-0.7,3.2-0.7h1.9c-0.1-1-0.7-1.5-2-1.5
	c-0.5,0-0.9,0.1-1.4,0.2c-0.5,0.1-0.9,0.4-1.2,0.6l-1.1-2.3c0.5-0.4,1.2-0.6,1.9-0.8c0.8-0.2,1.5-0.3,2.3-0.3
	C19.4,14.4,20.6,14.7,21.5,15.5z M18.7,21.9c0.3-0.2,0.5-0.5,0.6-0.8v-0.8h-1.4c-1,0-1.5,0.3-1.5,1c0,0.3,0.1,0.5,0.3,0.7
	c0.2,0.2,0.5,0.3,0.9,0.3C18.1,22.2,18.4,22.1,18.7,21.9z"/>
<path class="st0" d="M31.4,23.7c-0.3,0.2-0.6,0.3-1,0.4c-0.4,0.1-0.8,0.1-1.3,0.1c-1.2,0-2.2-0.3-2.9-0.9c-0.7-0.6-1-1.5-1-2.7v-3.2
	h-1.4v-2.5h1.4v-2.5h3.4v2.5h2.2v2.5h-2.2v3.2c0,0.3,0.1,0.6,0.3,0.8c0.2,0.2,0.4,0.3,0.7,0.3c0.4,0,0.7-0.1,1-0.3L31.4,23.7z"/>
<path class="st0" d="M39.2,23.7c-0.3,0.2-0.6,0.3-1,0.4c-0.4,0.1-0.8,0.1-1.3,0.1c-1.2,0-2.2-0.3-2.9-0.9c-0.7-0.6-1-1.5-1-2.7v-3.2
	h-1.4v-2.5h1.4v-2.5h3.4v2.5h2.2v2.5h-2.2v3.2c0,0.3,0.1,0.6,0.3,0.8c0.2,0.2,0.4,0.3,0.7,0.3c0.4,0,0.7-0.1,1-0.3L39.2,23.7z"/>
<path class="st0" d="M49.9,20.2h-7c0.1,0.5,0.4,0.9,0.8,1.1c0.4,0.3,0.9,0.4,1.5,0.4c0.5,0,0.9-0.1,1.2-0.2c0.3-0.1,0.7-0.3,1-0.6
	l1.8,1.8c-0.9,1-2.3,1.6-4.1,1.6c-1.1,0-2.1-0.2-2.9-0.6c-0.8-0.4-1.5-1-2-1.8s-0.7-1.6-0.7-2.6c0-0.9,0.2-1.8,0.7-2.5
	c0.5-0.7,1.1-1.3,1.9-1.8c0.8-0.4,1.7-0.6,2.7-0.6c1,0,1.8,0.2,2.6,0.6c0.8,0.4,1.4,1,1.8,1.7c0.5,0.7,0.7,1.6,0.7,2.7
	C49.9,19.4,49.9,19.6,49.9,20.2z M43.5,17.2c-0.3,0.3-0.6,0.7-0.7,1.2h3.9c-0.1-0.5-0.3-0.9-0.7-1.2c-0.3-0.3-0.8-0.4-1.3-0.4
	C44.3,16.8,43.9,16.9,43.5,17.2z"/>
<path class="st0" d="M56,14.7c0.5-0.2,1.2-0.3,1.9-0.3v3c-0.3,0-0.6-0.1-0.8-0.1c-0.7,0-1.3,0.2-1.7,0.6c-0.4,0.4-0.6,1-0.6,1.8v4.4
	h-3.4v-9.6h3.2v1.1C55,15.3,55.5,14.9,56,14.7z"/>
<path class="st0" d="M68.4,15.4c0.7,0.7,1.1,1.8,1.1,3.2v5.5h-3.4v-4.9c0-1.3-0.5-2-1.6-2c-0.6,0-1,0.2-1.4,0.6
	c-0.3,0.4-0.5,0.9-0.5,1.7v4.6h-3.4v-9.6h3.2v1c0.4-0.4,0.8-0.7,1.3-0.9c0.5-0.2,1.1-0.3,1.7-0.3C66.7,14.4,67.7,14.7,68.4,15.4z"/>
<path class="st0" d="M74.4,14.5h-3.8v-2.8h11.1v2.8h-3.8v9.6h-3.5V14.5z"/>
<path class="st0" d="M91.6,20.2h-7c0.1,0.5,0.4,0.9,0.8,1.1c0.4,0.3,0.9,0.4,1.5,0.4c0.5,0,0.9-0.1,1.2-0.2c0.3-0.1,0.7-0.3,1-0.6
	l1.8,1.8c-0.9,1-2.3,1.6-4.1,1.6c-1.1,0-2.1-0.2-2.9-0.6c-0.8-0.4-1.5-1-2-1.8c-0.5-0.8-0.7-1.6-0.7-2.6c0-0.9,0.2-1.8,0.7-2.5
	c0.4-0.7,1.1-1.3,1.9-1.8c0.8-0.4,1.7-0.6,2.7-0.6c1,0,1.8,0.2,2.6,0.6c0.8,0.4,1.4,1,1.8,1.7c0.5,0.7,0.7,1.6,0.7,2.7
	C91.6,19.4,91.6,19.6,91.6,20.2z M85.2,17.2c-0.3,0.3-0.6,0.7-0.7,1.2h3.9c-0.1-0.5-0.3-0.9-0.7-1.2c-0.3-0.3-0.8-0.4-1.3-0.4
	C86,16.8,85.6,16.9,85.2,17.2z"/>
<path class="st0" d="M95.2,23.6c-0.8-0.4-1.5-1-2-1.8c-0.5-0.8-0.7-1.6-0.7-2.6c0-1,0.2-1.8,0.7-2.6c0.5-0.7,1.1-1.3,2-1.7
	c0.8-0.4,1.8-0.6,2.8-0.6c1.1,0,2,0.2,2.8,0.7c0.8,0.5,1.3,1.1,1.7,1.9l-2.6,1.3c-0.4-0.9-1.1-1.3-1.9-1.3c-0.6,0-1.1,0.2-1.5,0.6
	c-0.4,0.4-0.6,1-0.6,1.7c0,0.7,0.2,1.3,0.6,1.7c0.4,0.4,0.9,0.6,1.5,0.6c0.8,0,1.5-0.4,1.9-1.3l2.6,1.3c-0.3,0.8-0.9,1.5-1.7,1.9
	c-0.8,0.5-1.7,0.7-2.8,0.7C97,24.3,96.1,24.1,95.2,23.6z"/>
<path class="st0" d="M112.9,15.4c0.7,0.7,1.1,1.8,1.1,3.2v5.5h-3.4v-4.9c0-1.3-0.5-2-1.6-2c-0.6,0-1,0.2-1.4,0.6
	c-0.3,0.4-0.5,0.9-0.5,1.7v4.6h-3.4V11h3.4v4.4c0.4-0.3,0.8-0.6,1.3-0.8c0.5-0.2,1-0.3,1.6-0.3C111.2,14.4,112.2,14.7,112.9,15.4z"
	/>
<path class="st0" d="M40.6,36.2c-0.6-0.3-1-0.7-1.3-1.3c-0.3-0.5-0.5-1.2-0.5-1.8c0-0.7,0.2-1.3,0.5-1.8c0.3-0.5,0.8-1,1.3-1.3
	c0.6-0.3,1.2-0.5,1.9-0.5c0.6,0,1.1,0.1,1.6,0.3c0.5,0.2,0.9,0.5,1.2,0.9l-1,0.9c-0.5-0.5-1-0.8-1.7-0.8c-0.4,0-0.8,0.1-1.1,0.3
	c-0.3,0.2-0.6,0.4-0.8,0.8c-0.2,0.3-0.3,0.7-0.3,1.1c0,0.4,0.1,0.8,0.3,1.1c0.2,0.3,0.4,0.6,0.8,0.8c0.3,0.2,0.7,0.3,1.1,0.3
	c0.7,0,1.3-0.3,1.7-0.8l1,0.9c-0.3,0.4-0.7,0.7-1.2,0.9c-0.5,0.2-1,0.3-1.6,0.3C41.8,36.6,41.2,36.5,40.6,36.2z"/>
<path class="st0" d="M47.2,36.3c-0.4-0.2-0.8-0.6-1-1s-0.4-0.9-0.4-1.4c0-0.5,0.1-1,0.4-1.4c0.2-0.4,0.6-0.7,1-1
	c0.4-0.2,0.9-0.3,1.5-0.3c0.6,0,1.1,0.1,1.5,0.3c0.4,0.2,0.8,0.6,1,1c0.2,0.4,0.4,0.9,0.4,1.4c0,0.5-0.1,1-0.4,1.4s-0.6,0.7-1,1
	c-0.4,0.2-0.9,0.3-1.5,0.3C48.1,36.6,47.6,36.5,47.2,36.3z M49.6,34.9c0.2-0.3,0.4-0.6,0.4-1.1s-0.1-0.8-0.4-1.1
	c-0.2-0.3-0.6-0.4-1-0.4c-0.4,0-0.7,0.1-1,0.4c-0.3,0.3-0.4,0.6-0.4,1.1s0.1,0.8,0.4,1.1c0.3,0.3,0.6,0.4,1,0.4
	C49.1,35.3,49.4,35.2,49.6,34.9z"/>
<path class="st0" d="M52.4,36.3c-0.2-0.2-0.3-0.4-0.3-0.7c0-0.3,0.1-0.5,0.3-0.7c0.2-0.2,0.4-0.3,0.7-0.3c0.3,0,0.5,0.1,0.7,0.3
	c0.2,0.2,0.3,0.4,0.3,0.7c0,0.3-0.1,0.5-0.3,0.7c-0.2,0.2-0.4,0.3-0.7,0.3C52.8,36.6,52.6,36.5,52.4,36.3z"/>
<path class="st0" d="M56.4,35c0.2,0.2,0.3,0.4,0.3,0.7c0,0.1,0,0.3,0,0.4c0,0.1-0.1,0.3-0.2,0.6L55.8,38h-1l0.4-1.6
	c-0.2-0.1-0.3-0.2-0.4-0.3c-0.1-0.1-0.1-0.3-0.1-0.5c0-0.3,0.1-0.5,0.3-0.7c0.2-0.2,0.4-0.3,0.7-0.3C56,34.7,56.2,34.8,56.4,35z"/>
<path class="st0" d="M57.8,29.6h1.6v5.6h3.5v1.3h-5V29.6z"/>
<path class="st0" d="M64.5,30.9h-2.2v-1.3h6v1.3h-2.2v5.6h-1.6V30.9z"/>
<path class="st0" d="M69.2,29.6h3.1c0.7,0,1.4,0.1,2,0.4c0.6,0.3,1,0.7,1.3,1.2c0.3,0.5,0.5,1.1,0.5,1.8c0,0.7-0.2,1.3-0.5,1.8
	c-0.3,0.5-0.8,0.9-1.3,1.2c-0.6,0.3-1.2,0.4-2,0.4h-3.1V29.6z M72.2,35.2c0.7,0,1.2-0.2,1.6-0.6c0.4-0.4,0.6-0.9,0.6-1.6
	c0-0.7-0.2-1.2-0.6-1.6c-0.4-0.4-1-0.6-1.6-0.6h-1.5v4.3L72.2,35.2L72.2,35.2z"/>
</svg>
